# Exported from Wings 3D 0.98.36
mtllib box2.mtl
o Default
#24 vertices, 12 faces
v -0.56920999 -0.56920999 0.56920999
v -0.56920999 -0.56920999 -0.56920999
v 0.56920999 -0.56920999 0.56920999
v 0.56920999 -0.56920999 -0.56920999
v -0.56920999 0.56920999 0.56920999
v -0.56920999 0.56920999 -0.56920999
v 0.56920999 0.56920999 0.56920999
v 0.56920999 0.56920999 -0.56920999
v -0.56920999 -0.56920999 0.56920999
v -0.56920999 0.56920999 0.56920999
v 0.56920999 -0.56920999 0.56920999
v 0.56920999 0.56920999 0.56920999
v 0.56920999 -0.56920999 0.56920999
v 0.56920999 0.56920999 0.56920999
v 0.56920999 -0.56920999 -0.56920999
v 0.56920999 0.56920999 -0.56920999
v 0.56920999 -0.56920999 -0.56920999
v 0.56920999 0.56920999 -0.56920999
v -0.56920999 -0.56920999 -0.56920999
v -0.56920999 0.56920999 -0.56920999
v -0.56920999 -0.56920999 -0.56920999
v -0.56920999 0.56920999 -0.56920999
v -0.56920999 -0.56920999 0.56920999
v -0.56920999 0.56920999 0.56920999
vt 0.0000000e+0 0.0000000e+0
vt 0.0000000e+0 0.33186850
vt 0.0000000e+0 0.50000000
vt 0.0000000e+0 0.83186847
vt 0.33186850 0.0000000e+0
vt 0.33186850 0.33186850
vt 0.33186850 0.50000000
vt 0.33186850 0.83186847
vt 0.33333334 0.0000000e+0
vt 0.33333334 0.33186850
vt 0.33333334 0.50000000
vt 0.33333334 0.83186847
vt 0.66520184 0.0000000e+0
vt 0.66520184 0.33186850
vt 0.66520184 0.50000000
vt 0.66520184 0.83186847
vt 0.66666669 0.0000000e+0
vt 0.66666669 0.33186850
vt 0.66666669 0.50000000
vt 0.66666669 0.83186847
vt 0.99853516 0.0000000e+0
vt 0.99853516 0.33186850
vt 0.99853516 0.50000000
vt 0.99853516 0.83186847
vn 0.0000000e+0 -1.00000000 0.0000000e+0
vn 0.0000000e+0 -1.00000000 0.0000000e+0
vn 0.0000000e+0 -1.00000000 0.0000000e+0
vn 0.0000000e+0 -1.00000000 0.0000000e+0
vn 0.0000000e+0 1.00000000 0.0000000e+0
vn 0.0000000e+0 1.00000000 0.0000000e+0
vn 0.0000000e+0 1.00000000 0.0000000e+0
vn 0.0000000e+0 1.00000000 0.0000000e+0
vn 0.0000000e+0 0.0000000e+0 1.00000000
vn 0.0000000e+0 0.0000000e+0 1.00000000
vn 0.0000000e+0 0.0000000e+0 1.00000000
vn 0.0000000e+0 0.0000000e+0 1.00000000
vn 1.00000000 0.0000000e+0 0.0000000e+0
vn 1.00000000 0.0000000e+0 0.0000000e+0
vn 1.00000000 0.0000000e+0 0.0000000e+0
vn 1.00000000 0.0000000e+0 0.0000000e+0
vn 0.0000000e+0 0.0000000e+0 -1.00000000
vn 0.0000000e+0 0.0000000e+0 -1.00000000
vn 0.0000000e+0 0.0000000e+0 -1.00000000
vn 0.0000000e+0 0.0000000e+0 -1.00000000
vn -1.00000000 0.0000000e+0 0.0000000e+0
vn -1.00000000 0.0000000e+0 0.0000000e+0
vn -1.00000000 0.0000000e+0 0.0000000e+0
vn -1.00000000 0.0000000e+0 0.0000000e+0
g Default_material1
usemtl material1
f 1/21/1 4/18/4 3/22/3
f 2/17/2 4/18/4 1/21/1
f 5/13/5 8/10/8 6/9/6
f 7/14/7 8/10/8 5/13/5
f 9/23/9 12/20/12 10/19/10
f 11/24/11 12/20/12 9/23/9
f 13/15/13 16/12/16 14/11/14
f 15/16/15 16/12/16 13/15/13
f 17/3/17 20/8/20 18/4/18
f 19/7/19 20/8/20 17/3/17
f 21/1/21 24/6/24 22/2/22
f 23/5/23 24/6/24 21/1/21
