  0
SECTION
  2
HEADER
  9
$ACADVER
  1
AC1009
  9
$EXTMIN
 10
0.0
 20
0.0
 30
0.0
  9
$EXTMAX
 10
100.0
 20
100.0
 30
0.0
  9
$INSBASE
 10
0.0
 20
0.0
 30
0.0
  0
ENDSEC
  0
SECTION
  2
TABLES
  0
TABLE
  2
LTYPE
 70
19
  0
LTYPE
  2
PHANTOM
 70
0
  3
Phantom ______  __  __  ______  __  __  ______
 72
65
 73
6
 40
2.5
 49
1.25
 49
-0.25
 49
0.25
 49
-0.25
 49
0.25
 49
-0.25
  0
LTYPE
  2
DOT2
 70
0
  3
Dot (.5) . . . . . . . . . . . . . . . . . . . 
 72
65
 73
2
 40
0.1
 49
0.0
 49
-0.1
  0
LTYPE
  2
DIVIDE
 70
0
  3
Divide __ . . __ . . __ . . __ . . __ . . __
 72
65
 73
6
 40
1.6
 49
1.0
 49
-0.2
 49
0.0
 49
-0.2
 49
0.0
 49
-0.2
  0
LTYPE
  2
DIVIDEX2
 70
0
  3
Divide (2x) ____  . .  ____  . .  ____  . .  ____
 72
65
 73
6
 40
2.6
 49
2.0
 49
-0.2
 49
0.0
 49
-0.2
 49
0.0
 49
-0.2
  0
LTYPE
  2
CENTER
 70
0
  3
Center ____ _ ____ _ ____ _ ____ _ ____ _ ____
 72
65
 73
4
 40
2.0
 49
1.25
 49
-0.25
 49
0.25
 49
-0.25
  0
LTYPE
  2
DASHDOT
 70
0
  3
Dash dot __ . __ . __ . __ . __ . __ . __ . __
 72
65
 73
4
 40
1.4
 49
1.0
 49
-0.2
 49
0.0
 49
-0.2
  0
LTYPE
  2
CENTERX2
 70
0
  3
Center (2x) ________  __  ________  __  ________
 72
65
 73
4
 40
3.5
 49
2.5
 49
-0.25
 49
0.5
 49
-0.25
  0
LTYPE
  2
PHANTOMX2
 70
0
  3
Phantom (2x)____________    ____    ____    ____________
 72
65
 73
6
 40
4.25
 49
2.5
 49
-0.25
 49
0.5
 49
-0.25
 49
0.5
 49
-0.25
  0
LTYPE
  2
CONTINUOUS
 70
0
  3
Solid
 72
65
 73
0
 40
0.0
  0
LTYPE
  2
PHANTOM2
 70
0
  3
Phantom (.5x) ___ _ _ ___ _ _ ___ _ _ ___ _ _ ___
 72
65
 73
6
 40
1.25
 49
0.625
 49
-0.125
 49
0.125
 49
-0.125
 49
0.125
 49
-0.125
  0
LTYPE
  2
DASHED
 70
0
  3
Dashed __ __ __ __ __ __ __ __ __ __ __ __ __ _
 72
65
 73
2
 40
0.6
 49
0.5
 49
-0.1
  0
LTYPE
  2
DASHED2
 70
0
  3
Dashed (.5x) _ _ _ _ _ _ _ _ _ _ _ _ _ _
 72
65
 73
2
 40
0.3
 49
0.25
 49
-0.05
  0
LTYPE
  2
DASHDOT2
 70
0
  3
Dash dot (.5x) _ . _ . _ . _ . _ . _ . _ . _
 72
65
 73
4
 40
0.7
 49
0.5
 49
-0.1
 49
0.0
 49
-0.1
  0
LTYPE
  2
DOTX2
 70
0
  3
Dot (2x) .    .    .    .    .    .    .    . 
 72
65
 73
2
 40
0.4
 49
0.0
 49
-0.4
  0
LTYPE
  2
DIVIDE2
 70
0
  3
Divide(.5x) _ . _ . _ . _ . _ . _ . _ . _
 72
65
 73
6
 40
0.8
 49
0.5
 49
-0.1
 49
0.0
 49
-0.1
 49
0.0
 49
-0.1
  0
LTYPE
  2
CENTER2
 70
0
  3
Center (.5x) ____ _ ____ _ ____ _ ____ _ ____
 72
65
 73
4
 40
1.0
 49
0.625
 49
-0.125
 49
0.125
 49
-0.125
  0
LTYPE
  2
DASHDOTX2
 70
0
  3
Dash dot (2x) ____  .  ____  .  ____  .  ____
 72
65
 73
4
 40
2.4
 49
2.0
 49
-0.2
 49
0.0
 49
-0.2
  0
LTYPE
  2
DOT
 70
0
  3
Dot .  .  .  .  .  .  .  .  .  .  .  .  .  .  .  .
 72
65
 73
2
 40
0.2
 49
0.0
 49
-0.2
  0
LTYPE
  2
DASHEDX2
 70
0
  3
Dashed (2x) ____  ____  ____  ____  ____  ____
 72
65
 73
2
 40
1.2
 49
1.0
 49
-0.2
  0
ENDTAB
  0
TABLE
  2
LAYER
 70
5
  0
LAYER
  2
VIEWPORTS
 70
0
 62
7
  6
CONTINUOUS
  0
LAYER
  2
TABLEGRID
 70
0
 62
1
  6
CONTINUOUS
  0
LAYER
  2
TABLECONTENT
 70
0
 62
1
  6
CONTINUOUS
  0
LAYER
  2
DIMENSIONS
 70
0
 62
1
  6
CONTINUOUS
  0
LAYER
  2
TABLEBACKGROUND
 70
0
 62
1
  6
CONTINUOUS
  0
ENDTAB
  0
TABLE
  2
STYLE
 70
12
  0
STYLE
  2
TIMES
 70
0
 40
0.0
 41
1.0
 42
1.0
 50
0.0
 71
0
  3
times.ttf
  4

  0
STYLE
  2
ARIAL
 70
0
 40
0.0
 41
1.0
 42
1.0
 50
0.0
 71
0
  3
arial.ttf
  4

  0
STYLE
  2
TIMES_BOLD
 70
0
 40
0.0
 41
1.0
 42
1.0
 50
0.0
 71
0
  3
timesbd.ttf
  4

  0
STYLE
  2
ARIAL_BLACK
 70
0
 40
0.0
 41
1.0
 42
1.0
 50
0.0
 71
0
  3
ariblk.ttf
  4

  0
STYLE
  2
TIMES_ITALIC
 70
0
 40
0.0
 41
1.0
 42
1.0
 50
0.0
 71
0
  3
timesi.ttf
  4

  0
STYLE
  2
ISOCPEUR
 70
0
 40
0.0
 41
1.0
 42
1.0
 50
0.0
 71
0
  3
isocpeur.ttf
  4

  0
STYLE
  2
ARIAL_BOLD
 70
0
 40
0.0
 41
1.0
 42
1.0
 50
0.0
 71
0
  3
arialbd.ttf
  4

  0
STYLE
  2
ARIAL_ITALIC
 70
0
 40
0.0
 41
1.0
 42
1.0
 50
0.0
 71
0
  3
ariali.ttf
  4

  0
STYLE
  2
ARIAL_BOLD_ITALIC
 70
0
 40
0.0
 41
1.0
 42
1.0
 50
0.0
 71
0
  3
arialbi.ttf
  4

  0
STYLE
  2
TIMES_BOLD_ITALIC
 70
0
 40
0.0
 41
1.0
 42
1.0
 50
0.0
 71
0
  3
timesbi.ttf
  4

  0
STYLE
  2
ISOCPEUR_ITALIC
 70
0
 40
0.0
 41
1.0
 42
1.0
 50
0.0
 71
0
  3
isocpeui.ttf
  4

  0
STYLE
  2
STANDARD
 70
0
 40
0.0
 41
1.0
 42
1.0
 50
0.0
 71
0
  3
arial.ttf
  4

  0
ENDTAB
  0
TABLE
  2
VIEW
 70
0
  0
ENDTAB
  0
TABLE
  2
APPID
 70
1
  0
APPID
  2
DXFWRITE
 70
0
  0
ENDTAB
  0
TABLE
  2
VPORT
 70
0
  0
ENDTAB
  0
TABLE
  2
UCS
 70
0
  0
ENDTAB
  0
ENDSEC
  0
SECTION
  2
BLOCKS
  0
ENDSEC
  0
SECTION
  2
ENTITIES
  0
VIEWPORT
  8
VIEWPORTS
 67
1
 10
0.0
 20
0.0
 30
0.0
 40
1.0
 41
1.0
 68
1
 69
1
1001
ACAD
1000
MVIEW
1002
{
1070
16
1010
0.0
1020
0.0
1030
0.0
1010
0.0
1020
0.0
1030
0.0
1040
0.0
1040
1.0
1040
0.0
1040
0.0
1040
50.0
1040
0.0
1040
0.0
1070
0
1070
100
1070
1
1070
3
1070
0
1070
0
1070
0
1070
0
1040
0.0
1040
0.0
1040
0.0
1040
0.1
1040
0.1
1040
0.1
1040
0.1
1070
0
1002
{
1002
}
1002
}
  0
POLYLINE
 62
256
  8
0
 66
1
 10
0.0
 20
0.0
 30
0.0
 70
9
  0
VERTEX
  8
0
 10
5.0
 20
0.0
 30
0.0
  0
VERTEX
  8
0
 10
4.99753280183
 20
0.0157053795391
 30
0.0
  0
VERTEX
  8
0
 10
4.99013364214
 20
0.0313952597647
 30
0.0
  0
VERTEX
  8
0
 10
4.97780982302
 20
0.0470541566593
 30
0.0
  0
VERTEX
  8
0
 10
4.96057350657
 20
0.0626666167822
 30
0.0
  0
VERTEX
  8
0
 10
4.93844170298
 20
0.0782172325201
 30
0.0
  0
VERTEX
  8
0
 10
4.91143625364
 20
0.0936906572929
 30
0.0
  0
VERTEX
  8
0
 10
4.87958380969
 20
0.109071620698
 30
0.0
  0
VERTEX
  8
0
 10
4.84291580564
 20
0.124344943582
 30
0.0
  0
VERTEX
  8
0
 10
4.80146842838
 20
0.13949555302
 30
0.0
  0
VERTEX
  8
0
 10
4.75528258148
 20
0.154508497187
 30
0.0
  0
VERTEX
  8
0
 10
4.70440384477
 20
0.169368960123
 30
0.0
  0
VERTEX
  8
0
 10
4.64888242944
 20
0.184062276342
 30
0.0
  0
VERTEX
  8
0
 10
4.58877312842
 20
0.198573945317
 30
0.0
  0
VERTEX
  8
0
 10
4.52413526233
 20
0.212889645783
 30
0.0
  0
VERTEX
  8
0
 10
4.45503262094
 20
0.22699524987
 30
0.0
  0
VERTEX
  8
0
 10
4.38153340022
 20
0.240876837051
 30
0.0
  0
VERTEX
  8
0
 10
4.30371013502
 20
0.254520707875
 30
0.0
  0
VERTEX
  8
0
 10
4.22163962751
 20
0.267913397489
 30
0.0
  0
VERTEX
  8
0
 10
4.13540287137
 20
0.281041688926
 30
0.0
  0
VERTEX
  8
0
 10
4.04508497187
 20
0.293892626146
 30
0.0
  0
VERTEX
  8
0
 10
3.95077506188
 20
0.306453526826
 30
0.0
  0
VERTEX
  8
0
 10
3.85256621388
 20
0.318711994874
 30
0.0
  0
VERTEX
  8
0
 10
3.75055534815
 20
0.330655932662
 30
0.0
  0
VERTEX
  8
0
 10
3.64484313711
 20
0.342273552964
 30
0.0
  0
VERTEX
  8
0
 10
3.53553390593
 20
0.353553390593
 30
0.0
  0
VERTEX
  8
0
 10
3.42273552964
 20
0.364484313711
 30
0.0
  0
VERTEX
  8
0
 10
3.30655932662
 20
0.375055534815
 30
0.0
  0
VERTEX
  8
0
 10
3.18711994874
 20
0.385256621388
 30
0.0
  0
VERTEX
  8
0
 10
3.06453526826
 20
0.395077506188
 30
0.0
  0
VERTEX
  8
0
 10
2.93892626146
 20
0.404508497187
 30
0.0
  0
VERTEX
  8
0
 10
2.81041688926
 20
0.413540287137
 30
0.0
  0
VERTEX
  8
0
 10
2.67913397489
 20
0.422163962751
 30
0.0
  0
VERTEX
  8
0
 10
2.54520707875
 20
0.430371013502
 30
0.0
  0
VERTEX
  8
0
 10
2.40876837051
 20
0.438153340022
 30
0.0
  0
VERTEX
  8
0
 10
2.2699524987
 20
0.445503262094
 30
0.0
  0
VERTEX
  8
0
 10
2.12889645783
 20
0.452413526233
 30
0.0
  0
VERTEX
  8
0
 10
1.98573945317
 20
0.458877312842
 30
0.0
  0
VERTEX
  8
0
 10
1.84062276342
 20
0.464888242944
 30
0.0
  0
VERTEX
  8
0
 10
1.69368960123
 20
0.470440384477
 30
0.0
  0
VERTEX
  8
0
 10
1.54508497187
 20
0.475528258148
 30
0.0
  0
VERTEX
  8
0
 10
1.3949555302
 20
0.480146842838
 30
0.0
  0
VERTEX
  8
0
 10
1.24344943582
 20
0.484291580564
 30
0.0
  0
VERTEX
  8
0
 10
1.09071620698
 20
0.487958380969
 30
0.0
  0
VERTEX
  8
0
 10
0.936906572929
 20
0.491143625364
 30
0.0
  0
VERTEX
  8
0
 10
0.782172325201
 20
0.493844170298
 30
0.0
  0
VERTEX
  8
0
 10
0.626666167822
 20
0.496057350657
 30
0.0
  0
VERTEX
  8
0
 10
0.470541566593
 20
0.497780982302
 30
0.0
  0
VERTEX
  8
0
 10
0.313952597647
 20
0.499013364214
 30
0.0
  0
VERTEX
  8
0
 10
0.157053795391
 20
0.499753280183
 30
0.0
  0
VERTEX
  8
0
 10
3.06161699787e-16
 20
0.5
 30
0.0
  0
VERTEX
  8
0
 10
-0.157053795391
 20
0.499753280183
 30
0.0
  0
VERTEX
  8
0
 10
-0.313952597647
 20
0.499013364214
 30
0.0
  0
VERTEX
  8
0
 10
-0.470541566593
 20
0.497780982302
 30
0.0
  0
VERTEX
  8
0
 10
-0.626666167822
 20
0.496057350657
 30
0.0
  0
VERTEX
  8
0
 10
-0.782172325201
 20
0.493844170298
 30
0.0
  0
VERTEX
  8
0
 10
-0.936906572929
 20
0.491143625364
 30
0.0
  0
VERTEX
  8
0
 10
-1.09071620698
 20
0.487958380969
 30
0.0
  0
VERTEX
  8
0
 10
-1.24344943582
 20
0.484291580564
 30
0.0
  0
VERTEX
  8
0
 10
-1.3949555302
 20
0.480146842838
 30
0.0
  0
VERTEX
  8
0
 10
-1.54508497187
 20
0.475528258148
 30
0.0
  0
VERTEX
  8
0
 10
-1.69368960123
 20
0.470440384477
 30
0.0
  0
VERTEX
  8
0
 10
-1.84062276342
 20
0.464888242944
 30
0.0
  0
VERTEX
  8
0
 10
-1.98573945317
 20
0.458877312842
 30
0.0
  0
VERTEX
  8
0
 10
-2.12889645783
 20
0.452413526233
 30
0.0
  0
VERTEX
  8
0
 10
-2.2699524987
 20
0.445503262094
 30
0.0
  0
VERTEX
  8
0
 10
-2.40876837051
 20
0.438153340022
 30
0.0
  0
VERTEX
  8
0
 10
-2.54520707875
 20
0.430371013502
 30
0.0
  0
VERTEX
  8
0
 10
-2.67913397489
 20
0.422163962751
 30
0.0
  0
VERTEX
  8
0
 10
-2.81041688926
 20
0.413540287137
 30
0.0
  0
VERTEX
  8
0
 10
-2.93892626146
 20
0.404508497187
 30
0.0
  0
VERTEX
  8
0
 10
-3.06453526826
 20
0.395077506188
 30
0.0
  0
VERTEX
  8
0
 10
-3.18711994874
 20
0.385256621388
 30
0.0
  0
VERTEX
  8
0
 10
-3.30655932662
 20
0.375055534815
 30
0.0
  0
VERTEX
  8
0
 10
-3.42273552964
 20
0.364484313711
 30
0.0
  0
VERTEX
  8
0
 10
-3.53553390593
 20
0.353553390593
 30
0.0
  0
VERTEX
  8
0
 10
-3.64484313711
 20
0.342273552964
 30
0.0
  0
VERTEX
  8
0
 10
-3.75055534815
 20
0.330655932662
 30
0.0
  0
VERTEX
  8
0
 10
-3.85256621388
 20
0.318711994874
 30
0.0
  0
VERTEX
  8
0
 10
-3.95077506188
 20
0.306453526826
 30
0.0
  0
VERTEX
  8
0
 10
-4.04508497187
 20
0.293892626146
 30
0.0
  0
VERTEX
  8
0
 10
-4.13540287137
 20
0.281041688926
 30
0.0
  0
VERTEX
  8
0
 10
-4.22163962751
 20
0.267913397489
 30
0.0
  0
VERTEX
  8
0
 10
-4.30371013502
 20
0.254520707875
 30
0.0
  0
VERTEX
  8
0
 10
-4.38153340022
 20
0.240876837051
 30
0.0
  0
VERTEX
  8
0
 10
-4.45503262094
 20
0.22699524987
 30
0.0
  0
VERTEX
  8
0
 10
-4.52413526233
 20
0.212889645783
 30
0.0
  0
VERTEX
  8
0
 10
-4.58877312842
 20
0.198573945317
 30
0.0
  0
VERTEX
  8
0
 10
-4.64888242944
 20
0.184062276342
 30
0.0
  0
VERTEX
  8
0
 10
-4.70440384477
 20
0.169368960123
 30
0.0
  0
VERTEX
  8
0
 10
-4.75528258148
 20
0.154508497187
 30
0.0
  0
VERTEX
  8
0
 10
-4.80146842838
 20
0.13949555302
 30
0.0
  0
VERTEX
  8
0
 10
-4.84291580564
 20
0.124344943582
 30
0.0
  0
VERTEX
  8
0
 10
-4.87958380969
 20
0.109071620698
 30
0.0
  0
VERTEX
  8
0
 10
-4.91143625364
 20
0.0936906572929
 30
0.0
  0
VERTEX
  8
0
 10
-4.93844170298
 20
0.0782172325201
 30
0.0
  0
VERTEX
  8
0
 10
-4.96057350657
 20
0.0626666167822
 30
0.0
  0
VERTEX
  8
0
 10
-4.97780982302
 20
0.0470541566593
 30
0.0
  0
VERTEX
  8
0
 10
-4.99013364214
 20
0.0313952597647
 30
0.0
  0
VERTEX
  8
0
 10
-4.99753280183
 20
0.0157053795391
 30
0.0
  0
VERTEX
  8
0
 10
-5.0
 20
6.12323399574e-17
 30
0.0
  0
VERTEX
  8
0
 10
-4.99753280183
 20
-0.0157053795391
 30
0.0
  0
VERTEX
  8
0
 10
-4.99013364214
 20
-0.0313952597647
 30
0.0
  0
VERTEX
  8
0
 10
-4.97780982302
 20
-0.0470541566593
 30
0.0
  0
VERTEX
  8
0
 10
-4.96057350657
 20
-0.0626666167822
 30
0.0
  0
VERTEX
  8
0
 10
-4.93844170298
 20
-0.0782172325201
 30
0.0
  0
VERTEX
  8
0
 10
-4.91143625364
 20
-0.0936906572929
 30
0.0
  0
VERTEX
  8
0
 10
-4.87958380969
 20
-0.109071620698
 30
0.0
  0
VERTEX
  8
0
 10
-4.84291580564
 20
-0.124344943582
 30
0.0
  0
VERTEX
  8
0
 10
-4.80146842838
 20
-0.13949555302
 30
0.0
  0
VERTEX
  8
0
 10
-4.75528258148
 20
-0.154508497187
 30
0.0
  0
VERTEX
  8
0
 10
-4.70440384477
 20
-0.169368960123
 30
0.0
  0
VERTEX
  8
0
 10
-4.64888242944
 20
-0.184062276342
 30
0.0
  0
VERTEX
  8
0
 10
-4.58877312842
 20
-0.198573945317
 30
0.0
  0
VERTEX
  8
0
 10
-4.52413526233
 20
-0.212889645783
 30
0.0
  0
VERTEX
  8
0
 10
-4.45503262094
 20
-0.22699524987
 30
0.0
  0
VERTEX
  8
0
 10
-4.38153340022
 20
-0.240876837051
 30
0.0
  0
VERTEX
  8
0
 10
-4.30371013502
 20
-0.254520707875
 30
0.0
  0
VERTEX
  8
0
 10
-4.22163962751
 20
-0.267913397489
 30
0.0
  0
VERTEX
  8
0
 10
-4.13540287137
 20
-0.281041688926
 30
0.0
  0
VERTEX
  8
0
 10
-4.04508497187
 20
-0.293892626146
 30
0.0
  0
VERTEX
  8
0
 10
-3.95077506188
 20
-0.306453526826
 30
0.0
  0
VERTEX
  8
0
 10
-3.85256621388
 20
-0.318711994874
 30
0.0
  0
VERTEX
  8
0
 10
-3.75055534815
 20
-0.330655932662
 30
0.0
  0
VERTEX
  8
0
 10
-3.64484313711
 20
-0.342273552964
 30
0.0
  0
VERTEX
  8
0
 10
-3.53553390593
 20
-0.353553390593
 30
0.0
  0
VERTEX
  8
0
 10
-3.42273552964
 20
-0.364484313711
 30
0.0
  0
VERTEX
  8
0
 10
-3.30655932662
 20
-0.375055534815
 30
0.0
  0
VERTEX
  8
0
 10
-3.18711994874
 20
-0.385256621388
 30
0.0
  0
VERTEX
  8
0
 10
-3.06453526826
 20
-0.395077506188
 30
0.0
  0
VERTEX
  8
0
 10
-2.93892626146
 20
-0.404508497187
 30
0.0
  0
VERTEX
  8
0
 10
-2.81041688926
 20
-0.413540287137
 30
0.0
  0
VERTEX
  8
0
 10
-2.67913397489
 20
-0.422163962751
 30
0.0
  0
VERTEX
  8
0
 10
-2.54520707875
 20
-0.430371013502
 30
0.0
  0
VERTEX
  8
0
 10
-2.40876837051
 20
-0.438153340022
 30
0.0
  0
VERTEX
  8
0
 10
-2.2699524987
 20
-0.445503262094
 30
0.0
  0
VERTEX
  8
0
 10
-2.12889645783
 20
-0.452413526233
 30
0.0
  0
VERTEX
  8
0
 10
-1.98573945317
 20
-0.458877312842
 30
0.0
  0
VERTEX
  8
0
 10
-1.84062276342
 20
-0.464888242944
 30
0.0
  0
VERTEX
  8
0
 10
-1.69368960123
 20
-0.470440384477
 30
0.0
  0
VERTEX
  8
0
 10
-1.54508497187
 20
-0.475528258148
 30
0.0
  0
VERTEX
  8
0
 10
-1.3949555302
 20
-0.480146842838
 30
0.0
  0
VERTEX
  8
0
 10
-1.24344943582
 20
-0.484291580564
 30
0.0
  0
VERTEX
  8
0
 10
-1.09071620698
 20
-0.487958380969
 30
0.0
  0
VERTEX
  8
0
 10
-0.936906572929
 20
-0.491143625364
 30
0.0
  0
VERTEX
  8
0
 10
-0.782172325201
 20
-0.493844170298
 30
0.0
  0
VERTEX
  8
0
 10
-0.626666167822
 20
-0.496057350657
 30
0.0
  0
VERTEX
  8
0
 10
-0.470541566593
 20
-0.497780982302
 30
0.0
  0
VERTEX
  8
0
 10
-0.313952597647
 20
-0.499013364214
 30
0.0
  0
VERTEX
  8
0
 10
-0.157053795391
 20
-0.499753280183
 30
0.0
  0
VERTEX
  8
0
 10
-9.18485099361e-16
 20
-0.5
 30
0.0
  0
VERTEX
  8
0
 10
0.157053795391
 20
-0.499753280183
 30
0.0
  0
VERTEX
  8
0
 10
0.313952597647
 20
-0.499013364214
 30
0.0
  0
VERTEX
  8
0
 10
0.470541566593
 20
-0.497780982302
 30
0.0
  0
VERTEX
  8
0
 10
0.626666167822
 20
-0.496057350657
 30
0.0
  0
VERTEX
  8
0
 10
0.782172325201
 20
-0.493844170298
 30
0.0
  0
VERTEX
  8
0
 10
0.936906572929
 20
-0.491143625364
 30
0.0
  0
VERTEX
  8
0
 10
1.09071620698
 20
-0.487958380969
 30
0.0
  0
VERTEX
  8
0
 10
1.24344943582
 20
-0.484291580564
 30
0.0
  0
VERTEX
  8
0
 10
1.3949555302
 20
-0.480146842838
 30
0.0
  0
VERTEX
  8
0
 10
1.54508497187
 20
-0.475528258148
 30
0.0
  0
VERTEX
  8
0
 10
1.69368960123
 20
-0.470440384477
 30
0.0
  0
VERTEX
  8
0
 10
1.84062276342
 20
-0.464888242944
 30
0.0
  0
VERTEX
  8
0
 10
1.98573945317
 20
-0.458877312842
 30
0.0
  0
VERTEX
  8
0
 10
2.12889645783
 20
-0.452413526233
 30
0.0
  0
VERTEX
  8
0
 10
2.2699524987
 20
-0.445503262094
 30
0.0
  0
VERTEX
  8
0
 10
2.40876837051
 20
-0.438153340022
 30
0.0
  0
VERTEX
  8
0
 10
2.54520707875
 20
-0.430371013502
 30
0.0
  0
VERTEX
  8
0
 10
2.67913397489
 20
-0.422163962751
 30
0.0
  0
VERTEX
  8
0
 10
2.81041688926
 20
-0.413540287137
 30
0.0
  0
VERTEX
  8
0
 10
2.93892626146
 20
-0.404508497187
 30
0.0
  0
VERTEX
  8
0
 10
3.06453526826
 20
-0.395077506188
 30
0.0
  0
VERTEX
  8
0
 10
3.18711994874
 20
-0.385256621388
 30
0.0
  0
VERTEX
  8
0
 10
3.30655932662
 20
-0.375055534815
 30
0.0
  0
VERTEX
  8
0
 10
3.42273552964
 20
-0.364484313711
 30
0.0
  0
VERTEX
  8
0
 10
3.53553390593
 20
-0.353553390593
 30
0.0
  0
VERTEX
  8
0
 10
3.64484313711
 20
-0.342273552964
 30
0.0
  0
VERTEX
  8
0
 10
3.75055534815
 20
-0.330655932662
 30
0.0
  0
VERTEX
  8
0
 10
3.85256621388
 20
-0.318711994874
 30
0.0
  0
VERTEX
  8
0
 10
3.95077506188
 20
-0.306453526826
 30
0.0
  0
VERTEX
  8
0
 10
4.04508497187
 20
-0.293892626146
 30
0.0
  0
VERTEX
  8
0
 10
4.13540287137
 20
-0.281041688926
 30
0.0
  0
VERTEX
  8
0
 10
4.22163962751
 20
-0.267913397489
 30
0.0
  0
VERTEX
  8
0
 10
4.30371013502
 20
-0.254520707875
 30
0.0
  0
VERTEX
  8
0
 10
4.38153340022
 20
-0.240876837051
 30
0.0
  0
VERTEX
  8
0
 10
4.45503262094
 20
-0.22699524987
 30
0.0
  0
VERTEX
  8
0
 10
4.52413526233
 20
-0.212889645783
 30
0.0
  0
VERTEX
  8
0
 10
4.58877312842
 20
-0.198573945317
 30
0.0
  0
VERTEX
  8
0
 10
4.64888242944
 20
-0.184062276342
 30
0.0
  0
VERTEX
  8
0
 10
4.70440384477
 20
-0.169368960123
 30
0.0
  0
VERTEX
  8
0
 10
4.75528258148
 20
-0.154508497187
 30
0.0
  0
VERTEX
  8
0
 10
4.80146842838
 20
-0.13949555302
 30
0.0
  0
VERTEX
  8
0
 10
4.84291580564
 20
-0.124344943582
 30
0.0
  0
VERTEX
  8
0
 10
4.87958380969
 20
-0.109071620698
 30
0.0
  0
VERTEX
  8
0
 10
4.91143625364
 20
-0.0936906572929
 30
0.0
  0
VERTEX
  8
0
 10
4.93844170298
 20
-0.0782172325201
 30
0.0
  0
VERTEX
  8
0
 10
4.96057350657
 20
-0.0626666167822
 30
0.0
  0
VERTEX
  8
0
 10
4.97780982302
 20
-0.0470541566593
 30
0.0
  0
VERTEX
  8
0
 10
4.99013364214
 20
-0.0313952597647
 30
0.0
  0
VERTEX
  8
0
 10
4.99753280183
 20
-0.0157053795391
 30
0.0
  0
SEQEND
  0
POLYLINE
 62
256
  8
0
 66
1
 10
0.0
 20
0.0
 30
0.0
 70
9
  0
VERTEX
  8
0
 10
5.0
 20
0.0
 30
0.0
  0
VERTEX
  8
0
 10
4.99753280183
 20
0.0235580693086
 30
0.0
  0
VERTEX
  8
0
 10
4.99013364214
 20
0.047092889647
 30
0.0
  0
VERTEX
  8
0
 10
4.97780982302
 20
0.0705812349889
 30
0.0
  0
VERTEX
  8
0
 10
4.96057350657
 20
0.0939999251732
 30
0.0
  0
VERTEX
  8
0
 10
4.93844170298
 20
0.11732584878
 30
0.0
  0
VERTEX
  8
0
 10
4.91143625364
 20
0.140535985939
 30
0.0
  0
VERTEX
  8
0
 10
4.87958380969
 20
0.163607431047
 30
0.0
  0
VERTEX
  8
0
 10
4.84291580564
 20
0.186517415374
 30
0.0
  0
VERTEX
  8
0
 10
4.80146842838
 20
0.209243329529
 30
0.0
  0
VERTEX
  8
0
 10
4.75528258148
 20
0.231762745781
 30
0.0
  0
VERTEX
  8
0
 10
4.70440384477
 20
0.254053440184
 30
0.0
  0
VERTEX
  8
0
 10
4.64888242944
 20
0.276093414514
 30
0.0
  0
VERTEX
  8
0
 10
4.58877312842
 20
0.297860917976
 30
0.0
  0
VERTEX
  8
0
 10
4.52413526233
 20
0.319334468674
 30
0.0
  0
VERTEX
  8
0
 10
4.45503262094
 20
0.340492874805
 30
0.0
  0
VERTEX
  8
0
 10
4.38153340022
 20
0.361315255576
 30
0.0
  0
VERTEX
  8
0
 10
4.30371013502
 20
0.381781061813
 30
0.0
  0
VERTEX
  8
0
 10
4.22163962751
 20
0.401870096234
 30
0.0
  0
VERTEX
  8
0
 10
4.13540287137
 20
0.421562533389
 30
0.0
  0
VERTEX
  8
0
 10
4.04508497187
 20
0.440838939219
 30
0.0
  0
VERTEX
  8
0
 10
3.95077506188
 20
0.45968029024
 30
0.0
  0
VERTEX
  8
0
 10
3.85256621388
 20
0.478067992312
 30
0.0
  0
VERTEX
  8
0
 10
3.75055534815
 20
0.495983898993
 30
0.0
  0
VERTEX
  8
0
 10
3.64484313711
 20
0.513410329447
 30
0.0
  0
VERTEX
  8
0
 10
3.53553390593
 20
0.53033008589
 30
0.0
  0
VERTEX
  8
0
 10
3.42273552964
 20
0.546726470566
 30
0.0
  0
VERTEX
  8
0
 10
3.30655932662
 20
0.562583302223
 30
0.0
  0
VERTEX
  8
0
 10
3.18711994874
 20
0.577884932082
 30
0.0
  0
VERTEX
  8
0
 10
3.06453526826
 20
0.592616259282
 30
0.0
  0
VERTEX
  8
0
 10
2.93892626146
 20
0.606762745781
 30
0.0
  0
VERTEX
  8
0
 10
2.81041688926
 20
0.620310430706
 30
0.0
  0
VERTEX
  8
0
 10
2.67913397489
 20
0.633245944127
 30
0.0
  0
VERTEX
  8
0
 10
2.54520707875
 20
0.645556520253
 30
0.0
  0
VERTEX
  8
0
 10
2.40876837051
 20
0.657230010033
 30
0.0
  0
VERTEX
  8
0
 10
2.2699524987
 20
0.668254893141
 30
0.0
  0
VERTEX
  8
0
 10
2.12889645783
 20
0.67862028935
 30
0.0
  0
VERTEX
  8
0
 10
1.98573945317
 20
0.688315969263
 30
0.0
  0
VERTEX
  8
0
 10
1.84062276342
 20
0.697332364416
 30
0.0
  0
VERTEX
  8
0
 10
1.69368960123
 20
0.705660576716
 30
0.0
  0
VERTEX
  8
0
 10
1.54508497187
 20
0.713292387221
 30
0.0
  0
VERTEX
  8
0
 10
1.3949555302
 20
0.720220264258
 30
0.0
  0
VERTEX
  8
0
 10
1.24344943582
 20
0.726437370846
 30
0.0
  0
VERTEX
  8
0
 10
1.09071620698
 20
0.731937571454
 30
0.0
  0
VERTEX
  8
0
 10
0.936906572929
 20
0.736715438047
 30
0.0
  0
VERTEX
  8
0
 10
0.782172325201
 20
0.740766255446
 30
0.0
  0
VERTEX
  8
0
 10
0.626666167822
 20
0.744086025986
 30
0.0
  0
VERTEX
  8
0
 10
0.470541566593
 20
0.746671473452
 30
0.0
  0
VERTEX
  8
0
 10
0.313952597647
 20
0.748520046321
 30
0.0
  0
VERTEX
  8
0
 10
0.157053795391
 20
0.749629920274
 30
0.0
  0
VERTEX
  8
0
 10
3.06161699787e-16
 20
0.75
 30
0.0
  0
VERTEX
  8
0
 10
-0.157053795391
 20
0.749629920274
 30
0.0
  0
VERTEX
  8
0
 10
-0.313952597647
 20
0.748520046321
 30
0.0
  0
VERTEX
  8
0
 10
-0.470541566593
 20
0.746671473452
 30
0.0
  0
VERTEX
  8
0
 10
-0.626666167822
 20
0.744086025986
 30
0.0
  0
VERTEX
  8
0
 10
-0.782172325201
 20
0.740766255446
 30
0.0
  0
VERTEX
  8
0
 10
-0.936906572929
 20
0.736715438047
 30
0.0
  0
VERTEX
  8
0
 10
-1.09071620698
 20
0.731937571454
 30
0.0
  0
VERTEX
  8
0
 10
-1.24344943582
 20
0.726437370846
 30
0.0
  0
VERTEX
  8
0
 10
-1.3949555302
 20
0.720220264258
 30
0.0
  0
VERTEX
  8
0
 10
-1.54508497187
 20
0.713292387221
 30
0.0
  0
VERTEX
  8
0
 10
-1.69368960123
 20
0.705660576716
 30
0.0
  0
VERTEX
  8
0
 10
-1.84062276342
 20
0.697332364416
 30
0.0
  0
VERTEX
  8
0
 10
-1.98573945317
 20
0.688315969263
 30
0.0
  0
VERTEX
  8
0
 10
-2.12889645783
 20
0.67862028935
 30
0.0
  0
VERTEX
  8
0
 10
-2.2699524987
 20
0.668254893141
 30
0.0
  0
VERTEX
  8
0
 10
-2.40876837051
 20
0.657230010033
 30
0.0
  0
VERTEX
  8
0
 10
-2.54520707875
 20
0.645556520253
 30
0.0
  0
VERTEX
  8
0
 10
-2.67913397489
 20
0.633245944127
 30
0.0
  0
VERTEX
  8
0
 10
-2.81041688926
 20
0.620310430706
 30
0.0
  0
VERTEX
  8
0
 10
-2.93892626146
 20
0.606762745781
 30
0.0
  0
VERTEX
  8
0
 10
-3.06453526826
 20
0.592616259282
 30
0.0
  0
VERTEX
  8
0
 10
-3.18711994874
 20
0.577884932082
 30
0.0
  0
VERTEX
  8
0
 10
-3.30655932662
 20
0.562583302223
 30
0.0
  0
VERTEX
  8
0
 10
-3.42273552964
 20
0.546726470566
 30
0.0
  0
VERTEX
  8
0
 10
-3.53553390593
 20
0.53033008589
 30
0.0
  0
VERTEX
  8
0
 10
-3.64484313711
 20
0.513410329447
 30
0.0
  0
VERTEX
  8
0
 10
-3.75055534815
 20
0.495983898993
 30
0.0
  0
VERTEX
  8
0
 10
-3.85256621388
 20
0.478067992312
 30
0.0
  0
VERTEX
  8
0
 10
-3.95077506188
 20
0.45968029024
 30
0.0
  0
VERTEX
  8
0
 10
-4.04508497187
 20
0.440838939219
 30
0.0
  0
VERTEX
  8
0
 10
-4.13540287137
 20
0.421562533389
 30
0.0
  0
VERTEX
  8
0
 10
-4.22163962751
 20
0.401870096234
 30
0.0
  0
VERTEX
  8
0
 10
-4.30371013502
 20
0.381781061813
 30
0.0
  0
VERTEX
  8
0
 10
-4.38153340022
 20
0.361315255576
 30
0.0
  0
VERTEX
  8
0
 10
-4.45503262094
 20
0.340492874805
 30
0.0
  0
VERTEX
  8
0
 10
-4.52413526233
 20
0.319334468674
 30
0.0
  0
VERTEX
  8
0
 10
-4.58877312842
 20
0.297860917976
 30
0.0
  0
VERTEX
  8
0
 10
-4.64888242944
 20
0.276093414514
 30
0.0
  0
VERTEX
  8
0
 10
-4.70440384477
 20
0.254053440184
 30
0.0
  0
VERTEX
  8
0
 10
-4.75528258148
 20
0.231762745781
 30
0.0
  0
VERTEX
  8
0
 10
-4.80146842838
 20
0.209243329529
 30
0.0
  0
VERTEX
  8
0
 10
-4.84291580564
 20
0.186517415374
 30
0.0
  0
VERTEX
  8
0
 10
-4.87958380969
 20
0.163607431047
 30
0.0
  0
VERTEX
  8
0
 10
-4.91143625364
 20
0.140535985939
 30
0.0
  0
VERTEX
  8
0
 10
-4.93844170298
 20
0.11732584878
 30
0.0
  0
VERTEX
  8
0
 10
-4.96057350657
 20
0.0939999251732
 30
0.0
  0
VERTEX
  8
0
 10
-4.97780982302
 20
0.0705812349889
 30
0.0
  0
VERTEX
  8
0
 10
-4.99013364214
 20
0.047092889647
 30
0.0
  0
VERTEX
  8
0
 10
-4.99753280183
 20
0.0235580693086
 30
0.0
  0
VERTEX
  8
0
 10
-5.0
 20
9.18485099361e-17
 30
0.0
  0
VERTEX
  8
0
 10
-4.99753280183
 20
-0.0235580693086
 30
0.0
  0
VERTEX
  8
0
 10
-4.99013364214
 20
-0.047092889647
 30
0.0
  0
VERTEX
  8
0
 10
-4.97780982302
 20
-0.0705812349889
 30
0.0
  0
VERTEX
  8
0
 10
-4.96057350657
 20
-0.0939999251732
 30
0.0
  0
VERTEX
  8
0
 10
-4.93844170298
 20
-0.11732584878
 30
0.0
  0
VERTEX
  8
0
 10
-4.91143625364
 20
-0.140535985939
 30
0.0
  0
VERTEX
  8
0
 10
-4.87958380969
 20
-0.163607431047
 30
0.0
  0
VERTEX
  8
0
 10
-4.84291580564
 20
-0.186517415374
 30
0.0
  0
VERTEX
  8
0
 10
-4.80146842838
 20
-0.209243329529
 30
0.0
  0
VERTEX
  8
0
 10
-4.75528258148
 20
-0.231762745781
 30
0.0
  0
VERTEX
  8
0
 10
-4.70440384477
 20
-0.254053440184
 30
0.0
  0
VERTEX
  8
0
 10
-4.64888242944
 20
-0.276093414514
 30
0.0
  0
VERTEX
  8
0
 10
-4.58877312842
 20
-0.297860917976
 30
0.0
  0
VERTEX
  8
0
 10
-4.52413526233
 20
-0.319334468674
 30
0.0
  0
VERTEX
  8
0
 10
-4.45503262094
 20
-0.340492874805
 30
0.0
  0
VERTEX
  8
0
 10
-4.38153340022
 20
-0.361315255576
 30
0.0
  0
VERTEX
  8
0
 10
-4.30371013502
 20
-0.381781061813
 30
0.0
  0
VERTEX
  8
0
 10
-4.22163962751
 20
-0.401870096234
 30
0.0
  0
VERTEX
  8
0
 10
-4.13540287137
 20
-0.421562533389
 30
0.0
  0
VERTEX
  8
0
 10
-4.04508497187
 20
-0.440838939219
 30
0.0
  0
VERTEX
  8
0
 10
-3.95077506188
 20
-0.45968029024
 30
0.0
  0
VERTEX
  8
0
 10
-3.85256621388
 20
-0.478067992312
 30
0.0
  0
VERTEX
  8
0
 10
-3.75055534815
 20
-0.495983898993
 30
0.0
  0
VERTEX
  8
0
 10
-3.64484313711
 20
-0.513410329447
 30
0.0
  0
VERTEX
  8
0
 10
-3.53553390593
 20
-0.53033008589
 30
0.0
  0
VERTEX
  8
0
 10
-3.42273552964
 20
-0.546726470566
 30
0.0
  0
VERTEX
  8
0
 10
-3.30655932662
 20
-0.562583302223
 30
0.0
  0
VERTEX
  8
0
 10
-3.18711994874
 20
-0.577884932082
 30
0.0
  0
VERTEX
  8
0
 10
-3.06453526826
 20
-0.592616259282
 30
0.0
  0
VERTEX
  8
0
 10
-2.93892626146
 20
-0.606762745781
 30
0.0
  0
VERTEX
  8
0
 10
-2.81041688926
 20
-0.620310430706
 30
0.0
  0
VERTEX
  8
0
 10
-2.67913397489
 20
-0.633245944127
 30
0.0
  0
VERTEX
  8
0
 10
-2.54520707875
 20
-0.645556520253
 30
0.0
  0
VERTEX
  8
0
 10
-2.40876837051
 20
-0.657230010033
 30
0.0
  0
VERTEX
  8
0
 10
-2.2699524987
 20
-0.668254893141
 30
0.0
  0
VERTEX
  8
0
 10
-2.12889645783
 20
-0.67862028935
 30
0.0
  0
VERTEX
  8
0
 10
-1.98573945317
 20
-0.688315969263
 30
0.0
  0
VERTEX
  8
0
 10
-1.84062276342
 20
-0.697332364416
 30
0.0
  0
VERTEX
  8
0
 10
-1.69368960123
 20
-0.705660576716
 30
0.0
  0
VERTEX
  8
0
 10
-1.54508497187
 20
-0.713292387221
 30
0.0
  0
VERTEX
  8
0
 10
-1.3949555302
 20
-0.720220264258
 30
0.0
  0
VERTEX
  8
0
 10
-1.24344943582
 20
-0.726437370846
 30
0.0
  0
VERTEX
  8
0
 10
-1.09071620698
 20
-0.731937571454
 30
0.0
  0
VERTEX
  8
0
 10
-0.936906572929
 20
-0.736715438047
 30
0.0
  0
VERTEX
  8
0
 10
-0.782172325201
 20
-0.740766255446
 30
0.0
  0
VERTEX
  8
0
 10
-0.626666167822
 20
-0.744086025986
 30
0.0
  0
VERTEX
  8
0
 10
-0.470541566593
 20
-0.746671473452
 30
0.0
  0
VERTEX
  8
0
 10
-0.313952597647
 20
-0.748520046321
 30
0.0
  0
VERTEX
  8
0
 10
-0.157053795391
 20
-0.749629920274
 30
0.0
  0
VERTEX
  8
0
 10
-9.18485099361e-16
 20
-0.75
 30
0.0
  0
VERTEX
  8
0
 10
0.157053795391
 20
-0.749629920274
 30
0.0
  0
VERTEX
  8
0
 10
0.313952597647
 20
-0.748520046321
 30
0.0
  0
VERTEX
  8
0
 10
0.470541566593
 20
-0.746671473452
 30
0.0
  0
VERTEX
  8
0
 10
0.626666167822
 20
-0.744086025986
 30
0.0
  0
VERTEX
  8
0
 10
0.782172325201
 20
-0.740766255446
 30
0.0
  0
VERTEX
  8
0
 10
0.936906572929
 20
-0.736715438047
 30
0.0
  0
VERTEX
  8
0
 10
1.09071620698
 20
-0.731937571454
 30
0.0
  0
VERTEX
  8
0
 10
1.24344943582
 20
-0.726437370846
 30
0.0
  0
VERTEX
  8
0
 10
1.3949555302
 20
-0.720220264258
 30
0.0
  0
VERTEX
  8
0
 10
1.54508497187
 20
-0.713292387221
 30
0.0
  0
VERTEX
  8
0
 10
1.69368960123
 20
-0.705660576716
 30
0.0
  0
VERTEX
  8
0
 10
1.84062276342
 20
-0.697332364416
 30
0.0
  0
VERTEX
  8
0
 10
1.98573945317
 20
-0.688315969263
 30
0.0
  0
VERTEX
  8
0
 10
2.12889645783
 20
-0.67862028935
 30
0.0
  0
VERTEX
  8
0
 10
2.2699524987
 20
-0.668254893141
 30
0.0
  0
VERTEX
  8
0
 10
2.40876837051
 20
-0.657230010033
 30
0.0
  0
VERTEX
  8
0
 10
2.54520707875
 20
-0.645556520253
 30
0.0
  0
VERTEX
  8
0
 10
2.67913397489
 20
-0.633245944127
 30
0.0
  0
VERTEX
  8
0
 10
2.81041688926
 20
-0.620310430706
 30
0.0
  0
VERTEX
  8
0
 10
2.93892626146
 20
-0.606762745781
 30
0.0
  0
VERTEX
  8
0
 10
3.06453526826
 20
-0.592616259282
 30
0.0
  0
VERTEX
  8
0
 10
3.18711994874
 20
-0.577884932082
 30
0.0
  0
VERTEX
  8
0
 10
3.30655932662
 20
-0.562583302223
 30
0.0
  0
VERTEX
  8
0
 10
3.42273552964
 20
-0.546726470566
 30
0.0
  0
VERTEX
  8
0
 10
3.53553390593
 20
-0.53033008589
 30
0.0
  0
VERTEX
  8
0
 10
3.64484313711
 20
-0.513410329447
 30
0.0
  0
VERTEX
  8
0
 10
3.75055534815
 20
-0.495983898993
 30
0.0
  0
VERTEX
  8
0
 10
3.85256621388
 20
-0.478067992312
 30
0.0
  0
VERTEX
  8
0
 10
3.95077506188
 20
-0.45968029024
 30
0.0
  0
VERTEX
  8
0
 10
4.04508497187
 20
-0.440838939219
 30
0.0
  0
VERTEX
  8
0
 10
4.13540287137
 20
-0.421562533389
 30
0.0
  0
VERTEX
  8
0
 10
4.22163962751
 20
-0.401870096234
 30
0.0
  0
VERTEX
  8
0
 10
4.30371013502
 20
-0.381781061813
 30
0.0
  0
VERTEX
  8
0
 10
4.38153340022
 20
-0.361315255576
 30
0.0
  0
VERTEX
  8
0
 10
4.45503262094
 20
-0.340492874805
 30
0.0
  0
VERTEX
  8
0
 10
4.52413526233
 20
-0.319334468674
 30
0.0
  0
VERTEX
  8
0
 10
4.58877312842
 20
-0.297860917976
 30
0.0
  0
VERTEX
  8
0
 10
4.64888242944
 20
-0.276093414514
 30
0.0
  0
VERTEX
  8
0
 10
4.70440384477
 20
-0.254053440184
 30
0.0
  0
VERTEX
  8
0
 10
4.75528258148
 20
-0.231762745781
 30
0.0
  0
VERTEX
  8
0
 10
4.80146842838
 20
-0.209243329529
 30
0.0
  0
VERTEX
  8
0
 10
4.84291580564
 20
-0.186517415374
 30
0.0
  0
VERTEX
  8
0
 10
4.87958380969
 20
-0.163607431047
 30
0.0
  0
VERTEX
  8
0
 10
4.91143625364
 20
-0.140535985939
 30
0.0
  0
VERTEX
  8
0
 10
4.93844170298
 20
-0.11732584878
 30
0.0
  0
VERTEX
  8
0
 10
4.96057350657
 20
-0.0939999251732
 30
0.0
  0
VERTEX
  8
0
 10
4.97780982302
 20
-0.0705812349889
 30
0.0
  0
VERTEX
  8
0
 10
4.99013364214
 20
-0.047092889647
 30
0.0
  0
VERTEX
  8
0
 10
4.99753280183
 20
-0.0235580693086
 30
0.0
  0
SEQEND
  0
POLYLINE
 62
256
  8
0
 66
1
 10
0.0
 20
0.0
 30
0.0
 70
9
  0
VERTEX
  8
0
 10
5.0
 20
0.0
 30
0.0
  0
VERTEX
  8
0
 10
4.99753280183
 20
0.0314107590781
 30
0.0
  0
VERTEX
  8
0
 10
4.99013364214
 20
0.0627905195293
 30
0.0
  0
VERTEX
  8
0
 10
4.97780982302
 20
0.0941083133185
 30
0.0
  0
VERTEX
  8
0
 10
4.96057350657
 20
0.125333233564
 30
0.0
  0
VERTEX
  8
0
 10
4.93844170298
 20
0.15643446504
 30
0.0
  0
VERTEX
  8
0
 10
4.91143625364
 20
0.187381314586
 30
0.0
  0
VERTEX
  8
0
 10
4.87958380969
 20
0.218143241397
 30
0.0
  0
VERTEX
  8
0
 10
4.84291580564
 20
0.248689887165
 30
0.0
  0
VERTEX
  8
0
 10
4.80146842838
 20
0.278991106039
 30
0.0
  0
VERTEX
  8
0
 10
4.75528258148
 20
0.309016994375
 30
0.0
  0
VERTEX
  8
0
 10
4.70440384477
 20
0.338737920245
 30
0.0
  0
VERTEX
  8
0
 10
4.64888242944
 20
0.368124552685
 30
0.0
  0
VERTEX
  8
0
 10
4.58877312842
 20
0.397147890635
 30
0.0
  0
VERTEX
  8
0
 10
4.52413526233
 20
0.425779291565
 30
0.0
  0
VERTEX
  8
0
 10
4.45503262094
 20
0.45399049974
 30
0.0
  0
VERTEX
  8
0
 10
4.38153340022
 20
0.481753674102
 30
0.0
  0
VERTEX
  8
0
 10
4.30371013502
 20
0.50904141575
 30
0.0
  0
VERTEX
  8
0
 10
4.22163962751
 20
0.535826794979
 30
0.0
  0
VERTEX
  8
0
 10
4.13540287137
 20
0.562083377852
 30
0.0
  0
VERTEX
  8
0
 10
4.04508497187
 20
0.587785252292
 30
0.0
  0
VERTEX
  8
0
 10
3.95077506188
 20
0.612907053653
 30
0.0
  0
VERTEX
  8
0
 10
3.85256621388
 20
0.637423989749
 30
0.0
  0
VERTEX
  8
0
 10
3.75055534815
 20
0.661311865324
 30
0.0
  0
VERTEX
  8
0
 10
3.64484313711
 20
0.684547105929
 30
0.0
  0
VERTEX
  8
0
 10
3.53553390593
 20
0.707106781187
 30
0.0
  0
VERTEX
  8
0
 10
3.42273552964
 20
0.728968627421
 30
0.0
  0
VERTEX
  8
0
 10
3.30655932662
 20
0.75011106963
 30
0.0
  0
VERTEX
  8
0
 10
3.18711994874
 20
0.770513242776
 30
0.0
  0
VERTEX
  8
0
 10
3.06453526826
 20
0.790155012376
 30
0.0
  0
VERTEX
  8
0
 10
2.93892626146
 20
0.809016994375
 30
0.0
  0
VERTEX
  8
0
 10
2.81041688926
 20
0.827080574275
 30
0.0
  0
VERTEX
  8
0
 10
2.67913397489
 20
0.844327925502
 30
0.0
  0
VERTEX
  8
0
 10
2.54520707875
 20
0.860742027004
 30
0.0
  0
VERTEX
  8
0
 10
2.40876837051
 20
0.876306680044
 30
0.0
  0
VERTEX
  8
0
 10
2.2699524987
 20
0.891006524188
 30
0.0
  0
VERTEX
  8
0
 10
2.12889645783
 20
0.904827052466
 30
0.0
  0
VERTEX
  8
0
 10
1.98573945317
 20
0.917754625684
 30
0.0
  0
VERTEX
  8
0
 10
1.84062276342
 20
0.929776485888
 30
0.0
  0
VERTEX
  8
0
 10
1.69368960123
 20
0.940880768954
 30
0.0
  0
VERTEX
  8
0
 10
1.54508497187
 20
0.951056516295
 30
0.0
  0
VERTEX
  8
0
 10
1.3949555302
 20
0.960293685677
 30
0.0
  0
VERTEX
  8
0
 10
1.24344943582
 20
0.968583161129
 30
0.0
  0
VERTEX
  8
0
 10
1.09071620698
 20
0.975916761939
 30
0.0
  0
VERTEX
  8
0
 10
0.936906572929
 20
0.982287250729
 30
0.0
  0
VERTEX
  8
0
 10
0.782172325201
 20
0.987688340595
 30
0.0
  0
VERTEX
  8
0
 10
0.626666167822
 20
0.992114701314
 30
0.0
  0
VERTEX
  8
0
 10
0.470541566593
 20
0.995561964603
 30
0.0
  0
VERTEX
  8
0
 10
0.313952597647
 20
0.998026728428
 30
0.0
  0
VERTEX
  8
0
 10
0.157053795391
 20
0.999506560366
 30
0.0
  0
VERTEX
  8
0
 10
3.06161699787e-16
 20
1.0
 30
0.0
  0
VERTEX
  8
0
 10
-0.157053795391
 20
0.999506560366
 30
0.0
  0
VERTEX
  8
0
 10
-0.313952597647
 20
0.998026728428
 30
0.0
  0
VERTEX
  8
0
 10
-0.470541566593
 20
0.995561964603
 30
0.0
  0
VERTEX
  8
0
 10
-0.626666167822
 20
0.992114701314
 30
0.0
  0
VERTEX
  8
0
 10
-0.782172325201
 20
0.987688340595
 30
0.0
  0
VERTEX
  8
0
 10
-0.936906572929
 20
0.982287250729
 30
0.0
  0
VERTEX
  8
0
 10
-1.09071620698
 20
0.975916761939
 30
0.0
  0
VERTEX
  8
0
 10
-1.24344943582
 20
0.968583161129
 30
0.0
  0
VERTEX
  8
0
 10
-1.3949555302
 20
0.960293685677
 30
0.0
  0
VERTEX
  8
0
 10
-1.54508497187
 20
0.951056516295
 30
0.0
  0
VERTEX
  8
0
 10
-1.69368960123
 20
0.940880768954
 30
0.0
  0
VERTEX
  8
0
 10
-1.84062276342
 20
0.929776485888
 30
0.0
  0
VERTEX
  8
0
 10
-1.98573945317
 20
0.917754625684
 30
0.0
  0
VERTEX
  8
0
 10
-2.12889645783
 20
0.904827052466
 30
0.0
  0
VERTEX
  8
0
 10
-2.2699524987
 20
0.891006524188
 30
0.0
  0
VERTEX
  8
0
 10
-2.40876837051
 20
0.876306680044
 30
0.0
  0
VERTEX
  8
0
 10
-2.54520707875
 20
0.860742027004
 30
0.0
  0
VERTEX
  8
0
 10
-2.67913397489
 20
0.844327925502
 30
0.0
  0
VERTEX
  8
0
 10
-2.81041688926
 20
0.827080574275
 30
0.0
  0
VERTEX
  8
0
 10
-2.93892626146
 20
0.809016994375
 30
0.0
  0
VERTEX
  8
0
 10
-3.06453526826
 20
0.790155012376
 30
0.0
  0
VERTEX
  8
0
 10
-3.18711994874
 20
0.770513242776
 30
0.0
  0
VERTEX
  8
0
 10
-3.30655932662
 20
0.75011106963
 30
0.0
  0
VERTEX
  8
0
 10
-3.42273552964
 20
0.728968627421
 30
0.0
  0
VERTEX
  8
0
 10
-3.53553390593
 20
0.707106781187
 30
0.0
  0
VERTEX
  8
0
 10
-3.64484313711
 20
0.684547105929
 30
0.0
  0
VERTEX
  8
0
 10
-3.75055534815
 20
0.661311865324
 30
0.0
  0
VERTEX
  8
0
 10
-3.85256621388
 20
0.637423989749
 30
0.0
  0
VERTEX
  8
0
 10
-3.95077506188
 20
0.612907053653
 30
0.0
  0
VERTEX
  8
0
 10
-4.04508497187
 20
0.587785252292
 30
0.0
  0
VERTEX
  8
0
 10
-4.13540287137
 20
0.562083377852
 30
0.0
  0
VERTEX
  8
0
 10
-4.22163962751
 20
0.535826794979
 30
0.0
  0
VERTEX
  8
0
 10
-4.30371013502
 20
0.50904141575
 30
0.0
  0
VERTEX
  8
0
 10
-4.38153340022
 20
0.481753674102
 30
0.0
  0
VERTEX
  8
0
 10
-4.45503262094
 20
0.45399049974
 30
0.0
  0
VERTEX
  8
0
 10
-4.52413526233
 20
0.425779291565
 30
0.0
  0
VERTEX
  8
0
 10
-4.58877312842
 20
0.397147890635
 30
0.0
  0
VERTEX
  8
0
 10
-4.64888242944
 20
0.368124552685
 30
0.0
  0
VERTEX
  8
0
 10
-4.70440384477
 20
0.338737920245
 30
0.0
  0
VERTEX
  8
0
 10
-4.75528258148
 20
0.309016994375
 30
0.0
  0
VERTEX
  8
0
 10
-4.80146842838
 20
0.278991106039
 30
0.0
  0
VERTEX
  8
0
 10
-4.84291580564
 20
0.248689887165
 30
0.0
  0
VERTEX
  8
0
 10
-4.87958380969
 20
0.218143241397
 30
0.0
  0
VERTEX
  8
0
 10
-4.91143625364
 20
0.187381314586
 30
0.0
  0
VERTEX
  8
0
 10
-4.93844170298
 20
0.15643446504
 30
0.0
  0
VERTEX
  8
0
 10
-4.96057350657
 20
0.125333233564
 30
0.0
  0
VERTEX
  8
0
 10
-4.97780982302
 20
0.0941083133185
 30
0.0
  0
VERTEX
  8
0
 10
-4.99013364214
 20
0.0627905195293
 30
0.0
  0
VERTEX
  8
0
 10
-4.99753280183
 20
0.0314107590781
 30
0.0
  0
VERTEX
  8
0
 10
-5.0
 20
1.22464679915e-16
 30
0.0
  0
VERTEX
  8
0
 10
-4.99753280183
 20
-0.0314107590781
 30
0.0
  0
VERTEX
  8
0
 10
-4.99013364214
 20
-0.0627905195293
 30
0.0
  0
VERTEX
  8
0
 10
-4.97780982302
 20
-0.0941083133185
 30
0.0
  0
VERTEX
  8
0
 10
-4.96057350657
 20
-0.125333233564
 30
0.0
  0
VERTEX
  8
0
 10
-4.93844170298
 20
-0.15643446504
 30
0.0
  0
VERTEX
  8
0
 10
-4.91143625364
 20
-0.187381314586
 30
0.0
  0
VERTEX
  8
0
 10
-4.87958380969
 20
-0.218143241397
 30
0.0
  0
VERTEX
  8
0
 10
-4.84291580564
 20
-0.248689887165
 30
0.0
  0
VERTEX
  8
0
 10
-4.80146842838
 20
-0.278991106039
 30
0.0
  0
VERTEX
  8
0
 10
-4.75528258148
 20
-0.309016994375
 30
0.0
  0
VERTEX
  8
0
 10
-4.70440384477
 20
-0.338737920245
 30
0.0
  0
VERTEX
  8
0
 10
-4.64888242944
 20
-0.368124552685
 30
0.0
  0
VERTEX
  8
0
 10
-4.58877312842
 20
-0.397147890635
 30
0.0
  0
VERTEX
  8
0
 10
-4.52413526233
 20
-0.425779291565
 30
0.0
  0
VERTEX
  8
0
 10
-4.45503262094
 20
-0.45399049974
 30
0.0
  0
VERTEX
  8
0
 10
-4.38153340022
 20
-0.481753674102
 30
0.0
  0
VERTEX
  8
0
 10
-4.30371013502
 20
-0.50904141575
 30
0.0
  0
VERTEX
  8
0
 10
-4.22163962751
 20
-0.535826794979
 30
0.0
  0
VERTEX
  8
0
 10
-4.13540287137
 20
-0.562083377852
 30
0.0
  0
VERTEX
  8
0
 10
-4.04508497187
 20
-0.587785252292
 30
0.0
  0
VERTEX
  8
0
 10
-3.95077506188
 20
-0.612907053653
 30
0.0
  0
VERTEX
  8
0
 10
-3.85256621388
 20
-0.637423989749
 30
0.0
  0
VERTEX
  8
0
 10
-3.75055534815
 20
-0.661311865324
 30
0.0
  0
VERTEX
  8
0
 10
-3.64484313711
 20
-0.684547105929
 30
0.0
  0
VERTEX
  8
0
 10
-3.53553390593
 20
-0.707106781187
 30
0.0
  0
VERTEX
  8
0
 10
-3.42273552964
 20
-0.728968627421
 30
0.0
  0
VERTEX
  8
0
 10
-3.30655932662
 20
-0.75011106963
 30
0.0
  0
VERTEX
  8
0
 10
-3.18711994874
 20
-0.770513242776
 30
0.0
  0
VERTEX
  8
0
 10
-3.06453526826
 20
-0.790155012376
 30
0.0
  0
VERTEX
  8
0
 10
-2.93892626146
 20
-0.809016994375
 30
0.0
  0
VERTEX
  8
0
 10
-2.81041688926
 20
-0.827080574275
 30
0.0
  0
VERTEX
  8
0
 10
-2.67913397489
 20
-0.844327925502
 30
0.0
  0
VERTEX
  8
0
 10
-2.54520707875
 20
-0.860742027004
 30
0.0
  0
VERTEX
  8
0
 10
-2.40876837051
 20
-0.876306680044
 30
0.0
  0
VERTEX
  8
0
 10
-2.2699524987
 20
-0.891006524188
 30
0.0
  0
VERTEX
  8
0
 10
-2.12889645783
 20
-0.904827052466
 30
0.0
  0
VERTEX
  8
0
 10
-1.98573945317
 20
-0.917754625684
 30
0.0
  0
VERTEX
  8
0
 10
-1.84062276342
 20
-0.929776485888
 30
0.0
  0
VERTEX
  8
0
 10
-1.69368960123
 20
-0.940880768954
 30
0.0
  0
VERTEX
  8
0
 10
-1.54508497187
 20
-0.951056516295
 30
0.0
  0
VERTEX
  8
0
 10
-1.3949555302
 20
-0.960293685677
 30
0.0
  0
VERTEX
  8
0
 10
-1.24344943582
 20
-0.968583161129
 30
0.0
  0
VERTEX
  8
0
 10
-1.09071620698
 20
-0.975916761939
 30
0.0
  0
VERTEX
  8
0
 10
-0.936906572929
 20
-0.982287250729
 30
0.0
  0
VERTEX
  8
0
 10
-0.782172325201
 20
-0.987688340595
 30
0.0
  0
VERTEX
  8
0
 10
-0.626666167822
 20
-0.992114701314
 30
0.0
  0
VERTEX
  8
0
 10
-0.470541566593
 20
-0.995561964603
 30
0.0
  0
VERTEX
  8
0
 10
-0.313952597647
 20
-0.998026728428
 30
0.0
  0
VERTEX
  8
0
 10
-0.157053795391
 20
-0.999506560366
 30
0.0
  0
VERTEX
  8
0
 10
-9.18485099361e-16
 20
-1.0
 30
0.0
  0
VERTEX
  8
0
 10
0.157053795391
 20
-0.999506560366
 30
0.0
  0
VERTEX
  8
0
 10
0.313952597647
 20
-0.998026728428
 30
0.0
  0
VERTEX
  8
0
 10
0.470541566593
 20
-0.995561964603
 30
0.0
  0
VERTEX
  8
0
 10
0.626666167822
 20
-0.992114701314
 30
0.0
  0
VERTEX
  8
0
 10
0.782172325201
 20
-0.987688340595
 30
0.0
  0
VERTEX
  8
0
 10
0.936906572929
 20
-0.982287250729
 30
0.0
  0
VERTEX
  8
0
 10
1.09071620698
 20
-0.975916761939
 30
0.0
  0
VERTEX
  8
0
 10
1.24344943582
 20
-0.968583161129
 30
0.0
  0
VERTEX
  8
0
 10
1.3949555302
 20
-0.960293685677
 30
0.0
  0
VERTEX
  8
0
 10
1.54508497187
 20
-0.951056516295
 30
0.0
  0
VERTEX
  8
0
 10
1.69368960123
 20
-0.940880768954
 30
0.0
  0
VERTEX
  8
0
 10
1.84062276342
 20
-0.929776485888
 30
0.0
  0
VERTEX
  8
0
 10
1.98573945317
 20
-0.917754625684
 30
0.0
  0
VERTEX
  8
0
 10
2.12889645783
 20
-0.904827052466
 30
0.0
  0
VERTEX
  8
0
 10
2.2699524987
 20
-0.891006524188
 30
0.0
  0
VERTEX
  8
0
 10
2.40876837051
 20
-0.876306680044
 30
0.0
  0
VERTEX
  8
0
 10
2.54520707875
 20
-0.860742027004
 30
0.0
  0
VERTEX
  8
0
 10
2.67913397489
 20
-0.844327925502
 30
0.0
  0
VERTEX
  8
0
 10
2.81041688926
 20
-0.827080574275
 30
0.0
  0
VERTEX
  8
0
 10
2.93892626146
 20
-0.809016994375
 30
0.0
  0
VERTEX
  8
0
 10
3.06453526826
 20
-0.790155012376
 30
0.0
  0
VERTEX
  8
0
 10
3.18711994874
 20
-0.770513242776
 30
0.0
  0
VERTEX
  8
0
 10
3.30655932662
 20
-0.75011106963
 30
0.0
  0
VERTEX
  8
0
 10
3.42273552964
 20
-0.728968627421
 30
0.0
  0
VERTEX
  8
0
 10
3.53553390593
 20
-0.707106781187
 30
0.0
  0
VERTEX
  8
0
 10
3.64484313711
 20
-0.684547105929
 30
0.0
  0
VERTEX
  8
0
 10
3.75055534815
 20
-0.661311865324
 30
0.0
  0
VERTEX
  8
0
 10
3.85256621388
 20
-0.637423989749
 30
0.0
  0
VERTEX
  8
0
 10
3.95077506188
 20
-0.612907053653
 30
0.0
  0
VERTEX
  8
0
 10
4.04508497187
 20
-0.587785252292
 30
0.0
  0
VERTEX
  8
0
 10
4.13540287137
 20
-0.562083377852
 30
0.0
  0
VERTEX
  8
0
 10
4.22163962751
 20
-0.535826794979
 30
0.0
  0
VERTEX
  8
0
 10
4.30371013502
 20
-0.50904141575
 30
0.0
  0
VERTEX
  8
0
 10
4.38153340022
 20
-0.481753674102
 30
0.0
  0
VERTEX
  8
0
 10
4.45503262094
 20
-0.45399049974
 30
0.0
  0
VERTEX
  8
0
 10
4.52413526233
 20
-0.425779291565
 30
0.0
  0
VERTEX
  8
0
 10
4.58877312842
 20
-0.397147890635
 30
0.0
  0
VERTEX
  8
0
 10
4.64888242944
 20
-0.368124552685
 30
0.0
  0
VERTEX
  8
0
 10
4.70440384477
 20
-0.338737920245
 30
0.0
  0
VERTEX
  8
0
 10
4.75528258148
 20
-0.309016994375
 30
0.0
  0
VERTEX
  8
0
 10
4.80146842838
 20
-0.278991106039
 30
0.0
  0
VERTEX
  8
0
 10
4.84291580564
 20
-0.248689887165
 30
0.0
  0
VERTEX
  8
0
 10
4.87958380969
 20
-0.218143241397
 30
0.0
  0
VERTEX
  8
0
 10
4.91143625364
 20
-0.187381314586
 30
0.0
  0
VERTEX
  8
0
 10
4.93844170298
 20
-0.15643446504
 30
0.0
  0
VERTEX
  8
0
 10
4.96057350657
 20
-0.125333233564
 30
0.0
  0
VERTEX
  8
0
 10
4.97780982302
 20
-0.0941083133185
 30
0.0
  0
VERTEX
  8
0
 10
4.99013364214
 20
-0.0627905195293
 30
0.0
  0
VERTEX
  8
0
 10
4.99753280183
 20
-0.0314107590781
 30
0.0
  0
SEQEND
  0
POLYLINE
 62
256
  8
0
 66
1
 10
0.0
 20
0.0
 30
0.0
 70
9
  0
VERTEX
  8
0
 10
5.0
 20
0.0
 30
0.0
  0
VERTEX
  8
0
 10
4.99753280183
 20
0.0471161386172
 30
0.0
  0
VERTEX
  8
0
 10
4.99013364214
 20
0.094185779294
 30
0.0
  0
VERTEX
  8
0
 10
4.97780982302
 20
0.141162469978
 30
0.0
  0
VERTEX
  8
0
 10
4.96057350657
 20
0.187999850346
 30
0.0
  0
VERTEX
  8
0
 10
4.93844170298
 20
0.23465169756
 30
0.0
  0
VERTEX
  8
0
 10
4.91143625364
 20
0.281071971879
 30
0.0
  0
VERTEX
  8
0
 10
4.87958380969
 20
0.327214862095
 30
0.0
  0
VERTEX
  8
0
 10
4.84291580564
 20
0.373034830747
 30
0.0
  0
VERTEX
  8
0
 10
4.80146842838
 20
0.418486659059
 30
0.0
  0
VERTEX
  8
0
 10
4.75528258148
 20
0.463525491562
 30
0.0
  0
VERTEX
  8
0
 10
4.70440384477
 20
0.508106880368
 30
0.0
  0
VERTEX
  8
0
 10
4.64888242944
 20
0.552186829027
 30
0.0
  0
VERTEX
  8
0
 10
4.58877312842
 20
0.595721835952
 30
0.0
  0
VERTEX
  8
0
 10
4.52413526233
 20
0.638668937348
 30
0.0
  0
VERTEX
  8
0
 10
4.45503262094
 20
0.680985749609
 30
0.0
  0
VERTEX
  8
0
 10
4.38153340022
 20
0.722630511153
 30
0.0
  0
VERTEX
  8
0
 10
4.30371013502
 20
0.763562123626
 30
0.0
  0
VERTEX
  8
0
 10
4.22163962751
 20
0.803740192468
 30
0.0
  0
VERTEX
  8
0
 10
4.13540287137
 20
0.843125066778
 30
0.0
  0
VERTEX
  8
0
 10
4.04508497187
 20
0.881677878439
 30
0.0
  0
VERTEX
  8
0
 10
3.95077506188
 20
0.919360580479
 30
0.0
  0
VERTEX
  8
0
 10
3.85256621388
 20
0.956135984623
 30
0.0
  0
VERTEX
  8
0
 10
3.75055534815
 20
0.991967797985
 30
0.0
  0
VERTEX
  8
0
 10
3.64484313711
 20
1.02682065889
 30
0.0
  0
VERTEX
  8
0
 10
3.53553390593
 20
1.06066017178
 30
0.0
  0
VERTEX
  8
0
 10
3.42273552964
 20
1.09345294113
 30
0.0
  0
VERTEX
  8
0
 10
3.30655932662
 20
1.12516660445
 30
0.0
  0
VERTEX
  8
0
 10
3.18711994874
 20
1.15576986416
 30
0.0
  0
VERTEX
  8
0
 10
3.06453526826
 20
1.18523251856
 30
0.0
  0
VERTEX
  8
0
 10
2.93892626146
 20
1.21352549156
 30
0.0
  0
VERTEX
  8
0
 10
2.81041688926
 20
1.24062086141
 30
0.0
  0
VERTEX
  8
0
 10
2.67913397489
 20
1.26649188825
 30
0.0
  0
VERTEX
  8
0
 10
2.54520707875
 20
1.29111304051
 30
0.0
  0
VERTEX
  8
0
 10
2.40876837051
 20
1.31446002007
 30
0.0
  0
VERTEX
  8
0
 10
2.2699524987
 20
1.33650978628
 30
0.0
  0
VERTEX
  8
0
 10
2.12889645783
 20
1.3572405787
 30
0.0
  0
VERTEX
  8
0
 10
1.98573945317
 20
1.37663193853
 30
0.0
  0
VERTEX
  8
0
 10
1.84062276342
 20
1.39466472883
 30
0.0
  0
VERTEX
  8
0
 10
1.69368960123
 20
1.41132115343
 30
0.0
  0
VERTEX
  8
0
 10
1.54508497187
 20
1.42658477444
 30
0.0
  0
VERTEX
  8
0
 10
1.3949555302
 20
1.44044052852
 30
0.0
  0
VERTEX
  8
0
 10
1.24344943582
 20
1.45287474169
 30
0.0
  0
VERTEX
  8
0
 10
1.09071620698
 20
1.46387514291
 30
0.0
  0
VERTEX
  8
0
 10
0.936906572929
 20
1.47343087609
 30
0.0
  0
VERTEX
  8
0
 10
0.782172325201
 20
1.48153251089
 30
0.0
  0
VERTEX
  8
0
 10
0.626666167822
 20
1.48817205197
 30
0.0
  0
VERTEX
  8
0
 10
0.470541566593
 20
1.4933429469
 30
0.0
  0
VERTEX
  8
0
 10
0.313952597647
 20
1.49704009264
 30
0.0
  0
VERTEX
  8
0
 10
0.157053795391
 20
1.49925984055
 30
0.0
  0
VERTEX
  8
0
 10
3.06161699787e-16
 20
1.5
 30
0.0
  0
VERTEX
  8
0
 10
-0.157053795391
 20
1.49925984055
 30
0.0
  0
VERTEX
  8
0
 10
-0.313952597647
 20
1.49704009264
 30
0.0
  0
VERTEX
  8
0
 10
-0.470541566593
 20
1.4933429469
 30
0.0
  0
VERTEX
  8
0
 10
-0.626666167822
 20
1.48817205197
 30
0.0
  0
VERTEX
  8
0
 10
-0.782172325201
 20
1.48153251089
 30
0.0
  0
VERTEX
  8
0
 10
-0.936906572929
 20
1.47343087609
 30
0.0
  0
VERTEX
  8
0
 10
-1.09071620698
 20
1.46387514291
 30
0.0
  0
VERTEX
  8
0
 10
-1.24344943582
 20
1.45287474169
 30
0.0
  0
VERTEX
  8
0
 10
-1.3949555302
 20
1.44044052852
 30
0.0
  0
VERTEX
  8
0
 10
-1.54508497187
 20
1.42658477444
 30
0.0
  0
VERTEX
  8
0
 10
-1.69368960123
 20
1.41132115343
 30
0.0
  0
VERTEX
  8
0
 10
-1.84062276342
 20
1.39466472883
 30
0.0
  0
VERTEX
  8
0
 10
-1.98573945317
 20
1.37663193853
 30
0.0
  0
VERTEX
  8
0
 10
-2.12889645783
 20
1.3572405787
 30
0.0
  0
VERTEX
  8
0
 10
-2.2699524987
 20
1.33650978628
 30
0.0
  0
VERTEX
  8
0
 10
-2.40876837051
 20
1.31446002007
 30
0.0
  0
VERTEX
  8
0
 10
-2.54520707875
 20
1.29111304051
 30
0.0
  0
VERTEX
  8
0
 10
-2.67913397489
 20
1.26649188825
 30
0.0
  0
VERTEX
  8
0
 10
-2.81041688926
 20
1.24062086141
 30
0.0
  0
VERTEX
  8
0
 10
-2.93892626146
 20
1.21352549156
 30
0.0
  0
VERTEX
  8
0
 10
-3.06453526826
 20
1.18523251856
 30
0.0
  0
VERTEX
  8
0
 10
-3.18711994874
 20
1.15576986416
 30
0.0
  0
VERTEX
  8
0
 10
-3.30655932662
 20
1.12516660445
 30
0.0
  0
VERTEX
  8
0
 10
-3.42273552964
 20
1.09345294113
 30
0.0
  0
VERTEX
  8
0
 10
-3.53553390593
 20
1.06066017178
 30
0.0
  0
VERTEX
  8
0
 10
-3.64484313711
 20
1.02682065889
 30
0.0
  0
VERTEX
  8
0
 10
-3.75055534815
 20
0.991967797985
 30
0.0
  0
VERTEX
  8
0
 10
-3.85256621388
 20
0.956135984623
 30
0.0
  0
VERTEX
  8
0
 10
-3.95077506188
 20
0.919360580479
 30
0.0
  0
VERTEX
  8
0
 10
-4.04508497187
 20
0.881677878439
 30
0.0
  0
VERTEX
  8
0
 10
-4.13540287137
 20
0.843125066778
 30
0.0
  0
VERTEX
  8
0
 10
-4.22163962751
 20
0.803740192468
 30
0.0
  0
VERTEX
  8
0
 10
-4.30371013502
 20
0.763562123626
 30
0.0
  0
VERTEX
  8
0
 10
-4.38153340022
 20
0.722630511153
 30
0.0
  0
VERTEX
  8
0
 10
-4.45503262094
 20
0.680985749609
 30
0.0
  0
VERTEX
  8
0
 10
-4.52413526233
 20
0.638668937348
 30
0.0
  0
VERTEX
  8
0
 10
-4.58877312842
 20
0.595721835952
 30
0.0
  0
VERTEX
  8
0
 10
-4.64888242944
 20
0.552186829027
 30
0.0
  0
VERTEX
  8
0
 10
-4.70440384477
 20
0.508106880368
 30
0.0
  0
VERTEX
  8
0
 10
-4.75528258148
 20
0.463525491562
 30
0.0
  0
VERTEX
  8
0
 10
-4.80146842838
 20
0.418486659059
 30
0.0
  0
VERTEX
  8
0
 10
-4.84291580564
 20
0.373034830747
 30
0.0
  0
VERTEX
  8
0
 10
-4.87958380969
 20
0.327214862095
 30
0.0
  0
VERTEX
  8
0
 10
-4.91143625364
 20
0.281071971879
 30
0.0
  0
VERTEX
  8
0
 10
-4.93844170298
 20
0.23465169756
 30
0.0
  0
VERTEX
  8
0
 10
-4.96057350657
 20
0.187999850346
 30
0.0
  0
VERTEX
  8
0
 10
-4.97780982302
 20
0.141162469978
 30
0.0
  0
VERTEX
  8
0
 10
-4.99013364214
 20
0.094185779294
 30
0.0
  0
VERTEX
  8
0
 10
-4.99753280183
 20
0.0471161386172
 30
0.0
  0
VERTEX
  8
0
 10
-5.0
 20
1.83697019872e-16
 30
0.0
  0
VERTEX
  8
0
 10
-4.99753280183
 20
-0.0471161386172
 30
0.0
  0
VERTEX
  8
0
 10
-4.99013364214
 20
-0.094185779294
 30
0.0
  0
VERTEX
  8
0
 10
-4.97780982302
 20
-0.141162469978
 30
0.0
  0
VERTEX
  8
0
 10
-4.96057350657
 20
-0.187999850346
 30
0.0
  0
VERTEX
  8
0
 10
-4.93844170298
 20
-0.23465169756
 30
0.0
  0
VERTEX
  8
0
 10
-4.91143625364
 20
-0.281071971879
 30
0.0
  0
VERTEX
  8
0
 10
-4.87958380969
 20
-0.327214862095
 30
0.0
  0
VERTEX
  8
0
 10
-4.84291580564
 20
-0.373034830747
 30
0.0
  0
VERTEX
  8
0
 10
-4.80146842838
 20
-0.418486659059
 30
0.0
  0
VERTEX
  8
0
 10
-4.75528258148
 20
-0.463525491562
 30
0.0
  0
VERTEX
  8
0
 10
-4.70440384477
 20
-0.508106880368
 30
0.0
  0
VERTEX
  8
0
 10
-4.64888242944
 20
-0.552186829027
 30
0.0
  0
VERTEX
  8
0
 10
-4.58877312842
 20
-0.595721835952
 30
0.0
  0
VERTEX
  8
0
 10
-4.52413526233
 20
-0.638668937348
 30
0.0
  0
VERTEX
  8
0
 10
-4.45503262094
 20
-0.680985749609
 30
0.0
  0
VERTEX
  8
0
 10
-4.38153340022
 20
-0.722630511153
 30
0.0
  0
VERTEX
  8
0
 10
-4.30371013502
 20
-0.763562123626
 30
0.0
  0
VERTEX
  8
0
 10
-4.22163962751
 20
-0.803740192468
 30
0.0
  0
VERTEX
  8
0
 10
-4.13540287137
 20
-0.843125066778
 30
0.0
  0
VERTEX
  8
0
 10
-4.04508497187
 20
-0.881677878439
 30
0.0
  0
VERTEX
  8
0
 10
-3.95077506188
 20
-0.919360580479
 30
0.0
  0
VERTEX
  8
0
 10
-3.85256621388
 20
-0.956135984623
 30
0.0
  0
VERTEX
  8
0
 10
-3.75055534815
 20
-0.991967797985
 30
0.0
  0
VERTEX
  8
0
 10
-3.64484313711
 20
-1.02682065889
 30
0.0
  0
VERTEX
  8
0
 10
-3.53553390593
 20
-1.06066017178
 30
0.0
  0
VERTEX
  8
0
 10
-3.42273552964
 20
-1.09345294113
 30
0.0
  0
VERTEX
  8
0
 10
-3.30655932662
 20
-1.12516660445
 30
0.0
  0
VERTEX
  8
0
 10
-3.18711994874
 20
-1.15576986416
 30
0.0
  0
VERTEX
  8
0
 10
-3.06453526826
 20
-1.18523251856
 30
0.0
  0
VERTEX
  8
0
 10
-2.93892626146
 20
-1.21352549156
 30
0.0
  0
VERTEX
  8
0
 10
-2.81041688926
 20
-1.24062086141
 30
0.0
  0
VERTEX
  8
0
 10
-2.67913397489
 20
-1.26649188825
 30
0.0
  0
VERTEX
  8
0
 10
-2.54520707875
 20
-1.29111304051
 30
0.0
  0
VERTEX
  8
0
 10
-2.40876837051
 20
-1.31446002007
 30
0.0
  0
VERTEX
  8
0
 10
-2.2699524987
 20
-1.33650978628
 30
0.0
  0
VERTEX
  8
0
 10
-2.12889645783
 20
-1.3572405787
 30
0.0
  0
VERTEX
  8
0
 10
-1.98573945317
 20
-1.37663193853
 30
0.0
  0
VERTEX
  8
0
 10
-1.84062276342
 20
-1.39466472883
 30
0.0
  0
VERTEX
  8
0
 10
-1.69368960123
 20
-1.41132115343
 30
0.0
  0
VERTEX
  8
0
 10
-1.54508497187
 20
-1.42658477444
 30
0.0
  0
VERTEX
  8
0
 10
-1.3949555302
 20
-1.44044052852
 30
0.0
  0
VERTEX
  8
0
 10
-1.24344943582
 20
-1.45287474169
 30
0.0
  0
VERTEX
  8
0
 10
-1.09071620698
 20
-1.46387514291
 30
0.0
  0
VERTEX
  8
0
 10
-0.936906572929
 20
-1.47343087609
 30
0.0
  0
VERTEX
  8
0
 10
-0.782172325201
 20
-1.48153251089
 30
0.0
  0
VERTEX
  8
0
 10
-0.626666167822
 20
-1.48817205197
 30
0.0
  0
VERTEX
  8
0
 10
-0.470541566593
 20
-1.4933429469
 30
0.0
  0
VERTEX
  8
0
 10
-0.313952597647
 20
-1.49704009264
 30
0.0
  0
VERTEX
  8
0
 10
-0.157053795391
 20
-1.49925984055
 30
0.0
  0
VERTEX
  8
0
 10
-9.18485099361e-16
 20
-1.5
 30
0.0
  0
VERTEX
  8
0
 10
0.157053795391
 20
-1.49925984055
 30
0.0
  0
VERTEX
  8
0
 10
0.313952597647
 20
-1.49704009264
 30
0.0
  0
VERTEX
  8
0
 10
0.470541566593
 20
-1.4933429469
 30
0.0
  0
VERTEX
  8
0
 10
0.626666167822
 20
-1.48817205197
 30
0.0
  0
VERTEX
  8
0
 10
0.782172325201
 20
-1.48153251089
 30
0.0
  0
VERTEX
  8
0
 10
0.936906572929
 20
-1.47343087609
 30
0.0
  0
VERTEX
  8
0
 10
1.09071620698
 20
-1.46387514291
 30
0.0
  0
VERTEX
  8
0
 10
1.24344943582
 20
-1.45287474169
 30
0.0
  0
VERTEX
  8
0
 10
1.3949555302
 20
-1.44044052852
 30
0.0
  0
VERTEX
  8
0
 10
1.54508497187
 20
-1.42658477444
 30
0.0
  0
VERTEX
  8
0
 10
1.69368960123
 20
-1.41132115343
 30
0.0
  0
VERTEX
  8
0
 10
1.84062276342
 20
-1.39466472883
 30
0.0
  0
VERTEX
  8
0
 10
1.98573945317
 20
-1.37663193853
 30
0.0
  0
VERTEX
  8
0
 10
2.12889645783
 20
-1.3572405787
 30
0.0
  0
VERTEX
  8
0
 10
2.2699524987
 20
-1.33650978628
 30
0.0
  0
VERTEX
  8
0
 10
2.40876837051
 20
-1.31446002007
 30
0.0
  0
VERTEX
  8
0
 10
2.54520707875
 20
-1.29111304051
 30
0.0
  0
VERTEX
  8
0
 10
2.67913397489
 20
-1.26649188825
 30
0.0
  0
VERTEX
  8
0
 10
2.81041688926
 20
-1.24062086141
 30
0.0
  0
VERTEX
  8
0
 10
2.93892626146
 20
-1.21352549156
 30
0.0
  0
VERTEX
  8
0
 10
3.06453526826
 20
-1.18523251856
 30
0.0
  0
VERTEX
  8
0
 10
3.18711994874
 20
-1.15576986416
 30
0.0
  0
VERTEX
  8
0
 10
3.30655932662
 20
-1.12516660445
 30
0.0
  0
VERTEX
  8
0
 10
3.42273552964
 20
-1.09345294113
 30
0.0
  0
VERTEX
  8
0
 10
3.53553390593
 20
-1.06066017178
 30
0.0
  0
VERTEX
  8
0
 10
3.64484313711
 20
-1.02682065889
 30
0.0
  0
VERTEX
  8
0
 10
3.75055534815
 20
-0.991967797985
 30
0.0
  0
VERTEX
  8
0
 10
3.85256621388
 20
-0.956135984623
 30
0.0
  0
VERTEX
  8
0
 10
3.95077506188
 20
-0.919360580479
 30
0.0
  0
VERTEX
  8
0
 10
4.04508497187
 20
-0.881677878439
 30
0.0
  0
VERTEX
  8
0
 10
4.13540287137
 20
-0.843125066778
 30
0.0
  0
VERTEX
  8
0
 10
4.22163962751
 20
-0.803740192468
 30
0.0
  0
VERTEX
  8
0
 10
4.30371013502
 20
-0.763562123626
 30
0.0
  0
VERTEX
  8
0
 10
4.38153340022
 20
-0.722630511153
 30
0.0
  0
VERTEX
  8
0
 10
4.45503262094
 20
-0.680985749609
 30
0.0
  0
VERTEX
  8
0
 10
4.52413526233
 20
-0.638668937348
 30
0.0
  0
VERTEX
  8
0
 10
4.58877312842
 20
-0.595721835952
 30
0.0
  0
VERTEX
  8
0
 10
4.64888242944
 20
-0.552186829027
 30
0.0
  0
VERTEX
  8
0
 10
4.70440384477
 20
-0.508106880368
 30
0.0
  0
VERTEX
  8
0
 10
4.75528258148
 20
-0.463525491562
 30
0.0
  0
VERTEX
  8
0
 10
4.80146842838
 20
-0.418486659059
 30
0.0
  0
VERTEX
  8
0
 10
4.84291580564
 20
-0.373034830747
 30
0.0
  0
VERTEX
  8
0
 10
4.87958380969
 20
-0.327214862095
 30
0.0
  0
VERTEX
  8
0
 10
4.91143625364
 20
-0.281071971879
 30
0.0
  0
VERTEX
  8
0
 10
4.93844170298
 20
-0.23465169756
 30
0.0
  0
VERTEX
  8
0
 10
4.96057350657
 20
-0.187999850346
 30
0.0
  0
VERTEX
  8
0
 10
4.97780982302
 20
-0.141162469978
 30
0.0
  0
VERTEX
  8
0
 10
4.99013364214
 20
-0.094185779294
 30
0.0
  0
VERTEX
  8
0
 10
4.99753280183
 20
-0.0471161386172
 30
0.0
  0
SEQEND
  0
POLYLINE
 62
256
  8
0
 66
1
 10
0.0
 20
0.0
 30
0.0
 70
9
  0
VERTEX
  8
0
 10
5.0
 20
0.0
 30
0.0
  0
VERTEX
  8
0
 10
4.99753280183
 20
0.0628215181563
 30
0.0
  0
VERTEX
  8
0
 10
4.99013364214
 20
0.125581039059
 30
0.0
  0
VERTEX
  8
0
 10
4.97780982302
 20
0.188216626637
 30
0.0
  0
VERTEX
  8
0
 10
4.96057350657
 20
0.250666467129
 30
0.0
  0
VERTEX
  8
0
 10
4.93844170298
 20
0.31286893008
 30
0.0
  0
VERTEX
  8
0
 10
4.91143625364
 20
0.374762629171
 30
0.0
  0
VERTEX
  8
0
 10
4.87958380969
 20
0.436286482793
 30
0.0
  0
VERTEX
  8
0
 10
4.84291580564
 20
0.49737977433
 30
0.0
  0
VERTEX
  8
0
 10
4.80146842838
 20
0.557982212078
 30
0.0
  0
VERTEX
  8
0
 10
4.75528258148
 20
0.61803398875
 30
0.0
  0
VERTEX
  8
0
 10
4.70440384477
 20
0.677475840491
 30
0.0
  0
VERTEX
  8
0
 10
4.64888242944
 20
0.736249105369
 30
0.0
  0
VERTEX
  8
0
 10
4.58877312842
 20
0.79429578127
 30
0.0
  0
VERTEX
  8
0
 10
4.52413526233
 20
0.85155858313
 30
0.0
  0
VERTEX
  8
0
 10
4.45503262094
 20
0.907980999479
 30
0.0
  0
VERTEX
  8
0
 10
4.38153340022
 20
0.963507348203
 30
0.0
  0
VERTEX
  8
0
 10
4.30371013502
 20
1.0180828315
 30
0.0
  0
VERTEX
  8
0
 10
4.22163962751
 20
1.07165358996
 30
0.0
  0
VERTEX
  8
0
 10
4.13540287137
 20
1.1241667557
 30
0.0
  0
VERTEX
  8
0
 10
4.04508497187
 20
1.17557050458
 30
0.0
  0
VERTEX
  8
0
 10
3.95077506188
 20
1.22581410731
 30
0.0
  0
VERTEX
  8
0
 10
3.85256621388
 20
1.2748479795
 30
0.0
  0
VERTEX
  8
0
 10
3.75055534815
 20
1.32262373065
 30
0.0
  0
VERTEX
  8
0
 10
3.64484313711
 20
1.36909421186
 30
0.0
  0
VERTEX
  8
0
 10
3.53553390593
 20
1.41421356237
 30
0.0
  0
VERTEX
  8
0
 10
3.42273552964
 20
1.45793725484
 30
0.0
  0
VERTEX
  8
0
 10
3.30655932662
 20
1.50022213926
 30
0.0
  0
VERTEX
  8
0
 10
3.18711994874
 20
1.54102648555
 30
0.0
  0
VERTEX
  8
0
 10
3.06453526826
 20
1.58031002475
 30
0.0
  0
VERTEX
  8
0
 10
2.93892626146
 20
1.61803398875
 30
0.0
  0
VERTEX
  8
0
 10
2.81041688926
 20
1.65416114855
 30
0.0
  0
VERTEX
  8
0
 10
2.67913397489
 20
1.688655851
 30
0.0
  0
VERTEX
  8
0
 10
2.54520707875
 20
1.72148405401
 30
0.0
  0
VERTEX
  8
0
 10
2.40876837051
 20
1.75261336009
 30
0.0
  0
VERTEX
  8
0
 10
2.2699524987
 20
1.78201304838
 30
0.0
  0
VERTEX
  8
0
 10
2.12889645783
 20
1.80965410493
 30
0.0
  0
VERTEX
  8
0
 10
1.98573945317
 20
1.83550925137
 30
0.0
  0
VERTEX
  8
0
 10
1.84062276342
 20
1.85955297178
 30
0.0
  0
VERTEX
  8
0
 10
1.69368960123
 20
1.88176153791
 30
0.0
  0
VERTEX
  8
0
 10
1.54508497187
 20
1.90211303259
 30
0.0
  0
VERTEX
  8
0
 10
1.3949555302
 20
1.92058737135
 30
0.0
  0
VERTEX
  8
0
 10
1.24344943582
 20
1.93716632226
 30
0.0
  0
VERTEX
  8
0
 10
1.09071620698
 20
1.95183352388
 30
0.0
  0
VERTEX
  8
0
 10
0.936906572929
 20
1.96457450146
 30
0.0
  0
VERTEX
  8
0
 10
0.782172325201
 20
1.97537668119
 30
0.0
  0
VERTEX
  8
0
 10
0.626666167822
 20
1.98422940263
 30
0.0
  0
VERTEX
  8
0
 10
0.470541566593
 20
1.99112392921
 30
0.0
  0
VERTEX
  8
0
 10
0.313952597647
 20
1.99605345686
 30
0.0
  0
VERTEX
  8
0
 10
0.157053795391
 20
1.99901312073
 30
0.0
  0
VERTEX
  8
0
 10
3.06161699787e-16
 20
2.0
 30
0.0
  0
VERTEX
  8
0
 10
-0.157053795391
 20
1.99901312073
 30
0.0
  0
VERTEX
  8
0
 10
-0.313952597647
 20
1.99605345686
 30
0.0
  0
VERTEX
  8
0
 10
-0.470541566593
 20
1.99112392921
 30
0.0
  0
VERTEX
  8
0
 10
-0.626666167822
 20
1.98422940263
 30
0.0
  0
VERTEX
  8
0
 10
-0.782172325201
 20
1.97537668119
 30
0.0
  0
VERTEX
  8
0
 10
-0.936906572929
 20
1.96457450146
 30
0.0
  0
VERTEX
  8
0
 10
-1.09071620698
 20
1.95183352388
 30
0.0
  0
VERTEX
  8
0
 10
-1.24344943582
 20
1.93716632226
 30
0.0
  0
VERTEX
  8
0
 10
-1.3949555302
 20
1.92058737135
 30
0.0
  0
VERTEX
  8
0
 10
-1.54508497187
 20
1.90211303259
 30
0.0
  0
VERTEX
  8
0
 10
-1.69368960123
 20
1.88176153791
 30
0.0
  0
VERTEX
  8
0
 10
-1.84062276342
 20
1.85955297178
 30
0.0
  0
VERTEX
  8
0
 10
-1.98573945317
 20
1.83550925137
 30
0.0
  0
VERTEX
  8
0
 10
-2.12889645783
 20
1.80965410493
 30
0.0
  0
VERTEX
  8
0
 10
-2.2699524987
 20
1.78201304838
 30
0.0
  0
VERTEX
  8
0
 10
-2.40876837051
 20
1.75261336009
 30
0.0
  0
VERTEX
  8
0
 10
-2.54520707875
 20
1.72148405401
 30
0.0
  0
VERTEX
  8
0
 10
-2.67913397489
 20
1.688655851
 30
0.0
  0
VERTEX
  8
0
 10
-2.81041688926
 20
1.65416114855
 30
0.0
  0
VERTEX
  8
0
 10
-2.93892626146
 20
1.61803398875
 30
0.0
  0
VERTEX
  8
0
 10
-3.06453526826
 20
1.58031002475
 30
0.0
  0
VERTEX
  8
0
 10
-3.18711994874
 20
1.54102648555
 30
0.0
  0
VERTEX
  8
0
 10
-3.30655932662
 20
1.50022213926
 30
0.0
  0
VERTEX
  8
0
 10
-3.42273552964
 20
1.45793725484
 30
0.0
  0
VERTEX
  8
0
 10
-3.53553390593
 20
1.41421356237
 30
0.0
  0
VERTEX
  8
0
 10
-3.64484313711
 20
1.36909421186
 30
0.0
  0
VERTEX
  8
0
 10
-3.75055534815
 20
1.32262373065
 30
0.0
  0
VERTEX
  8
0
 10
-3.85256621388
 20
1.2748479795
 30
0.0
  0
VERTEX
  8
0
 10
-3.95077506188
 20
1.22581410731
 30
0.0
  0
VERTEX
  8
0
 10
-4.04508497187
 20
1.17557050458
 30
0.0
  0
VERTEX
  8
0
 10
-4.13540287137
 20
1.1241667557
 30
0.0
  0
VERTEX
  8
0
 10
-4.22163962751
 20
1.07165358996
 30
0.0
  0
VERTEX
  8
0
 10
-4.30371013502
 20
1.0180828315
 30
0.0
  0
VERTEX
  8
0
 10
-4.38153340022
 20
0.963507348203
 30
0.0
  0
VERTEX
  8
0
 10
-4.45503262094
 20
0.907980999479
 30
0.0
  0
VERTEX
  8
0
 10
-4.52413526233
 20
0.85155858313
 30
0.0
  0
VERTEX
  8
0
 10
-4.58877312842
 20
0.79429578127
 30
0.0
  0
VERTEX
  8
0
 10
-4.64888242944
 20
0.736249105369
 30
0.0
  0
VERTEX
  8
0
 10
-4.70440384477
 20
0.677475840491
 30
0.0
  0
VERTEX
  8
0
 10
-4.75528258148
 20
0.61803398875
 30
0.0
  0
VERTEX
  8
0
 10
-4.80146842838
 20
0.557982212078
 30
0.0
  0
VERTEX
  8
0
 10
-4.84291580564
 20
0.49737977433
 30
0.0
  0
VERTEX
  8
0
 10
-4.87958380969
 20
0.436286482793
 30
0.0
  0
VERTEX
  8
0
 10
-4.91143625364
 20
0.374762629171
 30
0.0
  0
VERTEX
  8
0
 10
-4.93844170298
 20
0.31286893008
 30
0.0
  0
VERTEX
  8
0
 10
-4.96057350657
 20
0.250666467129
 30
0.0
  0
VERTEX
  8
0
 10
-4.97780982302
 20
0.188216626637
 30
0.0
  0
VERTEX
  8
0
 10
-4.99013364214
 20
0.125581039059
 30
0.0
  0
VERTEX
  8
0
 10
-4.99753280183
 20
0.0628215181563
 30
0.0
  0
VERTEX
  8
0
 10
-5.0
 20
2.44929359829e-16
 30
0.0
  0
VERTEX
  8
0
 10
-4.99753280183
 20
-0.0628215181563
 30
0.0
  0
VERTEX
  8
0
 10
-4.99013364214
 20
-0.125581039059
 30
0.0
  0
VERTEX
  8
0
 10
-4.97780982302
 20
-0.188216626637
 30
0.0
  0
VERTEX
  8
0
 10
-4.96057350657
 20
-0.250666467129
 30
0.0
  0
VERTEX
  8
0
 10
-4.93844170298
 20
-0.31286893008
 30
0.0
  0
VERTEX
  8
0
 10
-4.91143625364
 20
-0.374762629171
 30
0.0
  0
VERTEX
  8
0
 10
-4.87958380969
 20
-0.436286482793
 30
0.0
  0
VERTEX
  8
0
 10
-4.84291580564
 20
-0.49737977433
 30
0.0
  0
VERTEX
  8
0
 10
-4.80146842838
 20
-0.557982212078
 30
0.0
  0
VERTEX
  8
0
 10
-4.75528258148
 20
-0.61803398875
 30
0.0
  0
VERTEX
  8
0
 10
-4.70440384477
 20
-0.677475840491
 30
0.0
  0
VERTEX
  8
0
 10
-4.64888242944
 20
-0.736249105369
 30
0.0
  0
VERTEX
  8
0
 10
-4.58877312842
 20
-0.79429578127
 30
0.0
  0
VERTEX
  8
0
 10
-4.52413526233
 20
-0.85155858313
 30
0.0
  0
VERTEX
  8
0
 10
-4.45503262094
 20
-0.907980999479
 30
0.0
  0
VERTEX
  8
0
 10
-4.38153340022
 20
-0.963507348203
 30
0.0
  0
VERTEX
  8
0
 10
-4.30371013502
 20
-1.0180828315
 30
0.0
  0
VERTEX
  8
0
 10
-4.22163962751
 20
-1.07165358996
 30
0.0
  0
VERTEX
  8
0
 10
-4.13540287137
 20
-1.1241667557
 30
0.0
  0
VERTEX
  8
0
 10
-4.04508497187
 20
-1.17557050458
 30
0.0
  0
VERTEX
  8
0
 10
-3.95077506188
 20
-1.22581410731
 30
0.0
  0
VERTEX
  8
0
 10
-3.85256621388
 20
-1.2748479795
 30
0.0
  0
VERTEX
  8
0
 10
-3.75055534815
 20
-1.32262373065
 30
0.0
  0
VERTEX
  8
0
 10
-3.64484313711
 20
-1.36909421186
 30
0.0
  0
VERTEX
  8
0
 10
-3.53553390593
 20
-1.41421356237
 30
0.0
  0
VERTEX
  8
0
 10
-3.42273552964
 20
-1.45793725484
 30
0.0
  0
VERTEX
  8
0
 10
-3.30655932662
 20
-1.50022213926
 30
0.0
  0
VERTEX
  8
0
 10
-3.18711994874
 20
-1.54102648555
 30
0.0
  0
VERTEX
  8
0
 10
-3.06453526826
 20
-1.58031002475
 30
0.0
  0
VERTEX
  8
0
 10
-2.93892626146
 20
-1.61803398875
 30
0.0
  0
VERTEX
  8
0
 10
-2.81041688926
 20
-1.65416114855
 30
0.0
  0
VERTEX
  8
0
 10
-2.67913397489
 20
-1.688655851
 30
0.0
  0
VERTEX
  8
0
 10
-2.54520707875
 20
-1.72148405401
 30
0.0
  0
VERTEX
  8
0
 10
-2.40876837051
 20
-1.75261336009
 30
0.0
  0
VERTEX
  8
0
 10
-2.2699524987
 20
-1.78201304838
 30
0.0
  0
VERTEX
  8
0
 10
-2.12889645783
 20
-1.80965410493
 30
0.0
  0
VERTEX
  8
0
 10
-1.98573945317
 20
-1.83550925137
 30
0.0
  0
VERTEX
  8
0
 10
-1.84062276342
 20
-1.85955297178
 30
0.0
  0
VERTEX
  8
0
 10
-1.69368960123
 20
-1.88176153791
 30
0.0
  0
VERTEX
  8
0
 10
-1.54508497187
 20
-1.90211303259
 30
0.0
  0
VERTEX
  8
0
 10
-1.3949555302
 20
-1.92058737135
 30
0.0
  0
VERTEX
  8
0
 10
-1.24344943582
 20
-1.93716632226
 30
0.0
  0
VERTEX
  8
0
 10
-1.09071620698
 20
-1.95183352388
 30
0.0
  0
VERTEX
  8
0
 10
-0.936906572929
 20
-1.96457450146
 30
0.0
  0
VERTEX
  8
0
 10
-0.782172325201
 20
-1.97537668119
 30
0.0
  0
VERTEX
  8
0
 10
-0.626666167822
 20
-1.98422940263
 30
0.0
  0
VERTEX
  8
0
 10
-0.470541566593
 20
-1.99112392921
 30
0.0
  0
VERTEX
  8
0
 10
-0.313952597647
 20
-1.99605345686
 30
0.0
  0
VERTEX
  8
0
 10
-0.157053795391
 20
-1.99901312073
 30
0.0
  0
VERTEX
  8
0
 10
-9.18485099361e-16
 20
-2.0
 30
0.0
  0
VERTEX
  8
0
 10
0.157053795391
 20
-1.99901312073
 30
0.0
  0
VERTEX
  8
0
 10
0.313952597647
 20
-1.99605345686
 30
0.0
  0
VERTEX
  8
0
 10
0.470541566593
 20
-1.99112392921
 30
0.0
  0
VERTEX
  8
0
 10
0.626666167822
 20
-1.98422940263
 30
0.0
  0
VERTEX
  8
0
 10
0.782172325201
 20
-1.97537668119
 30
0.0
  0
VERTEX
  8
0
 10
0.936906572929
 20
-1.96457450146
 30
0.0
  0
VERTEX
  8
0
 10
1.09071620698
 20
-1.95183352388
 30
0.0
  0
VERTEX
  8
0
 10
1.24344943582
 20
-1.93716632226
 30
0.0
  0
VERTEX
  8
0
 10
1.3949555302
 20
-1.92058737135
 30
0.0
  0
VERTEX
  8
0
 10
1.54508497187
 20
-1.90211303259
 30
0.0
  0
VERTEX
  8
0
 10
1.69368960123
 20
-1.88176153791
 30
0.0
  0
VERTEX
  8
0
 10
1.84062276342
 20
-1.85955297178
 30
0.0
  0
VERTEX
  8
0
 10
1.98573945317
 20
-1.83550925137
 30
0.0
  0
VERTEX
  8
0
 10
2.12889645783
 20
-1.80965410493
 30
0.0
  0
VERTEX
  8
0
 10
2.2699524987
 20
-1.78201304838
 30
0.0
  0
VERTEX
  8
0
 10
2.40876837051
 20
-1.75261336009
 30
0.0
  0
VERTEX
  8
0
 10
2.54520707875
 20
-1.72148405401
 30
0.0
  0
VERTEX
  8
0
 10
2.67913397489
 20
-1.688655851
 30
0.0
  0
VERTEX
  8
0
 10
2.81041688926
 20
-1.65416114855
 30
0.0
  0
VERTEX
  8
0
 10
2.93892626146
 20
-1.61803398875
 30
0.0
  0
VERTEX
  8
0
 10
3.06453526826
 20
-1.58031002475
 30
0.0
  0
VERTEX
  8
0
 10
3.18711994874
 20
-1.54102648555
 30
0.0
  0
VERTEX
  8
0
 10
3.30655932662
 20
-1.50022213926
 30
0.0
  0
VERTEX
  8
0
 10
3.42273552964
 20
-1.45793725484
 30
0.0
  0
VERTEX
  8
0
 10
3.53553390593
 20
-1.41421356237
 30
0.0
  0
VERTEX
  8
0
 10
3.64484313711
 20
-1.36909421186
 30
0.0
  0
VERTEX
  8
0
 10
3.75055534815
 20
-1.32262373065
 30
0.0
  0
VERTEX
  8
0
 10
3.85256621388
 20
-1.2748479795
 30
0.0
  0
VERTEX
  8
0
 10
3.95077506188
 20
-1.22581410731
 30
0.0
  0
VERTEX
  8
0
 10
4.04508497187
 20
-1.17557050458
 30
0.0
  0
VERTEX
  8
0
 10
4.13540287137
 20
-1.1241667557
 30
0.0
  0
VERTEX
  8
0
 10
4.22163962751
 20
-1.07165358996
 30
0.0
  0
VERTEX
  8
0
 10
4.30371013502
 20
-1.0180828315
 30
0.0
  0
VERTEX
  8
0
 10
4.38153340022
 20
-0.963507348203
 30
0.0
  0
VERTEX
  8
0
 10
4.45503262094
 20
-0.907980999479
 30
0.0
  0
VERTEX
  8
0
 10
4.52413526233
 20
-0.85155858313
 30
0.0
  0
VERTEX
  8
0
 10
4.58877312842
 20
-0.79429578127
 30
0.0
  0
VERTEX
  8
0
 10
4.64888242944
 20
-0.736249105369
 30
0.0
  0
VERTEX
  8
0
 10
4.70440384477
 20
-0.677475840491
 30
0.0
  0
VERTEX
  8
0
 10
4.75528258148
 20
-0.61803398875
 30
0.0
  0
VERTEX
  8
0
 10
4.80146842838
 20
-0.557982212078
 30
0.0
  0
VERTEX
  8
0
 10
4.84291580564
 20
-0.49737977433
 30
0.0
  0
VERTEX
  8
0
 10
4.87958380969
 20
-0.436286482793
 30
0.0
  0
VERTEX
  8
0
 10
4.91143625364
 20
-0.374762629171
 30
0.0
  0
VERTEX
  8
0
 10
4.93844170298
 20
-0.31286893008
 30
0.0
  0
VERTEX
  8
0
 10
4.96057350657
 20
-0.250666467129
 30
0.0
  0
VERTEX
  8
0
 10
4.97780982302
 20
-0.188216626637
 30
0.0
  0
VERTEX
  8
0
 10
4.99013364214
 20
-0.125581039059
 30
0.0
  0
VERTEX
  8
0
 10
4.99753280183
 20
-0.0628215181563
 30
0.0
  0
SEQEND
  0
POLYLINE
 62
256
  8
0
 66
1
 10
0.0
 20
0.0
 30
0.0
 70
9
  0
VERTEX
  8
0
 10
5.0
 20
0.0
 30
0.0
  0
VERTEX
  8
0
 10
4.99753280183
 20
0.0942322772344
 30
0.0
  0
VERTEX
  8
0
 10
4.99013364214
 20
0.188371558588
 30
0.0
  0
VERTEX
  8
0
 10
4.97780982302
 20
0.282324939956
 30
0.0
  0
VERTEX
  8
0
 10
4.96057350657
 20
0.375999700693
 30
0.0
  0
VERTEX
  8
0
 10
4.93844170298
 20
0.469303395121
 30
0.0
  0
VERTEX
  8
0
 10
4.91143625364
 20
0.562143943757
 30
0.0
  0
VERTEX
  8
0
 10
4.87958380969
 20
0.65442972419
 30
0.0
  0
VERTEX
  8
0
 10
4.84291580564
 20
0.746069661495
 30
0.0
  0
VERTEX
  8
0
 10
4.80146842838
 20
0.836973318118
 30
0.0
  0
VERTEX
  8
0
 10
4.75528258148
 20
0.927050983125
 30
0.0
  0
VERTEX
  8
0
 10
4.70440384477
 20
1.01621376074
 30
0.0
  0
VERTEX
  8
0
 10
4.64888242944
 20
1.10437365805
 30
0.0
  0
VERTEX
  8
0
 10
4.58877312842
 20
1.1914436719
 30
0.0
  0
VERTEX
  8
0
 10
4.52413526233
 20
1.2773378747
 30
0.0
  0
VERTEX
  8
0
 10
4.45503262094
 20
1.36197149922
 30
0.0
  0
VERTEX
  8
0
 10
4.38153340022
 20
1.44526102231
 30
0.0
  0
VERTEX
  8
0
 10
4.30371013502
 20
1.52712424725
 30
0.0
  0
VERTEX
  8
0
 10
4.22163962751
 20
1.60748038494
 30
0.0
  0
VERTEX
  8
0
 10
4.13540287137
 20
1.68625013356
 30
0.0
  0
VERTEX
  8
0
 10
4.04508497187
 20
1.76335575688
 30
0.0
  0
VERTEX
  8
0
 10
3.95077506188
 20
1.83872116096
 30
0.0
  0
VERTEX
  8
0
 10
3.85256621388
 20
1.91227196925
 30
0.0
  0
VERTEX
  8
0
 10
3.75055534815
 20
1.98393559597
 30
0.0
  0
VERTEX
  8
0
 10
3.64484313711
 20
2.05364131779
 30
0.0
  0
VERTEX
  8
0
 10
3.53553390593
 20
2.12132034356
 30
0.0
  0
VERTEX
  8
0
 10
3.42273552964
 20
2.18690588226
 30
0.0
  0
VERTEX
  8
0
 10
3.30655932662
 20
2.25033320889
 30
0.0
  0
VERTEX
  8
0
 10
3.18711994874
 20
2.31153972833
 30
0.0
  0
VERTEX
  8
0
 10
3.06453526826
 20
2.37046503713
 30
0.0
  0
VERTEX
  8
0
 10
2.93892626146
 20
2.42705098312
 30
0.0
  0
VERTEX
  8
0
 10
2.81041688926
 20
2.48124172282
 30
0.0
  0
VERTEX
  8
0
 10
2.67913397489
 20
2.53298377651
 30
0.0
  0
VERTEX
  8
0
 10
2.54520707875
 20
2.58222608101
 30
0.0
  0
VERTEX
  8
0
 10
2.40876837051
 20
2.62892004013
 30
0.0
  0
VERTEX
  8
0
 10
2.2699524987
 20
2.67301957257
 30
0.0
  0
VERTEX
  8
0
 10
2.12889645783
 20
2.7144811574
 30
0.0
  0
VERTEX
  8
0
 10
1.98573945317
 20
2.75326387705
 30
0.0
  0
VERTEX
  8
0
 10
1.84062276342
 20
2.78932945766
 30
0.0
  0
VERTEX
  8
0
 10
1.69368960123
 20
2.82264230686
 30
0.0
  0
VERTEX
  8
0
 10
1.54508497187
 20
2.85316954889
 30
0.0
  0
VERTEX
  8
0
 10
1.3949555302
 20
2.88088105703
 30
0.0
  0
VERTEX
  8
0
 10
1.24344943582
 20
2.90574948339
 30
0.0
  0
VERTEX
  8
0
 10
1.09071620698
 20
2.92775028582
 30
0.0
  0
VERTEX
  8
0
 10
0.936906572929
 20
2.94686175219
 30
0.0
  0
VERTEX
  8
0
 10
0.782172325201
 20
2.96306502179
 30
0.0
  0
VERTEX
  8
0
 10
0.626666167822
 20
2.97634410394
 30
0.0
  0
VERTEX
  8
0
 10
0.470541566593
 20
2.98668589381
 30
0.0
  0
VERTEX
  8
0
 10
0.313952597647
 20
2.99408018528
 30
0.0
  0
VERTEX
  8
0
 10
0.157053795391
 20
2.9985196811
 30
0.0
  0
VERTEX
  8
0
 10
3.06161699787e-16
 20
3.0
 30
0.0
  0
VERTEX
  8
0
 10
-0.157053795391
 20
2.9985196811
 30
0.0
  0
VERTEX
  8
0
 10
-0.313952597647
 20
2.99408018528
 30
0.0
  0
VERTEX
  8
0
 10
-0.470541566593
 20
2.98668589381
 30
0.0
  0
VERTEX
  8
0
 10
-0.626666167822
 20
2.97634410394
 30
0.0
  0
VERTEX
  8
0
 10
-0.782172325201
 20
2.96306502179
 30
0.0
  0
VERTEX
  8
0
 10
-0.936906572929
 20
2.94686175219
 30
0.0
  0
VERTEX
  8
0
 10
-1.09071620698
 20
2.92775028582
 30
0.0
  0
VERTEX
  8
0
 10
-1.24344943582
 20
2.90574948339
 30
0.0
  0
VERTEX
  8
0
 10
-1.3949555302
 20
2.88088105703
 30
0.0
  0
VERTEX
  8
0
 10
-1.54508497187
 20
2.85316954889
 30
0.0
  0
VERTEX
  8
0
 10
-1.69368960123
 20
2.82264230686
 30
0.0
  0
VERTEX
  8
0
 10
-1.84062276342
 20
2.78932945766
 30
0.0
  0
VERTEX
  8
0
 10
-1.98573945317
 20
2.75326387705
 30
0.0
  0
VERTEX
  8
0
 10
-2.12889645783
 20
2.7144811574
 30
0.0
  0
VERTEX
  8
0
 10
-2.2699524987
 20
2.67301957257
 30
0.0
  0
VERTEX
  8
0
 10
-2.40876837051
 20
2.62892004013
 30
0.0
  0
VERTEX
  8
0
 10
-2.54520707875
 20
2.58222608101
 30
0.0
  0
VERTEX
  8
0
 10
-2.67913397489
 20
2.53298377651
 30
0.0
  0
VERTEX
  8
0
 10
-2.81041688926
 20
2.48124172282
 30
0.0
  0
VERTEX
  8
0
 10
-2.93892626146
 20
2.42705098312
 30
0.0
  0
VERTEX
  8
0
 10
-3.06453526826
 20
2.37046503713
 30
0.0
  0
VERTEX
  8
0
 10
-3.18711994874
 20
2.31153972833
 30
0.0
  0
VERTEX
  8
0
 10
-3.30655932662
 20
2.25033320889
 30
0.0
  0
VERTEX
  8
0
 10
-3.42273552964
 20
2.18690588226
 30
0.0
  0
VERTEX
  8
0
 10
-3.53553390593
 20
2.12132034356
 30
0.0
  0
VERTEX
  8
0
 10
-3.64484313711
 20
2.05364131779
 30
0.0
  0
VERTEX
  8
0
 10
-3.75055534815
 20
1.98393559597
 30
0.0
  0
VERTEX
  8
0
 10
-3.85256621388
 20
1.91227196925
 30
0.0
  0
VERTEX
  8
0
 10
-3.95077506188
 20
1.83872116096
 30
0.0
  0
VERTEX
  8
0
 10
-4.04508497187
 20
1.76335575688
 30
0.0
  0
VERTEX
  8
0
 10
-4.13540287137
 20
1.68625013356
 30
0.0
  0
VERTEX
  8
0
 10
-4.22163962751
 20
1.60748038494
 30
0.0
  0
VERTEX
  8
0
 10
-4.30371013502
 20
1.52712424725
 30
0.0
  0
VERTEX
  8
0
 10
-4.38153340022
 20
1.44526102231
 30
0.0
  0
VERTEX
  8
0
 10
-4.45503262094
 20
1.36197149922
 30
0.0
  0
VERTEX
  8
0
 10
-4.52413526233
 20
1.2773378747
 30
0.0
  0
VERTEX
  8
0
 10
-4.58877312842
 20
1.1914436719
 30
0.0
  0
VERTEX
  8
0
 10
-4.64888242944
 20
1.10437365805
 30
0.0
  0
VERTEX
  8
0
 10
-4.70440384477
 20
1.01621376074
 30
0.0
  0
VERTEX
  8
0
 10
-4.75528258148
 20
0.927050983125
 30
0.0
  0
VERTEX
  8
0
 10
-4.80146842838
 20
0.836973318118
 30
0.0
  0
VERTEX
  8
0
 10
-4.84291580564
 20
0.746069661495
 30
0.0
  0
VERTEX
  8
0
 10
-4.87958380969
 20
0.65442972419
 30
0.0
  0
VERTEX
  8
0
 10
-4.91143625364
 20
0.562143943757
 30
0.0
  0
VERTEX
  8
0
 10
-4.93844170298
 20
0.469303395121
 30
0.0
  0
VERTEX
  8
0
 10
-4.96057350657
 20
0.375999700693
 30
0.0
  0
VERTEX
  8
0
 10
-4.97780982302
 20
0.282324939956
 30
0.0
  0
VERTEX
  8
0
 10
-4.99013364214
 20
0.188371558588
 30
0.0
  0
VERTEX
  8
0
 10
-4.99753280183
 20
0.0942322772344
 30
0.0
  0
VERTEX
  8
0
 10
-5.0
 20
3.67394039744e-16
 30
0.0
  0
VERTEX
  8
0
 10
-4.99753280183
 20
-0.0942322772344
 30
0.0
  0
VERTEX
  8
0
 10
-4.99013364214
 20
-0.188371558588
 30
0.0
  0
VERTEX
  8
0
 10
-4.97780982302
 20
-0.282324939956
 30
0.0
  0
VERTEX
  8
0
 10
-4.96057350657
 20
-0.375999700693
 30
0.0
  0
VERTEX
  8
0
 10
-4.93844170298
 20
-0.469303395121
 30
0.0
  0
VERTEX
  8
0
 10
-4.91143625364
 20
-0.562143943757
 30
0.0
  0
VERTEX
  8
0
 10
-4.87958380969
 20
-0.65442972419
 30
0.0
  0
VERTEX
  8
0
 10
-4.84291580564
 20
-0.746069661495
 30
0.0
  0
VERTEX
  8
0
 10
-4.80146842838
 20
-0.836973318118
 30
0.0
  0
VERTEX
  8
0
 10
-4.75528258148
 20
-0.927050983125
 30
0.0
  0
VERTEX
  8
0
 10
-4.70440384477
 20
-1.01621376074
 30
0.0
  0
VERTEX
  8
0
 10
-4.64888242944
 20
-1.10437365805
 30
0.0
  0
VERTEX
  8
0
 10
-4.58877312842
 20
-1.1914436719
 30
0.0
  0
VERTEX
  8
0
 10
-4.52413526233
 20
-1.2773378747
 30
0.0
  0
VERTEX
  8
0
 10
-4.45503262094
 20
-1.36197149922
 30
0.0
  0
VERTEX
  8
0
 10
-4.38153340022
 20
-1.44526102231
 30
0.0
  0
VERTEX
  8
0
 10
-4.30371013502
 20
-1.52712424725
 30
0.0
  0
VERTEX
  8
0
 10
-4.22163962751
 20
-1.60748038494
 30
0.0
  0
VERTEX
  8
0
 10
-4.13540287137
 20
-1.68625013356
 30
0.0
  0
VERTEX
  8
0
 10
-4.04508497187
 20
-1.76335575688
 30
0.0
  0
VERTEX
  8
0
 10
-3.95077506188
 20
-1.83872116096
 30
0.0
  0
VERTEX
  8
0
 10
-3.85256621388
 20
-1.91227196925
 30
0.0
  0
VERTEX
  8
0
 10
-3.75055534815
 20
-1.98393559597
 30
0.0
  0
VERTEX
  8
0
 10
-3.64484313711
 20
-2.05364131779
 30
0.0
  0
VERTEX
  8
0
 10
-3.53553390593
 20
-2.12132034356
 30
0.0
  0
VERTEX
  8
0
 10
-3.42273552964
 20
-2.18690588226
 30
0.0
  0
VERTEX
  8
0
 10
-3.30655932662
 20
-2.25033320889
 30
0.0
  0
VERTEX
  8
0
 10
-3.18711994874
 20
-2.31153972833
 30
0.0
  0
VERTEX
  8
0
 10
-3.06453526826
 20
-2.37046503713
 30
0.0
  0
VERTEX
  8
0
 10
-2.93892626146
 20
-2.42705098312
 30
0.0
  0
VERTEX
  8
0
 10
-2.81041688926
 20
-2.48124172282
 30
0.0
  0
VERTEX
  8
0
 10
-2.67913397489
 20
-2.53298377651
 30
0.0
  0
VERTEX
  8
0
 10
-2.54520707875
 20
-2.58222608101
 30
0.0
  0
VERTEX
  8
0
 10
-2.40876837051
 20
-2.62892004013
 30
0.0
  0
VERTEX
  8
0
 10
-2.2699524987
 20
-2.67301957257
 30
0.0
  0
VERTEX
  8
0
 10
-2.12889645783
 20
-2.7144811574
 30
0.0
  0
VERTEX
  8
0
 10
-1.98573945317
 20
-2.75326387705
 30
0.0
  0
VERTEX
  8
0
 10
-1.84062276342
 20
-2.78932945766
 30
0.0
  0
VERTEX
  8
0
 10
-1.69368960123
 20
-2.82264230686
 30
0.0
  0
VERTEX
  8
0
 10
-1.54508497187
 20
-2.85316954889
 30
0.0
  0
VERTEX
  8
0
 10
-1.3949555302
 20
-2.88088105703
 30
0.0
  0
VERTEX
  8
0
 10
-1.24344943582
 20
-2.90574948339
 30
0.0
  0
VERTEX
  8
0
 10
-1.09071620698
 20
-2.92775028582
 30
0.0
  0
VERTEX
  8
0
 10
-0.936906572929
 20
-2.94686175219
 30
0.0
  0
VERTEX
  8
0
 10
-0.782172325201
 20
-2.96306502179
 30
0.0
  0
VERTEX
  8
0
 10
-0.626666167822
 20
-2.97634410394
 30
0.0
  0
VERTEX
  8
0
 10
-0.470541566593
 20
-2.98668589381
 30
0.0
  0
VERTEX
  8
0
 10
-0.313952597647
 20
-2.99408018528
 30
0.0
  0
VERTEX
  8
0
 10
-0.157053795391
 20
-2.9985196811
 30
0.0
  0
VERTEX
  8
0
 10
-9.18485099361e-16
 20
-3.0
 30
0.0
  0
VERTEX
  8
0
 10
0.157053795391
 20
-2.9985196811
 30
0.0
  0
VERTEX
  8
0
 10
0.313952597647
 20
-2.99408018528
 30
0.0
  0
VERTEX
  8
0
 10
0.470541566593
 20
-2.98668589381
 30
0.0
  0
VERTEX
  8
0
 10
0.626666167822
 20
-2.97634410394
 30
0.0
  0
VERTEX
  8
0
 10
0.782172325201
 20
-2.96306502179
 30
0.0
  0
VERTEX
  8
0
 10
0.936906572929
 20
-2.94686175219
 30
0.0
  0
VERTEX
  8
0
 10
1.09071620698
 20
-2.92775028582
 30
0.0
  0
VERTEX
  8
0
 10
1.24344943582
 20
-2.90574948339
 30
0.0
  0
VERTEX
  8
0
 10
1.3949555302
 20
-2.88088105703
 30
0.0
  0
VERTEX
  8
0
 10
1.54508497187
 20
-2.85316954889
 30
0.0
  0
VERTEX
  8
0
 10
1.69368960123
 20
-2.82264230686
 30
0.0
  0
VERTEX
  8
0
 10
1.84062276342
 20
-2.78932945766
 30
0.0
  0
VERTEX
  8
0
 10
1.98573945317
 20
-2.75326387705
 30
0.0
  0
VERTEX
  8
0
 10
2.12889645783
 20
-2.7144811574
 30
0.0
  0
VERTEX
  8
0
 10
2.2699524987
 20
-2.67301957257
 30
0.0
  0
VERTEX
  8
0
 10
2.40876837051
 20
-2.62892004013
 30
0.0
  0
VERTEX
  8
0
 10
2.54520707875
 20
-2.58222608101
 30
0.0
  0
VERTEX
  8
0
 10
2.67913397489
 20
-2.53298377651
 30
0.0
  0
VERTEX
  8
0
 10
2.81041688926
 20
-2.48124172282
 30
0.0
  0
VERTEX
  8
0
 10
2.93892626146
 20
-2.42705098312
 30
0.0
  0
VERTEX
  8
0
 10
3.06453526826
 20
-2.37046503713
 30
0.0
  0
VERTEX
  8
0
 10
3.18711994874
 20
-2.31153972833
 30
0.0
  0
VERTEX
  8
0
 10
3.30655932662
 20
-2.25033320889
 30
0.0
  0
VERTEX
  8
0
 10
3.42273552964
 20
-2.18690588226
 30
0.0
  0
VERTEX
  8
0
 10
3.53553390593
 20
-2.12132034356
 30
0.0
  0
VERTEX
  8
0
 10
3.64484313711
 20
-2.05364131779
 30
0.0
  0
VERTEX
  8
0
 10
3.75055534815
 20
-1.98393559597
 30
0.0
  0
VERTEX
  8
0
 10
3.85256621388
 20
-1.91227196925
 30
0.0
  0
VERTEX
  8
0
 10
3.95077506188
 20
-1.83872116096
 30
0.0
  0
VERTEX
  8
0
 10
4.04508497187
 20
-1.76335575688
 30
0.0
  0
VERTEX
  8
0
 10
4.13540287137
 20
-1.68625013356
 30
0.0
  0
VERTEX
  8
0
 10
4.22163962751
 20
-1.60748038494
 30
0.0
  0
VERTEX
  8
0
 10
4.30371013502
 20
-1.52712424725
 30
0.0
  0
VERTEX
  8
0
 10
4.38153340022
 20
-1.44526102231
 30
0.0
  0
VERTEX
  8
0
 10
4.45503262094
 20
-1.36197149922
 30
0.0
  0
VERTEX
  8
0
 10
4.52413526233
 20
-1.2773378747
 30
0.0
  0
VERTEX
  8
0
 10
4.58877312842
 20
-1.1914436719
 30
0.0
  0
VERTEX
  8
0
 10
4.64888242944
 20
-1.10437365805
 30
0.0
  0
VERTEX
  8
0
 10
4.70440384477
 20
-1.01621376074
 30
0.0
  0
VERTEX
  8
0
 10
4.75528258148
 20
-0.927050983125
 30
0.0
  0
VERTEX
  8
0
 10
4.80146842838
 20
-0.836973318118
 30
0.0
  0
VERTEX
  8
0
 10
4.84291580564
 20
-0.746069661495
 30
0.0
  0
VERTEX
  8
0
 10
4.87958380969
 20
-0.65442972419
 30
0.0
  0
VERTEX
  8
0
 10
4.91143625364
 20
-0.562143943757
 30
0.0
  0
VERTEX
  8
0
 10
4.93844170298
 20
-0.469303395121
 30
0.0
  0
VERTEX
  8
0
 10
4.96057350657
 20
-0.375999700693
 30
0.0
  0
VERTEX
  8
0
 10
4.97780982302
 20
-0.282324939956
 30
0.0
  0
VERTEX
  8
0
 10
4.99013364214
 20
-0.188371558588
 30
0.0
  0
VERTEX
  8
0
 10
4.99753280183
 20
-0.0942322772344
 30
0.0
  0
SEQEND
  0
LINE
  6
DASHDOT
 62
1
  8
0
 10
-7.0
 20
0.0
 30
0.0
 11
7.0
 21
0.0
 31
0.0
  0
LINE
  6
DASHDOT
 62
2
  8
0
 10
0.0
 20
-5.0
 30
0.0
 11
0.0
 21
5.0
 31
0.0
  0
POLYLINE
 62
256
  8
0
 66
1
 10
0.0
 20
0.0
 30
0.0
 70
9
  0
VERTEX
  8
0
 10
25.0
 20
0.0
 30
0.0
  0
VERTEX
  8
0
 10
24.9901336421
 20
0.125581039059
 30
0.0
  0
VERTEX
  8
0
 10
24.9605735066
 20
0.250666467129
 30
0.0
  0
VERTEX
  8
0
 10
24.9114362536
 20
0.374762629171
 30
0.0
  0
VERTEX
  8
0
 10
24.8429158056
 20
0.49737977433
 30
0.0
  0
VERTEX
  8
0
 10
24.7552825815
 20
0.61803398875
 30
0.0
  0
VERTEX
  8
0
 10
24.6488824294
 20
0.736249105369
 30
0.0
  0
VERTEX
  8
0
 10
24.5241352623
 20
0.85155858313
 30
0.0
  0
VERTEX
  8
0
 10
24.3815334002
 20
0.963507348203
 30
0.0
  0
VERTEX
  8
0
 10
24.2216396275
 20
1.07165358996
 30
0.0
  0
VERTEX
  8
0
 10
24.0450849719
 20
1.17557050458
 30
0.0
  0
VERTEX
  8
0
 10
23.8525662139
 20
1.2748479795
 30
0.0
  0
VERTEX
  8
0
 10
23.6448431371
 20
1.36909421186
 30
0.0
  0
VERTEX
  8
0
 10
23.4227355296
 20
1.45793725484
 30
0.0
  0
VERTEX
  8
0
 10
23.1871199487
 20
1.54102648555
 30
0.0
  0
VERTEX
  8
0
 10
22.9389262615
 20
1.61803398875
 30
0.0
  0
VERTEX
  8
0
 10
22.6791339749
 20
1.688655851
 30
0.0
  0
VERTEX
  8
0
 10
22.4087683705
 20
1.75261336009
 30
0.0
  0
VERTEX
  8
0
 10
22.1288964578
 20
1.80965410493
 30
0.0
  0
VERTEX
  8
0
 10
21.8406227634
 20
1.85955297178
 30
0.0
  0
VERTEX
  8
0
 10
21.5450849719
 20
1.90211303259
 30
0.0
  0
VERTEX
  8
0
 10
21.2434494358
 20
1.93716632226
 30
0.0
  0
VERTEX
  8
0
 10
20.9369065729
 20
1.96457450146
 30
0.0
  0
VERTEX
  8
0
 10
20.6266661678
 20
1.98422940263
 30
0.0
  0
VERTEX
  8
0
 10
20.3139525976
 20
1.99605345686
 30
0.0
  0
VERTEX
  8
0
 10
20.0
 20
2.0
 30
0.0
  0
VERTEX
  8
0
 10
19.6860474024
 20
1.99605345686
 30
0.0
  0
VERTEX
  8
0
 10
19.3733338322
 20
1.98422940263
 30
0.0
  0
VERTEX
  8
0
 10
19.0630934271
 20
1.96457450146
 30
0.0
  0
VERTEX
  8
0
 10
18.7565505642
 20
1.93716632226
 30
0.0
  0
VERTEX
  8
0
 10
18.4549150281
 20
1.90211303259
 30
0.0
  0
VERTEX
  8
0
 10
18.1593772366
 20
1.85955297178
 30
0.0
  0
VERTEX
  8
0
 10
17.8711035422
 20
1.80965410493
 30
0.0
  0
VERTEX
  8
0
 10
17.5912316295
 20
1.75261336009
 30
0.0
  0
VERTEX
  8
0
 10
17.3208660251
 20
1.688655851
 30
0.0
  0
VERTEX
  8
0
 10
17.0610737385
 20
1.61803398875
 30
0.0
  0
VERTEX
  8
0
 10
16.8128800513
 20
1.54102648555
 30
0.0
  0
VERTEX
  8
0
 10
16.5772644704
 20
1.45793725484
 30
0.0
  0
VERTEX
  8
0
 10
16.3551568629
 20
1.36909421186
 30
0.0
  0
VERTEX
  8
0
 10
16.1474337861
 20
1.2748479795
 30
0.0
  0
VERTEX
  8
0
 10
15.9549150281
 20
1.17557050458
 30
0.0
  0
VERTEX
  8
0
 10
15.7783603725
 20
1.07165358996
 30
0.0
  0
VERTEX
  8
0
 10
15.6184665998
 20
0.963507348203
 30
0.0
  0
VERTEX
  8
0
 10
15.4758647377
 20
0.85155858313
 30
0.0
  0
VERTEX
  8
0
 10
15.3511175706
 20
0.736249105369
 30
0.0
  0
VERTEX
  8
0
 10
15.2447174185
 20
0.61803398875
 30
0.0
  0
VERTEX
  8
0
 10
15.1570841944
 20
0.49737977433
 30
0.0
  0
VERTEX
  8
0
 10
15.0885637464
 20
0.374762629171
 30
0.0
  0
VERTEX
  8
0
 10
15.0394264934
 20
0.250666467129
 30
0.0
  0
VERTEX
  8
0
 10
15.0098663579
 20
0.125581039059
 30
0.0
  0
VERTEX
  8
0
 10
15.0
 20
2.44929359829e-16
 30
0.0
  0
VERTEX
  8
0
 10
15.0098663579
 20
-0.125581039059
 30
0.0
  0
VERTEX
  8
0
 10
15.0394264934
 20
-0.250666467129
 30
0.0
  0
VERTEX
  8
0
 10
15.0885637464
 20
-0.374762629171
 30
0.0
  0
VERTEX
  8
0
 10
15.1570841944
 20
-0.49737977433
 30
0.0
  0
VERTEX
  8
0
 10
15.2447174185
 20
-0.61803398875
 30
0.0
  0
VERTEX
  8
0
 10
15.3511175706
 20
-0.736249105369
 30
0.0
  0
VERTEX
  8
0
 10
15.4758647377
 20
-0.85155858313
 30
0.0
  0
VERTEX
  8
0
 10
15.6184665998
 20
-0.963507348203
 30
0.0
  0
VERTEX
  8
0
 10
15.7783603725
 20
-1.07165358996
 30
0.0
  0
VERTEX
  8
0
 10
15.9549150281
 20
-1.17557050458
 30
0.0
  0
VERTEX
  8
0
 10
16.1474337861
 20
-1.2748479795
 30
0.0
  0
VERTEX
  8
0
 10
16.3551568629
 20
-1.36909421186
 30
0.0
  0
VERTEX
  8
0
 10
16.5772644704
 20
-1.45793725484
 30
0.0
  0
VERTEX
  8
0
 10
16.8128800513
 20
-1.54102648555
 30
0.0
  0
VERTEX
  8
0
 10
17.0610737385
 20
-1.61803398875
 30
0.0
  0
VERTEX
  8
0
 10
17.3208660251
 20
-1.688655851
 30
0.0
  0
VERTEX
  8
0
 10
17.5912316295
 20
-1.75261336009
 30
0.0
  0
VERTEX
  8
0
 10
17.8711035422
 20
-1.80965410493
 30
0.0
  0
VERTEX
  8
0
 10
18.1593772366
 20
-1.85955297178
 30
0.0
  0
VERTEX
  8
0
 10
18.4549150281
 20
-1.90211303259
 30
0.0
  0
VERTEX
  8
0
 10
18.7565505642
 20
-1.93716632226
 30
0.0
  0
VERTEX
  8
0
 10
19.0630934271
 20
-1.96457450146
 30
0.0
  0
VERTEX
  8
0
 10
19.3733338322
 20
-1.98422940263
 30
0.0
  0
VERTEX
  8
0
 10
19.6860474024
 20
-1.99605345686
 30
0.0
  0
VERTEX
  8
0
 10
20.0
 20
-2.0
 30
0.0
  0
VERTEX
  8
0
 10
20.3139525976
 20
-1.99605345686
 30
0.0
  0
VERTEX
  8
0
 10
20.6266661678
 20
-1.98422940263
 30
0.0
  0
VERTEX
  8
0
 10
20.9369065729
 20
-1.96457450146
 30
0.0
  0
VERTEX
  8
0
 10
21.2434494358
 20
-1.93716632226
 30
0.0
  0
VERTEX
  8
0
 10
21.5450849719
 20
-1.90211303259
 30
0.0
  0
VERTEX
  8
0
 10
21.8406227634
 20
-1.85955297178
 30
0.0
  0
VERTEX
  8
0
 10
22.1288964578
 20
-1.80965410493
 30
0.0
  0
VERTEX
  8
0
 10
22.4087683705
 20
-1.75261336009
 30
0.0
  0
VERTEX
  8
0
 10
22.6791339749
 20
-1.688655851
 30
0.0
  0
VERTEX
  8
0
 10
22.9389262615
 20
-1.61803398875
 30
0.0
  0
VERTEX
  8
0
 10
23.1871199487
 20
-1.54102648555
 30
0.0
  0
VERTEX
  8
0
 10
23.4227355296
 20
-1.45793725484
 30
0.0
  0
VERTEX
  8
0
 10
23.6448431371
 20
-1.36909421186
 30
0.0
  0
VERTEX
  8
0
 10
23.8525662139
 20
-1.2748479795
 30
0.0
  0
VERTEX
  8
0
 10
24.0450849719
 20
-1.17557050458
 30
0.0
  0
VERTEX
  8
0
 10
24.2216396275
 20
-1.07165358996
 30
0.0
  0
VERTEX
  8
0
 10
24.3815334002
 20
-0.963507348203
 30
0.0
  0
VERTEX
  8
0
 10
24.5241352623
 20
-0.85155858313
 30
0.0
  0
VERTEX
  8
0
 10
24.6488824294
 20
-0.736249105369
 30
0.0
  0
VERTEX
  8
0
 10
24.7552825815
 20
-0.61803398875
 30
0.0
  0
VERTEX
  8
0
 10
24.8429158056
 20
-0.49737977433
 30
0.0
  0
VERTEX
  8
0
 10
24.9114362536
 20
-0.374762629171
 30
0.0
  0
VERTEX
  8
0
 10
24.9605735066
 20
-0.250666467129
 30
0.0
  0
VERTEX
  8
0
 10
24.9901336421
 20
-0.125581039059
 30
0.0
  0
SEQEND
  0
POLYLINE
 62
256
  8
0
 66
1
 10
0.0
 20
0.0
 30
0.0
 70
9
  0
VERTEX
  8
0
 10
24.3301270189
 20
2.5
 30
0.0
  0
VERTEX
  8
0
 10
24.2587919828
 20
2.60382319113
 30
0.0
  0
VERTEX
  8
0
 10
24.1706494405
 20
2.6973702817
 30
0.0
  0
VERTEX
  8
0
 10
24.0660472501
 20
2.78027208407
 30
0.0
  0
VERTEX
  8
0
 10
23.9453982289
 20
2.85220142272
 30
0.0
  0
VERTEX
  8
0
 10
23.8091785234
 20
2.9128744254
 30
0.0
  0
VERTEX
  8
0
 10
23.6579257304
 20
2.96205164348
 30
0.0
  0
VERTEX
  8
0
 10
23.4922367758
 20
2.99953899697
 30
0.0
  0
VERTEX
  8
0
 10
23.312765558
 20
3.02518854039
 30
0.0
  0
VERTEX
  8
0
 10
23.1202203681
 20
3.03889904672
 30
0.0
  0
VERTEX
  8
0
 10
22.9153610938
 20
3.04061640685
 30
0.0
  0
VERTEX
  8
0
 10
22.6989962212
 20
3.03033384315
 30
0.0
  0
VERTEX
  8
0
 10
22.4719796436
 20
3.0080919362
 30
0.0
  0
VERTEX
  8
0
 10
22.2352072917
 20
2.97397846464
 30
0.0
  0
VERTEX
  8
0
 10
21.9896135977
 20
2.92812805876
 30
0.0
  0
VERTEX
  8
0
 10
21.7361678079
 20
2.87072166918
 30
0.0
  0
VERTEX
  8
0
 10
21.4758701569
 20
2.80198585267
 30
0.0
  0
VERTEX
  8
0
 10
21.2097479206
 20
2.7221918781
 30
0.0
  0
VERTEX
  8
0
 10
20.938851362
 20
2.63165465585
 30
0.0
  0
VERTEX
  8
0
 10
20.664249586
 20
2.53073149495
 30
0.0
  0
VERTEX
  8
0
 10
20.3870263204
 20
2.41982069303
 30
0.0
  0
VERTEX
  8
0
 10
20.1082756386
 20
2.29935996434
 30
0.0
  0
VERTEX
  8
0
 10
19.8290976424
 20
2.16982471235
 30
0.0
  0
VERTEX
  8
0
 10
19.5505941197
 20
2.03172615352
 30
0.0
  0
VERTEX
  8
0
 10
19.2738641967
 20
1.88560929977
 30
0.0
  0
VERTEX
  8
0
 10
19.0
 20
1.73205080757
 30
0.0
  0
VERTEX
  8
0
 10
18.7300823464
 20
1.57165670213
 30
0.0
  0
VERTEX
  8
0
 10
18.4651764777
 20
1.4050599857
 30
0.0
  0
VERTEX
  8
0
 10
18.2063278561
 20
1.23291813942
 30
0.0
  0
VERTEX
  8
0
 10
17.9545580391
 20
1.05591052852
 30
0.0
  0
VERTEX
  8
0
 10
17.7108606471
 20
0.874735721155
 30
0.0
  0
VERTEX
  8
0
 10
17.4761974422
 20
0.69010873153
 30
0.0
  0
VERTEX
  8
0
 10
17.251494533
 20
0.502758198021
 30
0.0
  0
VERTEX
  8
0
 10
17.0376387193
 20
0.313423507594
 30
0.0
  0
VERTEX
  8
0
 10
16.8354739921
 20
0.122851877771
 30
0.0
  0
VERTEX
  8
0
 10
16.6457982033
 20
-0.0682045922871
 30
0.0
  0
VERTEX
  8
0
 10
16.4693599167
 20
-0.258991889979
 30
0.0
  0
VERTEX
  8
0
 10
16.3068554535
 20
-0.448757065004
 30
0.0
  0
VERTEX
  8
0
 10
16.1589261445
 20
-0.636751200911
 30
0.0
  0
VERTEX
  8
0
 10
16.0261557993
 20
-0.822232370731
 30
0.0
  0
VERTEX
  8
0
 10
15.9090684016
 20
-1.00446856503
 30
0.0
  0
VERTEX
  8
0
 10
15.808126042
 20
-1.18274058079
 30
0.0
  0
VERTEX
  8
0
 10
15.7237270938
 20
-1.35634485983
 30
0.0
  0
VERTEX
  8
0
 10
15.6562046411
 20
-1.52459626536
 30
0.0
  0
VERTEX
  8
0
 10
15.6058251642
 20
-1.68683078596
 30
0.0
  0
VERTEX
  8
0
 10
15.5727874879
 20
-1.84240815608
 30
0.0
  0
VERTEX
  8
0
 10
15.5572219968
 20
-1.99071438292
 30
0.0
  0
VERTEX
  8
0
 10
15.5591901207
 20
-2.13116416957
 30
0.0
  0
VERTEX
  8
0
 10
15.5786840924
 20
-2.26320322488
 30
0.0
  0
VERTEX
  8
0
 10
15.6156269781
 20
-2.38631045101
 30
0.0
  0
VERTEX
  8
0
 10
15.6698729811
 20
-2.5
 30
0.0
  0
VERTEX
  8
0
 10
15.7412080172
 20
-2.60382319113
 30
0.0
  0
VERTEX
  8
0
 10
15.8293505595
 20
-2.6973702817
 30
0.0
  0
VERTEX
  8
0
 10
15.9339527499
 20
-2.78027208407
 30
0.0
  0
VERTEX
  8
0
 10
16.0546017711
 20
-2.85220142272
 30
0.0
  0
VERTEX
  8
0
 10
16.1908214766
 20
-2.9128744254
 30
0.0
  0
VERTEX
  8
0
 10
16.3420742696
 20
-2.96205164348
 30
0.0
  0
VERTEX
  8
0
 10
16.5077632242
 20
-2.99953899697
 30
0.0
  0
VERTEX
  8
0
 10
16.687234442
 20
-3.02518854039
 30
0.0
  0
VERTEX
  8
0
 10
16.8797796319
 20
-3.03889904672
 30
0.0
  0
VERTEX
  8
0
 10
17.0846389062
 20
-3.04061640685
 30
0.0
  0
VERTEX
  8
0
 10
17.3010037788
 20
-3.03033384315
 30
0.0
  0
VERTEX
  8
0
 10
17.5280203564
 20
-3.0080919362
 30
0.0
  0
VERTEX
  8
0
 10
17.7647927083
 20
-2.97397846464
 30
0.0
  0
VERTEX
  8
0
 10
18.0103864023
 20
-2.92812805876
 30
0.0
  0
VERTEX
  8
0
 10
18.2638321921
 20
-2.87072166918
 30
0.0
  0
VERTEX
  8
0
 10
18.5241298431
 20
-2.80198585267
 30
0.0
  0
VERTEX
  8
0
 10
18.7902520794
 20
-2.7221918781
 30
0.0
  0
VERTEX
  8
0
 10
19.061148638
 20
-2.63165465585
 30
0.0
  0
VERTEX
  8
0
 10
19.335750414
 20
-2.53073149495
 30
0.0
  0
VERTEX
  8
0
 10
19.6129736796
 20
-2.41982069303
 30
0.0
  0
VERTEX
  8
0
 10
19.8917243614
 20
-2.29935996434
 30
0.0
  0
VERTEX
  8
0
 10
20.1709023576
 20
-2.16982471235
 30
0.0
  0
VERTEX
  8
0
 10
20.4494058803
 20
-2.03172615352
 30
0.0
  0
VERTEX
  8
0
 10
20.7261358033
 20
-1.88560929977
 30
0.0
  0
VERTEX
  8
0
 10
21.0
 20
-1.73205080757
 30
0.0
  0
VERTEX
  8
0
 10
21.2699176536
 20
-1.57165670213
 30
0.0
  0
VERTEX
  8
0
 10
21.5348235223
 20
-1.4050599857
 30
0.0
  0
VERTEX
  8
0
 10
21.7936721439
 20
-1.23291813942
 30
0.0
  0
VERTEX
  8
0
 10
22.0454419609
 20
-1.05591052852
 30
0.0
  0
VERTEX
  8
0
 10
22.2891393529
 20
-0.874735721155
 30
0.0
  0
VERTEX
  8
0
 10
22.5238025578
 20
-0.69010873153
 30
0.0
  0
VERTEX
  8
0
 10
22.748505467
 20
-0.502758198021
 30
0.0
  0
VERTEX
  8
0
 10
22.9623612807
 20
-0.313423507594
 30
0.0
  0
VERTEX
  8
0
 10
23.1645260079
 20
-0.122851877771
 30
0.0
  0
VERTEX
  8
0
 10
23.3542017967
 20
0.0682045922871
 30
0.0
  0
VERTEX
  8
0
 10
23.5306400833
 20
0.258991889979
 30
0.0
  0
VERTEX
  8
0
 10
23.6931445465
 20
0.448757065004
 30
0.0
  0
VERTEX
  8
0
 10
23.8410738555
 20
0.636751200911
 30
0.0
  0
VERTEX
  8
0
 10
23.9738442007
 20
0.822232370731
 30
0.0
  0
VERTEX
  8
0
 10
24.0909315984
 20
1.00446856503
 30
0.0
  0
VERTEX
  8
0
 10
24.191873958
 20
1.18274058079
 30
0.0
  0
VERTEX
  8
0
 10
24.2762729062
 20
1.35634485983
 30
0.0
  0
VERTEX
  8
0
 10
24.3437953589
 20
1.52459626536
 30
0.0
  0
VERTEX
  8
0
 10
24.3941748358
 20
1.68683078596
 30
0.0
  0
VERTEX
  8
0
 10
24.4272125121
 20
1.84240815608
 30
0.0
  0
VERTEX
  8
0
 10
24.4427780032
 20
1.99071438292
 30
0.0
  0
VERTEX
  8
0
 10
24.4408098793
 20
2.13116416957
 30
0.0
  0
VERTEX
  8
0
 10
24.4213159076
 20
2.26320322488
 30
0.0
  0
VERTEX
  8
0
 10
24.3843730219
 20
2.38631045101
 30
0.0
  0
SEQEND
  0
POLYLINE
 62
256
  8
0
 66
1
 10
0.0
 20
0.0
 30
0.0
 70
9
  0
VERTEX
  8
0
 10
23.5355339059
 20
3.53553390593
 30
0.0
  0
VERTEX
  8
0
 10
23.4397581331
 20
3.61735654169
 30
0.0
  0
VERTEX
  8
0
 10
23.3304072063
 20
3.68490312379
 30
0.0
  0
VERTEX
  8
0
 10
23.2079126839
 20
3.73790707674
 30
0.0
  0
VERTEX
  8
0
 10
23.0727579956
 20
3.77615921814
 30
0.0
  0
VERTEX
  8
0
 10
22.9254765354
 20
3.79950858427
 30
0.0
  0
VERTEX
  8
0
 10
22.7666495557
 20
3.80786302585
 30
0.0
  0
VERTEX
  8
0
 10
22.5969038743
 20
3.80118957171
 30
0.0
  0
VERTEX
  8
0
 10
22.4169093997
 20
3.77951455893
 30
0.0
  0
VERTEX
  8
0
 10
22.2273764878
 20
3.74292352888
 30
0.0
  0
VERTEX
  8
0
 10
22.0290531385
 20
3.69156088964
 30
0.0
  0
VERTEX
  8
0
 10
21.8227220435
 20
3.62562934609
 30
0.0
  0
VERTEX
  8
0
 10
21.6091974973
 20
3.5453890999
 30
0.0
  0
VERTEX
  8
0
 10
21.3893221838
 20
3.45115682266
 30
0.0
  0
VERTEX
  8
0
 10
21.1639638503
 20
3.34330440613
 30
0.0
  0
VERTEX
  8
0
 10
20.9340118833
 20
3.22225749452
 30
0.0
  0
VERTEX
  8
0
 10
20.700373798
 20
3.08849380469
 30
0.0
  0
VERTEX
  8
0
 10
20.4639716574
 20
2.94254124081
 30
0.0
  0
VERTEX
  8
0
 10
20.2257384326
 20
2.78497581097
 30
0.0
  0
VERTEX
  8
0
 10
19.9866143213
 20
2.61641935394
 30
0.0
  0
VERTEX
  8
0
 10
19.7475430372
 20
2.43753708505
 30
0.0
  0
VERTEX
  8
0
 10
19.5094680854
 20
2.24903497089
 30
0.0
  0
VERTEX
  8
0
 10
19.2733290389
 20
2.05165694318
 30
0.0
  0
VERTEX
  8
0
 10
19.0400578308
 20
1.84618196284
 30
0.0
  0
VERTEX
  8
0
 10
18.8105750758
 20
1.63342094572
 30
0.0
  0
VERTEX
  8
0
 10
18.5857864376
 20
1.41421356237
 30
0.0
  0
VERTEX
  8
0
 10
18.3665790543
 20
1.18942492419
 30
0.0
  0
VERTEX
  8
0
 10
18.1538180372
 20
0.959942169222
 30
0.0
  0
VERTEX
  8
0
 10
17.9483430568
 20
0.726670961071
 30
0.0
  0
VERTEX
  8
0
 10
17.7509650291
 20
0.49053191462
 30
0.0
  0
VERTEX
  8
0
 10
17.562462915
 20
0.252456962806
 30
0.0
  0
VERTEX
  8
0
 10
17.3835806461
 20
0.0133856786958
 30
0.0
  0
VERTEX
  8
0
 10
17.215024189
 20
-0.225738432573
 30
0.0
  0
VERTEX
  8
0
 10
17.0574587592
 20
-0.463971657378
 30
0.0
  0
VERTEX
  8
0
 10
16.9115061953
 20
-0.70037379802
 30
0.0
  0
VERTEX
  8
0
 10
16.7777425055
 20
-0.934011883252
 30
0.0
  0
VERTEX
  8
0
 10
16.6566955939
 20
-1.16396385029
 30
0.0
  0
VERTEX
  8
0
 10
16.5488431773
 20
-1.38932218378
 30
0.0
  0
VERTEX
  8
0
 10
16.4546109001
 20
-1.60919749732
 30
0.0
  0
VERTEX
  8
0
 10
16.3743706539
 20
-1.82272204352
 30
0.0
  0
VERTEX
  8
0
 10
16.3084391104
 20
-2.02905313853
 30
0.0
  0
VERTEX
  8
0
 10
16.2570764711
 20
-2.2273764878
 30
0.0
  0
VERTEX
  8
0
 10
16.2204854411
 20
-2.41690939965
 30
0.0
  0
VERTEX
  8
0
 10
16.1988104283
 20
-2.59690387429
 30
0.0
  0
VERTEX
  8
0
 10
16.1921369742
 20
-2.76664955575
 30
0.0
  0
VERTEX
  8
0
 10
16.2004914157
 20
-2.92547653537
 30
0.0
  0
VERTEX
  8
0
 10
16.2238407819
 20
-3.07275799563
 30
0.0
  0
VERTEX
  8
0
 10
16.2620929233
 20
-3.20791268389
 30
0.0
  0
VERTEX
  8
0
 10
16.3150968762
 20
-3.33040720635
 30
0.0
  0
VERTEX
  8
0
 10
16.3826434583
 20
-3.43975813308
 30
0.0
  0
VERTEX
  8
0
 10
16.4644660941
 20
-3.53553390593
 30
0.0
  0
VERTEX
  8
0
 10
16.5602418669
 20
-3.61735654169
 30
0.0
  0
VERTEX
  8
0
 10
16.6695927937
 20
-3.68490312379
 30
0.0
  0
VERTEX
  8
0
 10
16.7920873161
 20
-3.73790707674
 30
0.0
  0
VERTEX
  8
0
 10
16.9272420044
 20
-3.77615921814
 30
0.0
  0
VERTEX
  8
0
 10
17.0745234646
 20
-3.79950858427
 30
0.0
  0
VERTEX
  8
0
 10
17.2333504443
 20
-3.80786302585
 30
0.0
  0
VERTEX
  8
0
 10
17.4030961257
 20
-3.80118957171
 30
0.0
  0
VERTEX
  8
0
 10
17.5830906003
 20
-3.77951455893
 30
0.0
  0
VERTEX
  8
0
 10
17.7726235122
 20
-3.74292352888
 30
0.0
  0
VERTEX
  8
0
 10
17.9709468615
 20
-3.69156088964
 30
0.0
  0
VERTEX
  8
0
 10
18.1772779565
 20
-3.62562934609
 30
0.0
  0
VERTEX
  8
0
 10
18.3908025027
 20
-3.5453890999
 30
0.0
  0
VERTEX
  8
0
 10
18.6106778162
 20
-3.45115682266
 30
0.0
  0
VERTEX
  8
0
 10
18.8360361497
 20
-3.34330440613
 30
0.0
  0
VERTEX
  8
0
 10
19.0659881167
 20
-3.22225749452
 30
0.0
  0
VERTEX
  8
0
 10
19.299626202
 20
-3.08849380469
 30
0.0
  0
VERTEX
  8
0
 10
19.5360283426
 20
-2.94254124081
 30
0.0
  0
VERTEX
  8
0
 10
19.7742615674
 20
-2.78497581097
 30
0.0
  0
VERTEX
  8
0
 10
20.0133856787
 20
-2.61641935394
 30
0.0
  0
VERTEX
  8
0
 10
20.2524569628
 20
-2.43753708505
 30
0.0
  0
VERTEX
  8
0
 10
20.4905319146
 20
-2.24903497089
 30
0.0
  0
VERTEX
  8
0
 10
20.7266709611
 20
-2.05165694318
 30
0.0
  0
VERTEX
  8
0
 10
20.9599421692
 20
-1.84618196284
 30
0.0
  0
VERTEX
  8
0
 10
21.1894249242
 20
-1.63342094572
 30
0.0
  0
VERTEX
  8
0
 10
21.4142135624
 20
-1.41421356237
 30
0.0
  0
VERTEX
  8
0
 10
21.6334209457
 20
-1.18942492419
 30
0.0
  0
VERTEX
  8
0
 10
21.8461819628
 20
-0.959942169222
 30
0.0
  0
VERTEX
  8
0
 10
22.0516569432
 20
-0.726670961071
 30
0.0
  0
VERTEX
  8
0
 10
22.2490349709
 20
-0.49053191462
 30
0.0
  0
VERTEX
  8
0
 10
22.437537085
 20
-0.252456962806
 30
0.0
  0
VERTEX
  8
0
 10
22.6164193539
 20
-0.0133856786958
 30
0.0
  0
VERTEX
  8
0
 10
22.784975811
 20
0.225738432573
 30
0.0
  0
VERTEX
  8
0
 10
22.9425412408
 20
0.463971657378
 30
0.0
  0
VERTEX
  8
0
 10
23.0884938047
 20
0.70037379802
 30
0.0
  0
VERTEX
  8
0
 10
23.2222574945
 20
0.934011883252
 30
0.0
  0
VERTEX
  8
0
 10
23.3433044061
 20
1.16396385029
 30
0.0
  0
VERTEX
  8
0
 10
23.4511568227
 20
1.38932218378
 30
0.0
  0
VERTEX
  8
0
 10
23.5453890999
 20
1.60919749732
 30
0.0
  0
VERTEX
  8
0
 10
23.6256293461
 20
1.82272204352
 30
0.0
  0
VERTEX
  8
0
 10
23.6915608896
 20
2.02905313853
 30
0.0
  0
VERTEX
  8
0
 10
23.7429235289
 20
2.2273764878
 30
0.0
  0
VERTEX
  8
0
 10
23.7795145589
 20
2.41690939965
 30
0.0
  0
VERTEX
  8
0
 10
23.8011895717
 20
2.59690387429
 30
0.0
  0
VERTEX
  8
0
 10
23.8078630258
 20
2.76664955575
 30
0.0
  0
VERTEX
  8
0
 10
23.7995085843
 20
2.92547653537
 30
0.0
  0
VERTEX
  8
0
 10
23.7761592181
 20
3.07275799563
 30
0.0
  0
VERTEX
  8
0
 10
23.7379070767
 20
3.20791268389
 30
0.0
  0
VERTEX
  8
0
 10
23.6849031238
 20
3.33040720635
 30
0.0
  0
VERTEX
  8
0
 10
23.6173565417
 20
3.43975813308
 30
0.0
  0
SEQEND
  0
POLYLINE
 62
256
  8
0
 66
1
 10
0.0
 20
0.0
 30
0.0
 70
9
  0
VERTEX
  8
0
 10
22.5
 20
4.33012701892
 30
0.0
  0
VERTEX
  8
0
 10
22.386310451
 20
4.3843730219
 30
0.0
  0
VERTEX
  8
0
 10
22.2632032249
 20
4.4213159076
 30
0.0
  0
VERTEX
  8
0
 10
22.1311641696
 20
4.44080987931
 30
0.0
  0
VERTEX
  8
0
 10
21.9907143829
 20
4.44277800324
 30
0.0
  0
VERTEX
  8
0
 10
21.8424081561
 20
4.42721251211
 30
0.0
  0
VERTEX
  8
0
 10
21.686830786
 20
4.39417483579
 30
0.0
  0
VERTEX
  8
0
 10
21.5245962654
 20
4.3437953589
 30
0.0
  0
VERTEX
  8
0
 10
21.3563448598
 20
4.27627290622
 30
0.0
  0
VERTEX
  8
0
 10
21.1827405808
 20
4.19187395803
 30
0.0
  0
VERTEX
  8
0
 10
21.004468565
 20
4.0909315984
 30
0.0
  0
VERTEX
  8
0
 10
20.8222323707
 20
3.97384420073
 30
0.0
  0
VERTEX
  8
0
 10
20.6367512009
 20
3.84107385547
 30
0.0
  0
VERTEX
  8
0
 10
20.448757065
 20
3.69314454653
 30
0.0
  0
VERTEX
  8
0
 10
20.25899189
 20
3.5306400833
 30
0.0
  0
VERTEX
  8
0
 10
20.0682045923
 20
3.35420179665
 30
0.0
  0
VERTEX
  8
0
 10
19.8771481222
 20
3.1645260079
 30
0.0
  0
VERTEX
  8
0
 10
19.6865764924
 20
2.96236128074
 30
0.0
  0
VERTEX
  8
0
 10
19.497241802
 20
2.74850546697
 30
0.0
  0
VERTEX
  8
0
 10
19.3098912685
 20
2.5238025578
 30
0.0
  0
VERTEX
  8
0
 10
19.1252642788
 20
2.28913935294
 30
0.0
  0
VERTEX
  8
0
 10
18.9440894715
 20
2.04544196087
 30
0.0
  0
VERTEX
  8
0
 10
18.7670818606
 20
1.79367214386
 30
0.0
  0
VERTEX
  8
0
 10
18.5949400143
 20
1.53482352234
 30
0.0
  0
VERTEX
  8
0
 10
18.4283432979
 20
1.26991765357
 30
0.0
  0
VERTEX
  8
0
 10
18.2679491924
 20
1.0
 30
0.0
  0
VERTEX
  8
0
 10
18.1143907002
 20
0.726135803282
 30
0.0
  0
VERTEX
  8
0
 10
17.9682738465
 20
0.449405880289
 30
0.0
  0
VERTEX
  8
0
 10
17.8301752876
 20
0.1709023576
 30
0.0
  0
VERTEX
  8
0
 10
17.7006400357
 20
-0.108275638617
 30
0.0
  0
VERTEX
  8
0
 10
17.580179307
 20
-0.387026320354
 30
0.0
  0
VERTEX
  8
0
 10
17.469268505
 20
-0.66424958602
 30
0.0
  0
VERTEX
  8
0
 10
17.3683453442
 20
-0.938851362037
 30
0.0
  0
VERTEX
  8
0
 10
17.2778081219
 20
-1.20974792065
 30
0.0
  0
VERTEX
  8
0
 10
17.1980141473
 20
-1.4758701569
 30
0.0
  0
VERTEX
  8
0
 10
17.1292783308
 20
-1.7361678079
 30
0.0
  0
VERTEX
  8
0
 10
17.0718719412
 20
-1.98961359774
 30
0.0
  0
VERTEX
  8
0
 10
17.0260215354
 20
-2.23520729169
 30
0.0
  0
VERTEX
  8
0
 10
16.9919080638
 20
-2.47197964362
 30
0.0
  0
VERTEX
  8
0
 10
16.9696661569
 20
-2.69899622123
 30
0.0
  0
VERTEX
  8
0
 10
16.9593835932
 20
-2.91536109382
 30
0.0
  0
VERTEX
  8
0
 10
16.9611009533
 20
-3.12022036807
 30
0.0
  0
VERTEX
  8
0
 10
16.9748114596
 20
-3.31276555802
 30
0.0
  0
VERTEX
  8
0
 10
17.000461003
 20
-3.49223677577
 30
0.0
  0
VERTEX
  8
0
 10
17.0379483565
 20
-3.65792573042
 30
0.0
  0
VERTEX
  8
0
 10
17.0871255746
 20
-3.80917852336
 30
0.0
  0
VERTEX
  8
0
 10
17.1477985773
 20
-3.94539822891
 30
0.0
  0
VERTEX
  8
0
 10
17.2197279159
 20
-4.06604725014
 30
0.0
  0
VERTEX
  8
0
 10
17.3026297183
 20
-4.17064944047
 30
0.0
  0
VERTEX
  8
0
 10
17.3961768089
 20
-4.25879198284
 30
0.0
  0
VERTEX
  8
0
 10
17.5
 20
-4.33012701892
 30
0.0
  0
VERTEX
  8
0
 10
17.613689549
 20
-4.3843730219
 30
0.0
  0
VERTEX
  8
0
 10
17.7367967751
 20
-4.4213159076
 30
0.0
  0
VERTEX
  8
0
 10
17.8688358304
 20
-4.44080987931
 30
0.0
  0
VERTEX
  8
0
 10
18.0092856171
 20
-4.44277800324
 30
0.0
  0
VERTEX
  8
0
 10
18.1575918439
 20
-4.42721251211
 30
0.0
  0
VERTEX
  8
0
 10
18.313169214
 20
-4.39417483579
 30
0.0
  0
VERTEX
  8
0
 10
18.4754037346
 20
-4.3437953589
 30
0.0
  0
VERTEX
  8
0
 10
18.6436551402
 20
-4.27627290622
 30
0.0
  0
VERTEX
  8
0
 10
18.8172594192
 20
-4.19187395803
 30
0.0
  0
VERTEX
  8
0
 10
18.995531435
 20
-4.0909315984
 30
0.0
  0
VERTEX
  8
0
 10
19.1777676293
 20
-3.97384420073
 30
0.0
  0
VERTEX
  8
0
 10
19.3632487991
 20
-3.84107385547
 30
0.0
  0
VERTEX
  8
0
 10
19.551242935
 20
-3.69314454653
 30
0.0
  0
VERTEX
  8
0
 10
19.74100811
 20
-3.5306400833
 30
0.0
  0
VERTEX
  8
0
 10
19.9317954077
 20
-3.35420179665
 30
0.0
  0
VERTEX
  8
0
 10
20.1228518778
 20
-3.1645260079
 30
0.0
  0
VERTEX
  8
0
 10
20.3134235076
 20
-2.96236128074
 30
0.0
  0
VERTEX
  8
0
 10
20.502758198
 20
-2.74850546697
 30
0.0
  0
VERTEX
  8
0
 10
20.6901087315
 20
-2.5238025578
 30
0.0
  0
VERTEX
  8
0
 10
20.8747357212
 20
-2.28913935294
 30
0.0
  0
VERTEX
  8
0
 10
21.0559105285
 20
-2.04544196087
 30
0.0
  0
VERTEX
  8
0
 10
21.2329181394
 20
-1.79367214386
 30
0.0
  0
VERTEX
  8
0
 10
21.4050599857
 20
-1.53482352234
 30
0.0
  0
VERTEX
  8
0
 10
21.5716567021
 20
-1.26991765357
 30
0.0
  0
VERTEX
  8
0
 10
21.7320508076
 20
-1.0
 30
0.0
  0
VERTEX
  8
0
 10
21.8856092998
 20
-0.726135803282
 30
0.0
  0
VERTEX
  8
0
 10
22.0317261535
 20
-0.449405880289
 30
0.0
  0
VERTEX
  8
0
 10
22.1698247124
 20
-0.1709023576
 30
0.0
  0
VERTEX
  8
0
 10
22.2993599643
 20
0.108275638617
 30
0.0
  0
VERTEX
  8
0
 10
22.419820693
 20
0.387026320354
 30
0.0
  0
VERTEX
  8
0
 10
22.530731495
 20
0.66424958602
 30
0.0
  0
VERTEX
  8
0
 10
22.6316546558
 20
0.938851362037
 30
0.0
  0
VERTEX
  8
0
 10
22.7221918781
 20
1.20974792065
 30
0.0
  0
VERTEX
  8
0
 10
22.8019858527
 20
1.4758701569
 30
0.0
  0
VERTEX
  8
0
 10
22.8707216692
 20
1.7361678079
 30
0.0
  0
VERTEX
  8
0
 10
22.9281280588
 20
1.98961359774
 30
0.0
  0
VERTEX
  8
0
 10
22.9739784646
 20
2.23520729169
 30
0.0
  0
VERTEX
  8
0
 10
23.0080919362
 20
2.47197964362
 30
0.0
  0
VERTEX
  8
0
 10
23.0303338431
 20
2.69899622123
 30
0.0
  0
VERTEX
  8
0
 10
23.0406164068
 20
2.91536109382
 30
0.0
  0
VERTEX
  8
0
 10
23.0388990467
 20
3.12022036807
 30
0.0
  0
VERTEX
  8
0
 10
23.0251885404
 20
3.31276555802
 30
0.0
  0
VERTEX
  8
0
 10
22.999538997
 20
3.49223677577
 30
0.0
  0
VERTEX
  8
0
 10
22.9620516435
 20
3.65792573042
 30
0.0
  0
VERTEX
  8
0
 10
22.9128744254
 20
3.80917852336
 30
0.0
  0
VERTEX
  8
0
 10
22.8522014227
 20
3.94539822891
 30
0.0
  0
VERTEX
  8
0
 10
22.7802720841
 20
4.06604725014
 30
0.0
  0
VERTEX
  8
0
 10
22.6973702817
 20
4.17064944047
 30
0.0
  0
VERTEX
  8
0
 10
22.6038231911
 20
4.25879198284
 30
0.0
  0
SEQEND
  0
POLYLINE
 62
256
  8
0
 66
1
 10
0.0
 20
0.0
 30
0.0
 70
9
  0
VERTEX
  8
0
 10
20.0
 20
5.0
 30
0.0
  0
VERTEX
  8
0
 10
19.8744189609
 20
4.99013364214
 30
0.0
  0
VERTEX
  8
0
 10
19.7493335329
 20
4.96057350657
 30
0.0
  0
VERTEX
  8
0
 10
19.6252373708
 20
4.91143625364
 30
0.0
  0
VERTEX
  8
0
 10
19.5026202257
 20
4.84291580564
 30
0.0
  0
VERTEX
  8
0
 10
19.3819660113
 20
4.75528258148
 30
0.0
  0
VERTEX
  8
0
 10
19.2637508946
 20
4.64888242944
 30
0.0
  0
VERTEX
  8
0
 10
19.1484414169
 20
4.52413526233
 30
0.0
  0
VERTEX
  8
0
 10
19.0364926518
 20
4.38153340022
 30
0.0
  0
VERTEX
  8
0
 10
18.92834641
 20
4.22163962751
 30
0.0
  0
VERTEX
  8
0
 10
18.8244294954
 20
4.04508497187
 30
0.0
  0
VERTEX
  8
0
 10
18.7251520205
 20
3.85256621388
 30
0.0
  0
VERTEX
  8
0
 10
18.6309057881
 20
3.64484313711
 30
0.0
  0
VERTEX
  8
0
 10
18.5420627452
 20
3.42273552964
 30
0.0
  0
VERTEX
  8
0
 10
18.4589735144
 20
3.18711994874
 30
0.0
  0
VERTEX
  8
0
 10
18.3819660113
 20
2.93892626146
 30
0.0
  0
VERTEX
  8
0
 10
18.311344149
 20
2.67913397489
 30
0.0
  0
VERTEX
  8
0
 10
18.2473866399
 20
2.40876837051
 30
0.0
  0
VERTEX
  8
0
 10
18.1903458951
 20
2.12889645783
 30
0.0
  0
VERTEX
  8
0
 10
18.1404470282
 20
1.84062276342
 30
0.0
  0
VERTEX
  8
0
 10
18.0978869674
 20
1.54508497187
 30
0.0
  0
VERTEX
  8
0
 10
18.0628336777
 20
1.24344943582
 30
0.0
  0
VERTEX
  8
0
 10
18.0354254985
 20
0.936906572929
 30
0.0
  0
VERTEX
  8
0
 10
18.0157705974
 20
0.626666167822
 30
0.0
  0
VERTEX
  8
0
 10
18.0039465431
 20
0.313952597647
 30
0.0
  0
VERTEX
  8
0
 10
18.0
 20
4.28626379702e-16
 30
0.0
  0
VERTEX
  8
0
 10
18.0039465431
 20
-0.313952597647
 30
0.0
  0
VERTEX
  8
0
 10
18.0157705974
 20
-0.626666167822
 30
0.0
  0
VERTEX
  8
0
 10
18.0354254985
 20
-0.936906572929
 30
0.0
  0
VERTEX
  8
0
 10
18.0628336777
 20
-1.24344943582
 30
0.0
  0
VERTEX
  8
0
 10
18.0978869674
 20
-1.54508497187
 30
0.0
  0
VERTEX
  8
0
 10
18.1404470282
 20
-1.84062276342
 30
0.0
  0
VERTEX
  8
0
 10
18.1903458951
 20
-2.12889645783
 30
0.0
  0
VERTEX
  8
0
 10
18.2473866399
 20
-2.40876837051
 30
0.0
  0
VERTEX
  8
0
 10
18.311344149
 20
-2.67913397489
 30
0.0
  0
VERTEX
  8
0
 10
18.3819660113
 20
-2.93892626146
 30
0.0
  0
VERTEX
  8
0
 10
18.4589735144
 20
-3.18711994874
 30
0.0
  0
VERTEX
  8
0
 10
18.5420627452
 20
-3.42273552964
 30
0.0
  0
VERTEX
  8
0
 10
18.6309057881
 20
-3.64484313711
 30
0.0
  0
VERTEX
  8
0
 10
18.7251520205
 20
-3.85256621388
 30
0.0
  0
VERTEX
  8
0
 10
18.8244294954
 20
-4.04508497187
 30
0.0
  0
VERTEX
  8
0
 10
18.92834641
 20
-4.22163962751
 30
0.0
  0
VERTEX
  8
0
 10
19.0364926518
 20
-4.38153340022
 30
0.0
  0
VERTEX
  8
0
 10
19.1484414169
 20
-4.52413526233
 30
0.0
  0
VERTEX
  8
0
 10
19.2637508946
 20
-4.64888242944
 30
0.0
  0
VERTEX
  8
0
 10
19.3819660113
 20
-4.75528258148
 30
0.0
  0
VERTEX
  8
0
 10
19.5026202257
 20
-4.84291580564
 30
0.0
  0
VERTEX
  8
0
 10
19.6252373708
 20
-4.91143625364
 30
0.0
  0
VERTEX
  8
0
 10
19.7493335329
 20
-4.96057350657
 30
0.0
  0
VERTEX
  8
0
 10
19.8744189609
 20
-4.99013364214
 30
0.0
  0
VERTEX
  8
0
 10
20.0
 20
-5.0
 30
0.0
  0
VERTEX
  8
0
 10
20.1255810391
 20
-4.99013364214
 30
0.0
  0
VERTEX
  8
0
 10
20.2506664671
 20
-4.96057350657
 30
0.0
  0
VERTEX
  8
0
 10
20.3747626292
 20
-4.91143625364
 30
0.0
  0
VERTEX
  8
0
 10
20.4973797743
 20
-4.84291580564
 30
0.0
  0
VERTEX
  8
0
 10
20.6180339887
 20
-4.75528258148
 30
0.0
  0
VERTEX
  8
0
 10
20.7362491054
 20
-4.64888242944
 30
0.0
  0
VERTEX
  8
0
 10
20.8515585831
 20
-4.52413526233
 30
0.0
  0
VERTEX
  8
0
 10
20.9635073482
 20
-4.38153340022
 30
0.0
  0
VERTEX
  8
0
 10
21.07165359
 20
-4.22163962751
 30
0.0
  0
VERTEX
  8
0
 10
21.1755705046
 20
-4.04508497187
 30
0.0
  0
VERTEX
  8
0
 10
21.2748479795
 20
-3.85256621388
 30
0.0
  0
VERTEX
  8
0
 10
21.3690942119
 20
-3.64484313711
 30
0.0
  0
VERTEX
  8
0
 10
21.4579372548
 20
-3.42273552964
 30
0.0
  0
VERTEX
  8
0
 10
21.5410264856
 20
-3.18711994874
 30
0.0
  0
VERTEX
  8
0
 10
21.6180339887
 20
-2.93892626146
 30
0.0
  0
VERTEX
  8
0
 10
21.688655851
 20
-2.67913397489
 30
0.0
  0
VERTEX
  8
0
 10
21.7526133601
 20
-2.40876837051
 30
0.0
  0
VERTEX
  8
0
 10
21.8096541049
 20
-2.12889645783
 30
0.0
  0
VERTEX
  8
0
 10
21.8595529718
 20
-1.84062276342
 30
0.0
  0
VERTEX
  8
0
 10
21.9021130326
 20
-1.54508497187
 30
0.0
  0
VERTEX
  8
0
 10
21.9371663223
 20
-1.24344943582
 30
0.0
  0
VERTEX
  8
0
 10
21.9645745015
 20
-0.936906572929
 30
0.0
  0
VERTEX
  8
0
 10
21.9842294026
 20
-0.626666167822
 30
0.0
  0
VERTEX
  8
0
 10
21.9960534569
 20
-0.313952597647
 30
0.0
  0
VERTEX
  8
0
 10
22.0
 20
-1.04094977928e-15
 30
0.0
  0
VERTEX
  8
0
 10
21.9960534569
 20
0.313952597647
 30
0.0
  0
VERTEX
  8
0
 10
21.9842294026
 20
0.626666167822
 30
0.0
  0
VERTEX
  8
0
 10
21.9645745015
 20
0.936906572929
 30
0.0
  0
VERTEX
  8
0
 10
21.9371663223
 20
1.24344943582
 30
0.0
  0
VERTEX
  8
0
 10
21.9021130326
 20
1.54508497187
 30
0.0
  0
VERTEX
  8
0
 10
21.8595529718
 20
1.84062276342
 30
0.0
  0
VERTEX
  8
0
 10
21.8096541049
 20
2.12889645783
 30
0.0
  0
VERTEX
  8
0
 10
21.7526133601
 20
2.40876837051
 30
0.0
  0
VERTEX
  8
0
 10
21.688655851
 20
2.67913397489
 30
0.0
  0
VERTEX
  8
0
 10
21.6180339887
 20
2.93892626146
 30
0.0
  0
VERTEX
  8
0
 10
21.5410264856
 20
3.18711994874
 30
0.0
  0
VERTEX
  8
0
 10
21.4579372548
 20
3.42273552964
 30
0.0
  0
VERTEX
  8
0
 10
21.3690942119
 20
3.64484313711
 30
0.0
  0
VERTEX
  8
0
 10
21.2748479795
 20
3.85256621388
 30
0.0
  0
VERTEX
  8
0
 10
21.1755705046
 20
4.04508497187
 30
0.0
  0
VERTEX
  8
0
 10
21.07165359
 20
4.22163962751
 30
0.0
  0
VERTEX
  8
0
 10
20.9635073482
 20
4.38153340022
 30
0.0
  0
VERTEX
  8
0
 10
20.8515585831
 20
4.52413526233
 30
0.0
  0
VERTEX
  8
0
 10
20.7362491054
 20
4.64888242944
 30
0.0
  0
VERTEX
  8
0
 10
20.6180339887
 20
4.75528258148
 30
0.0
  0
VERTEX
  8
0
 10
20.4973797743
 20
4.84291580564
 30
0.0
  0
VERTEX
  8
0
 10
20.3747626292
 20
4.91143625364
 30
0.0
  0
VERTEX
  8
0
 10
20.2506664671
 20
4.96057350657
 30
0.0
  0
VERTEX
  8
0
 10
20.1255810391
 20
4.99013364214
 30
0.0
  0
SEQEND
  0
POLYLINE
 62
256
  8
0
 66
1
 10
0.0
 20
0.0
 30
0.0
 70
8
  0
VERTEX
  8
0
 10
45.0
 20
0.0
 30
0.0
  0
VERTEX
  8
0
 10
44.9992384758
 20
0.0349048128746
 30
0.0
  0
VERTEX
  8
0
 10
44.9969541351
 20
0.069798993405
 30
0.0
  0
VERTEX
  8
0
 10
44.9931476738
 20
0.104671912486
 30
0.0
  0
VERTEX
  8
0
 10
44.9878202513
 20
0.139512947488
 30
0.0
  0
VERTEX
  8
0
 10
44.9809734905
 20
0.174311485495
 30
0.0
  0
VERTEX
  8
0
 10
44.9726094768
 20
0.209056926535
 30
0.0
  0
VERTEX
  8
0
 10
44.9627307582
 20
0.24373868681
 30
0.0
  0
VERTEX
  8
0
 10
44.9513403437
 20
0.27834620192
 30
0.0
  0
VERTEX
  8
0
 10
44.938441703
 20
0.31286893008
 30
0.0
  0
VERTEX
  8
0
 10
44.9240387651
 20
0.347296355334
 30
0.0
  0
VERTEX
  8
0
 10
44.9081359172
 20
0.381617990753
 30
0.0
  0
VERTEX
  8
0
 10
44.8907380037
 20
0.415823381636
 30
0.0
  0
VERTEX
  8
0
 10
44.8718503239
 20
0.449902108688
 30
0.0
  0
VERTEX
  8
0
 10
44.8514786314
 20
0.483843791199
 30
0.0
  0
VERTEX
  8
0
 10
44.8296291314
 20
0.517638090205
 30
0.0
  0
VERTEX
  8
0
 10
44.8063084797
 20
0.551274711634
 30
0.0
  0
VERTEX
  8
0
 10
44.7815237798
 20
0.584743409445
 30
0.0
  0
VERTEX
  8
0
 10
44.7552825815
 20
0.61803398875
 30
0.0
  0
VERTEX
  8
0
 10
44.727592878
 20
0.651136308914
 30
0.0
  0
VERTEX
  8
0
 10
44.6984631039
 20
0.684040286651
 30
0.0
  0
VERTEX
  8
0
 10
44.6679021325
 20
0.716735899091
 30
0.0
  0
VERTEX
  8
0
 10
44.6359192728
 20
0.749213186832
 30
0.0
  0
VERTEX
  8
0
 10
44.6025242673
 20
0.781462256979
 30
0.0
  0
VERTEX
  8
0
 10
44.5677272882
 20
0.813473286152
 30
0.0
  0
VERTEX
  8
0
 10
44.5315389352
 20
0.845236523481
 30
0.0
  0
VERTEX
  8
0
 10
44.4939702315
 20
0.876742293578
 30
0.0
  0
VERTEX
  8
0
 10
44.4550326209
 20
0.907980999479
 30
0.0
  0
VERTEX
  8
0
 10
44.4147379643
 20
0.938943125572
 30
0.0
  0
VERTEX
  8
0
 10
44.3730985357
 20
0.969619240493
 30
0.0
  0
VERTEX
  8
0
 10
44.3301270189
 20
1.0
 30
0.0
  0
VERTEX
  8
0
 10
44.2858365035
 20
1.03007614982
 30
0.0
  0
VERTEX
  8
0
 10
44.2402404808
 20
1.05983852847
 30
0.0
  0
VERTEX
  8
0
 10
44.1933528397
 20
1.08927807003
 30
0.0
  0
VERTEX
  8
0
 10
44.1451878628
 20
1.11838580694
 30
0.0
  0
VERTEX
  8
0
 10
44.0957602214
 20
1.1471528727
 30
0.0
  0
VERTEX
  8
0
 10
44.0450849719
 20
1.17557050458
 30
0.0
  0
VERTEX
  8
0
 10
43.9931775502
 20
1.2036300463
 30
0.0
  0
VERTEX
  8
0
 10
43.940053768
 20
1.23132295065
 30
0.0
  0
VERTEX
  8
0
 10
43.8857298073
 20
1.2586407821
 30
0.0
  0
VERTEX
  8
0
 10
43.8302222156
 20
1.28557521937
 30
0.0
  0
VERTEX
  8
0
 10
43.7735479011
 20
1.31211805798
 30
0.0
  0
VERTEX
  8
0
 10
43.7157241274
 20
1.33826121272
 30
0.0
  0
VERTEX
  8
0
 10
43.6567685081
 20
1.36399672012
 30
0.0
  0
VERTEX
  8
0
 10
43.5966990017
 20
1.38931674092
 30
0.0
  0
VERTEX
  8
0
 10
43.5355339059
 20
1.41421356237
 30
0.0
  0
VERTEX
  8
0
 10
43.4732918523
 20
1.43867960068
 30
0.0
  0
VERTEX
  8
0
 10
43.4099918003
 20
1.46270740324
 30
0.0
  0
VERTEX
  8
0
 10
43.3456530318
 20
1.48628965095
 30
0.0
  0
VERTEX
  8
0
 10
43.280295145
 20
1.50941916045
 30
0.0
  0
VERTEX
  8
0
 10
43.2139380484
 20
1.53208888624
 30
0.0
  0
VERTEX
  8
0
 10
43.1466019552
 20
1.55429192291
 30
0.0
  0
VERTEX
  8
0
 10
43.0783073766
 20
1.57602150721
 30
0.0
  0
VERTEX
  8
0
 10
43.0090751158
 20
1.59727102009
 30
0.0
  0
VERTEX
  8
0
 10
42.9389262615
 20
1.61803398875
 30
0.0
  0
VERTEX
  8
0
 10
42.8678821818
 20
1.63830408858
 30
0.0
  0
VERTEX
  8
0
 10
42.7959645174
 20
1.65807514511
 30
0.0
  0
VERTEX
  8
0
 10
42.7231951751
 20
1.67734113589
 30
0.0
  0
VERTEX
  8
0
 10
42.6495963212
 20
1.69609619231
 30
0.0
  0
VERTEX
  8
0
 10
42.5751903746
 20
1.7143346014
 30
0.0
  0
VERTEX
  8
0
 10
42.5
 20
1.73205080757
 30
0.0
  0
VERTEX
  8
0
 10
42.4240481012
 20
1.74923941428
 30
0.0
  0
VERTEX
  8
0
 10
42.3473578139
 20
1.76589518572
 30
0.0
  0
VERTEX
  8
0
 10
42.2699524987
 20
1.78201304838
 30
0.0
  0
VERTEX
  8
0
 10
42.1918557339
 20
1.7975880926
 30
0.0
  0
VERTEX
  8
0
 10
42.1130913087
 20
1.81261557407
 30
0.0
  0
VERTEX
  8
0
 10
42.0336832154
 20
1.82709091529
 30
0.0
  0
VERTEX
  8
0
 10
41.9536556424
 20
1.8410097069
 30
0.0
  0
VERTEX
  8
0
 10
41.8730329671
 20
1.85436770913
 30
0.0
  0
VERTEX
  8
0
 10
41.7918397477
 20
1.86716085299
 30
0.0
  0
VERTEX
  8
0
 10
41.7101007166
 20
1.87938524157
 30
0.0
  0
VERTEX
  8
0
 10
41.6278407723
 20
1.8910371512
 30
0.0
  0
VERTEX
  8
0
 10
41.5450849719
 20
1.90211303259
 30
0.0
  0
VERTEX
  8
0
 10
41.4618585236
 20
1.91260951193
 30
0.0
  0
VERTEX
  8
0
 10
41.3781867791
 20
1.92252339188
 30
0.0
  0
VERTEX
  8
0
 10
41.2940952255
 20
1.93185165258
 30
0.0
  0
VERTEX
  8
0
 10
41.209609478
 20
1.94059145255
 30
0.0
  0
VERTEX
  8
0
 10
41.1247552717
 20
1.94874012957
 30
0.0
  0
VERTEX
  8
0
 10
41.0395584541
 20
1.95629520147
 30
0.0
  0
VERTEX
  8
0
 10
40.9540449769
 20
1.9632543669
 30
0.0
  0
VERTEX
  8
0
 10
40.8682408883
 20
1.96961550602
 30
0.0
  0
VERTEX
  8
0
 10
40.7821723252
 20
1.97537668119
 30
0.0
  0
VERTEX
  8
0
 10
40.6958655048
 20
1.98053613748
 30
0.0
  0
VERTEX
  8
0
 10
40.609346717
 20
1.98509230328
 30
0.0
  0
VERTEX
  8
0
 10
40.5226423163
 20
1.98904379074
 30
0.0
  0
VERTEX
  8
0
 10
40.4357787137
 20
1.99238939618
 30
0.0
  0
VERTEX
  8
0
 10
40.3487823687
 20
1.99512810052
 30
0.0
  0
VERTEX
  8
0
 10
40.2616797812
 20
1.99725906951
 30
0.0
  0
VERTEX
  8
0
 10
40.1744974835
 20
1.99878165404
 30
0.0
  0
VERTEX
  8
0
 10
40.0872620322
 20
1.99969539031
 30
0.0
  0
SEQEND
  0
POLYLINE
 62
256
  8
0
 66
1
 10
0.0
 20
0.0
 30
0.0
 70
8
  0
VERTEX
  8
0
 10
35.0
 20
2.44929359829e-16
 30
0.0
  0
VERTEX
  8
0
 10
35.0007615242
 20
-0.0349048128746
 30
0.0
  0
VERTEX
  8
0
 10
35.0030458649
 20
-0.069798993405
 30
0.0
  0
VERTEX
  8
0
 10
35.0068523262
 20
-0.104671912486
 30
0.0
  0
VERTEX
  8
0
 10
35.0121797487
 20
-0.139512947488
 30
0.0
  0
VERTEX
  8
0
 10
35.0190265095
 20
-0.174311485495
 30
0.0
  0
VERTEX
  8
0
 10
35.0273905232
 20
-0.209056926535
 30
0.0
  0
VERTEX
  8
0
 10
35.0372692418
 20
-0.24373868681
 30
0.0
  0
VERTEX
  8
0
 10
35.0486596563
 20
-0.27834620192
 30
0.0
  0
VERTEX
  8
0
 10
35.061558297
 20
-0.31286893008
 30
0.0
  0
VERTEX
  8
0
 10
35.0759612349
 20
-0.347296355334
 30
0.0
  0
VERTEX
  8
0
 10
35.0918640828
 20
-0.381617990753
 30
0.0
  0
VERTEX
  8
0
 10
35.1092619963
 20
-0.415823381636
 30
0.0
  0
VERTEX
  8
0
 10
35.1281496761
 20
-0.449902108688
 30
0.0
  0
VERTEX
  8
0
 10
35.1485213686
 20
-0.483843791199
 30
0.0
  0
VERTEX
  8
0
 10
35.1703708686
 20
-0.517638090205
 30
0.0
  0
VERTEX
  8
0
 10
35.1936915203
 20
-0.551274711634
 30
0.0
  0
VERTEX
  8
0
 10
35.2184762202
 20
-0.584743409445
 30
0.0
  0
VERTEX
  8
0
 10
35.2447174185
 20
-0.61803398875
 30
0.0
  0
VERTEX
  8
0
 10
35.272407122
 20
-0.651136308914
 30
0.0
  0
VERTEX
  8
0
 10
35.3015368961
 20
-0.684040286651
 30
0.0
  0
VERTEX
  8
0
 10
35.3320978675
 20
-0.716735899091
 30
0.0
  0
VERTEX
  8
0
 10
35.3640807272
 20
-0.749213186832
 30
0.0
  0
VERTEX
  8
0
 10
35.3974757327
 20
-0.781462256979
 30
0.0
  0
VERTEX
  8
0
 10
35.4322727118
 20
-0.813473286152
 30
0.0
  0
VERTEX
  8
0
 10
35.4684610648
 20
-0.845236523481
 30
0.0
  0
VERTEX
  8
0
 10
35.5060297685
 20
-0.876742293578
 30
0.0
  0
VERTEX
  8
0
 10
35.5449673791
 20
-0.907980999479
 30
0.0
  0
VERTEX
  8
0
 10
35.5852620357
 20
-0.938943125572
 30
0.0
  0
VERTEX
  8
0
 10
35.6269014643
 20
-0.969619240493
 30
0.0
  0
VERTEX
  8
0
 10
35.6698729811
 20
-1.0
 30
0.0
  0
VERTEX
  8
0
 10
35.7141634965
 20
-1.03007614982
 30
0.0
  0
VERTEX
  8
0
 10
35.7597595192
 20
-1.05983852847
 30
0.0
  0
VERTEX
  8
0
 10
35.8066471603
 20
-1.08927807003
 30
0.0
  0
VERTEX
  8
0
 10
35.8548121372
 20
-1.11838580694
 30
0.0
  0
VERTEX
  8
0
 10
35.9042397786
 20
-1.1471528727
 30
0.0
  0
VERTEX
  8
0
 10
35.9549150281
 20
-1.17557050458
 30
0.0
  0
VERTEX
  8
0
 10
36.0068224498
 20
-1.2036300463
 30
0.0
  0
VERTEX
  8
0
 10
36.059946232
 20
-1.23132295065
 30
0.0
  0
VERTEX
  8
0
 10
36.1142701927
 20
-1.2586407821
 30
0.0
  0
VERTEX
  8
0
 10
36.1697777844
 20
-1.28557521937
 30
0.0
  0
VERTEX
  8
0
 10
36.2264520989
 20
-1.31211805798
 30
0.0
  0
VERTEX
  8
0
 10
36.2842758726
 20
-1.33826121272
 30
0.0
  0
VERTEX
  8
0
 10
36.3432314919
 20
-1.36399672012
 30
0.0
  0
VERTEX
  8
0
 10
36.4033009983
 20
-1.38931674092
 30
0.0
  0
VERTEX
  8
0
 10
36.4644660941
 20
-1.41421356237
 30
0.0
  0
VERTEX
  8
0
 10
36.5267081477
 20
-1.43867960068
 30
0.0
  0
VERTEX
  8
0
 10
36.5900081997
 20
-1.46270740324
 30
0.0
  0
VERTEX
  8
0
 10
36.6543469682
 20
-1.48628965095
 30
0.0
  0
VERTEX
  8
0
 10
36.719704855
 20
-1.50941916045
 30
0.0
  0
VERTEX
  8
0
 10
36.7860619516
 20
-1.53208888624
 30
0.0
  0
VERTEX
  8
0
 10
36.8533980448
 20
-1.55429192291
 30
0.0
  0
VERTEX
  8
0
 10
36.9216926234
 20
-1.57602150721
 30
0.0
  0
VERTEX
  8
0
 10
36.9909248842
 20
-1.59727102009
 30
0.0
  0
VERTEX
  8
0
 10
37.0610737385
 20
-1.61803398875
 30
0.0
  0
VERTEX
  8
0
 10
37.1321178182
 20
-1.63830408858
 30
0.0
  0
VERTEX
  8
0
 10
37.2040354826
 20
-1.65807514511
 30
0.0
  0
VERTEX
  8
0
 10
37.2768048249
 20
-1.67734113589
 30
0.0
  0
VERTEX
  8
0
 10
37.3504036788
 20
-1.69609619231
 30
0.0
  0
VERTEX
  8
0
 10
37.4248096254
 20
-1.7143346014
 30
0.0
  0
VERTEX
  8
0
 10
37.5
 20
-1.73205080757
 30
0.0
  0
VERTEX
  8
0
 10
37.5759518988
 20
-1.74923941428
 30
0.0
  0
VERTEX
  8
0
 10
37.6526421861
 20
-1.76589518572
 30
0.0
  0
VERTEX
  8
0
 10
37.7300475013
 20
-1.78201304838
 30
0.0
  0
VERTEX
  8
0
 10
37.8081442661
 20
-1.7975880926
 30
0.0
  0
VERTEX
  8
0
 10
37.8869086913
 20
-1.81261557407
 30
0.0
  0
VERTEX
  8
0
 10
37.9663167846
 20
-1.82709091529
 30
0.0
  0
VERTEX
  8
0
 10
38.0463443576
 20
-1.8410097069
 30
0.0
  0
VERTEX
  8
0
 10
38.1269670329
 20
-1.85436770913
 30
0.0
  0
VERTEX
  8
0
 10
38.2081602523
 20
-1.86716085299
 30
0.0
  0
VERTEX
  8
0
 10
38.2898992834
 20
-1.87938524157
 30
0.0
  0
VERTEX
  8
0
 10
38.3721592277
 20
-1.8910371512
 30
0.0
  0
VERTEX
  8
0
 10
38.4549150281
 20
-1.90211303259
 30
0.0
  0
VERTEX
  8
0
 10
38.5381414764
 20
-1.91260951193
 30
0.0
  0
VERTEX
  8
0
 10
38.6218132209
 20
-1.92252339188
 30
0.0
  0
VERTEX
  8
0
 10
38.7059047745
 20
-1.93185165258
 30
0.0
  0
VERTEX
  8
0
 10
38.790390522
 20
-1.94059145255
 30
0.0
  0
VERTEX
  8
0
 10
38.8752447283
 20
-1.94874012957
 30
0.0
  0
VERTEX
  8
0
 10
38.9604415459
 20
-1.95629520147
 30
0.0
  0
VERTEX
  8
0
 10
39.0459550231
 20
-1.9632543669
 30
0.0
  0
VERTEX
  8
0
 10
39.1317591117
 20
-1.96961550602
 30
0.0
  0
VERTEX
  8
0
 10
39.2178276748
 20
-1.97537668119
 30
0.0
  0
VERTEX
  8
0
 10
39.3041344952
 20
-1.98053613748
 30
0.0
  0
VERTEX
  8
0
 10
39.390653283
 20
-1.98509230328
 30
0.0
  0
VERTEX
  8
0
 10
39.4773576837
 20
-1.98904379074
 30
0.0
  0
VERTEX
  8
0
 10
39.5642212863
 20
-1.99238939618
 30
0.0
  0
VERTEX
  8
0
 10
39.6512176313
 20
-1.99512810052
 30
0.0
  0
VERTEX
  8
0
 10
39.7383202188
 20
-1.99725906951
 30
0.0
  0
VERTEX
  8
0
 10
39.8255025165
 20
-1.99878165404
 30
0.0
  0
VERTEX
  8
0
 10
39.9127379678
 20
-1.99969539031
 30
0.0
  0
SEQEND
  0
POLYLINE
 62
256
  8
0
 66
1
 10
0.0
 20
0.0
 30
0.0
 70
8
  0
VERTEX
  8
0
 10
43.25
 20
3.03108891325
 30
0.0
  0
VERTEX
  8
0
 10
43.1966052136
 20
3.03499036533
 30
0.0
  0
VERTEX
  8
0
 10
43.1422367103
 20
3.03796732995
 30
0.0
  0
VERTEX
  8
0
 10
43.0869110512
 20
3.04001890029
 30
0.0
  0
VERTEX
  8
0
 10
43.0306450892
 20
3.04114445143
 30
0.0
  0
VERTEX
  8
0
 10
42.9734559632
 20
3.04134364051
 30
0.0
  0
VERTEX
  8
0
 10
42.9153610938
 20
3.04061640685
 30
0.0
  0
VERTEX
  8
0
 10
42.8563781772
 20
3.03896297198
 30
0.0
  0
VERTEX
  8
0
 10
42.7965251801
 20
3.03638383954
 30
0.0
  0
VERTEX
  8
0
 10
42.7358203343
 20
3.03287979518
 30
0.0
  0
VERTEX
  8
0
 10
42.6742821312
 20
3.02845190625
 30
0.0
  0
VERTEX
  8
0
 10
42.6119293158
 20
3.02310152153
 30
0.0
  0
VERTEX
  8
0
 10
42.5487808814
 20
3.01683027081
 30
0.0
  0
VERTEX
  8
0
 10
42.4848560637
 20
3.00964006435
 30
0.0
  0
VERTEX
  8
0
 10
42.4201743348
 20
3.00153309238
 30
0.0
  0
VERTEX
  8
0
 10
42.3547553973
 20
2.99251182436
 30
0.0
  0
VERTEX
  8
0
 10
42.2886191785
 20
2.98257900824
 30
0.0
  0
VERTEX
  8
0
 10
42.2217858241
 20
2.97173766966
 30
0.0
  0
VERTEX
  8
0
 10
42.1542756923
 20
2.95999111101
 30
0.0
  0
VERTEX
  8
0
 10
42.0861093472
 20
2.94734291038
 30
0.0
  0
VERTEX
  8
0
 10
42.017307553
 20
2.93379692055
 30
0.0
  0
VERTEX
  8
0
 10
41.9478912674
 20
2.91935726777
 30
0.0
  0
VERTEX
  8
0
 10
41.8778816352
 20
2.90402835047
 30
0.0
  0
VERTEX
  8
0
 10
41.8072999821
 20
2.88781483801
 30
0.0
  0
VERTEX
  8
0
 10
41.7361678079
 20
2.87072166918
 30
0.0
  0
VERTEX
  8
0
 10
41.6645067802
 20
2.85275405071
 30
0.0
  0
VERTEX
  8
0
 10
41.5923387276
 20
2.83391745573
 30
0.0
  0
VERTEX
  8
0
 10
41.5196856331
 20
2.81421762203
 30
0.0
  0
VERTEX
  8
0
 10
41.4465696277
 20
2.79366055039
 30
0.0
  0
VERTEX
  8
0
 10
41.3730129832
 20
2.77225250268
 30
0.0
  0
VERTEX
  8
0
 10
41.2990381057
 20
2.75
 30
0.0
  0
VERTEX
  8
0
 10
41.2246675285
 20
2.72690982068
 30
0.0
  0
VERTEX
  8
0
 10
41.1499239058
 20
2.70298899822
 30
0.0
  0
VERTEX
  8
0
 10
41.0748300051
 20
2.67824481912
 30
0.0
  0
VERTEX
  8
0
 10
40.9994087007
 20
2.6526848207
 30
0.0
  0
VERTEX
  8
0
 10
40.9236829668
 20
2.62631678879
 30
0.0
  0
VERTEX
  8
0
 10
40.8476758701
 20
2.59914875535
 30
0.0
  0
VERTEX
  8
0
 10
40.7714105632
 20
2.57118899602
 30
0.0
  0
VERTEX
  8
0
 10
40.694910277
 20
2.54244602761
 30
0.0
  0
VERTEX
  8
0
 10
40.6181983145
 20
2.51292860551
 30
0.0
  0
VERTEX
  8
0
 10
40.5412980428
 20
2.48264572101
 30
0.0
  0
VERTEX
  8
0
 10
40.4642328865
 20
2.45160659858
 30
0.0
  0
VERTEX
  8
0
 10
40.3870263204
 20
2.41982069303
 30
0.0
  0
VERTEX
  8
0
 10
40.3097018622
 20
2.38729768665
 30
0.0
  0
VERTEX
  8
0
 10
40.2322830659
 20
2.35404748628
 30
0.0
  0
VERTEX
  8
0
 10
40.1547935139
 20
2.32008022023
 30
0.0
  0
VERTEX
  8
0
 10
40.0772568103
 20
2.28540623528
 30
0.0
  0
VERTEX
  8
0
 10
39.9996965736
 20
2.25003609344
 30
0.0
  0
VERTEX
  8
0
 10
39.9221364292
 20
2.21398056882
 30
0.0
  0
VERTEX
  8
0
 10
39.8446000029
 20
2.17725064426
 30
0.0
  0
VERTEX
  8
0
 10
39.7671109129
 20
2.13985750807
 30
0.0
  0
VERTEX
  8
0
 10
39.6896927632
 20
2.10181255055
 30
0.0
  0
VERTEX
  8
0
 10
39.612369136
 20
2.06312736057
 30
0.0
  0
VERTEX
  8
0
 10
39.535163585
 20
2.02381372201
 30
0.0
  0
VERTEX
  8
0
 10
39.4580996277
 20
1.98388361019
 30
0.0
  0
VERTEX
  8
0
 10
39.3812007384
 20
1.94334918819
 30
0.0
  0
VERTEX
  8
0
 10
39.3044903414
 20
1.90222280321
 30
0.0
  0
VERTEX
  8
0
 10
39.2279918034
 20
1.86051698274
 30
0.0
  0
VERTEX
  8
0
 10
39.1517284266
 20
1.81824443077
 30
0.0
  0
VERTEX
  8
0
 10
39.0757234415
 20
1.77541802393
 30
0.0
  0
VERTEX
  8
0
 10
39.0
 20
1.73205080757
 30
0.0
  0
VERTEX
  8
0
 10
38.9245811682
 20
1.68815599175
 30
0.0
  0
VERTEX
  8
0
 10
38.8494899194
 20
1.64374694726
 30
0.0
  0
VERTEX
  8
0
 10
38.7747491271
 20
1.59883720153
 30
0.0
  0
VERTEX
  8
0
 10
38.700381558
 20
1.55344043449
 30
0.0
  0
VERTEX
  8
0
 10
38.6264098654
 20
1.50757047446
 30
0.0
  0
VERTEX
  8
0
 10
38.5528565816
 20
1.46124129385
 30
0.0
  0
VERTEX
  8
0
 10
38.4797441117
 20
1.41446700499
 30
0.0
  0
VERTEX
  8
0
 10
38.4070947265
 20
1.36726185577
 30
0.0
  0
VERTEX
  8
0
 10
38.3349305556
 20
1.31964022535
 30
0.0
  0
VERTEX
  8
0
 10
38.2632735811
 20
1.27161661974
 30
0.0
  0
VERTEX
  8
0
 10
38.1921456302
 20
1.22320566738
 30
0.0
  0
VERTEX
  8
0
 10
38.1215683693
 20
1.17442211473
 30
0.0
  0
VERTEX
  8
0
 10
38.0515632969
 20
1.12528082172
 30
0.0
  0
VERTEX
  8
0
 10
37.9821517371
 20
1.07579675728
 30
0.0
  0
VERTEX
  8
0
 10
37.9133548335
 20
1.02598499472
 30
0.0
  0
VERTEX
  8
0
 10
37.8451935422
 20
0.975860707192
 30
0.0
  0
VERTEX
  8
0
 10
37.7776886258
 20
0.925439163041
 30
0.0
  0
VERTEX
  8
0
 10
37.7108606471
 20
0.874735721155
 30
0.0
  0
VERTEX
  8
0
 10
37.6447299623
 20
0.823765826295
 30
0.0
  0
VERTEX
  8
0
 10
37.5793167156
 20
0.772545004385
 30
0.0
  0
VERTEX
  8
0
 10
37.5146408325
 20
0.721088857782
 30
0.0
  0
VERTEX
  8
0
 10
37.4507220138
 20
0.669413060527
 30
0.0
  0
VERTEX
  8
0
 10
37.3875797299
 20
0.61753335357
 30
0.0
  0
VERTEX
  8
0
 10
37.3252332146
 20
0.565465539971
 30
0.0
  0
VERTEX
  8
0
 10
37.2637014591
 20
0.513225480091
 30
0.0
  0
VERTEX
  8
0
 10
37.2030032067
 20
0.460829086758
 30
0.0
  0
VERTEX
  8
0
 10
37.1431569466
 20
0.408292320421
 30
0.0
  0
VERTEX
  8
0
 10
37.0841809085
 20
0.355631184288
 30
0.0
  0
VERTEX
  8
0
 10
37.0260930572
 20
0.302861719451
 30
0.0
  0
SEQEND
  0
POLYLINE
 62
256
  8
0
 66
1
 10
0.0
 20
0.0
 30
0.0
 70
8
  0
VERTEX
  8
0
 10
36.75
 20
-3.03108891325
 30
0.0
  0
VERTEX
  8
0
 10
36.8033947864
 20
-3.03499036533
 30
0.0
  0
VERTEX
  8
0
 10
36.8577632897
 20
-3.03796732995
 30
0.0
  0
VERTEX
  8
0
 10
36.9130889488
 20
-3.04001890029
 30
0.0
  0
VERTEX
  8
0
 10
36.9693549108
 20
-3.04114445143
 30
0.0
  0
VERTEX
  8
0
 10
37.0265440368
 20
-3.04134364051
 30
0.0
  0
VERTEX
  8
0
 10
37.0846389062
 20
-3.04061640685
 30
0.0
  0
VERTEX
  8
0
 10
37.1436218228
 20
-3.03896297198
 30
0.0
  0
VERTEX
  8
0
 10
37.2034748199
 20
-3.03638383954
 30
0.0
  0
VERTEX
  8
0
 10
37.2641796657
 20
-3.03287979518
 30
0.0
  0
VERTEX
  8
0
 10
37.3257178688
 20
-3.02845190625
 30
0.0
  0
VERTEX
  8
0
 10
37.3880706842
 20
-3.02310152153
 30
0.0
  0
VERTEX
  8
0
 10
37.4512191186
 20
-3.01683027081
 30
0.0
  0
VERTEX
  8
0
 10
37.5151439363
 20
-3.00964006435
 30
0.0
  0
VERTEX
  8
0
 10
37.5798256652
 20
-3.00153309238
 30
0.0
  0
VERTEX
  8
0
 10
37.6452446027
 20
-2.99251182436
 30
0.0
  0
VERTEX
  8
0
 10
37.7113808215
 20
-2.98257900824
 30
0.0
  0
VERTEX
  8
0
 10
37.7782141759
 20
-2.97173766966
 30
0.0
  0
VERTEX
  8
0
 10
37.8457243077
 20
-2.95999111101
 30
0.0
  0
VERTEX
  8
0
 10
37.9138906528
 20
-2.94734291038
 30
0.0
  0
VERTEX
  8
0
 10
37.982692447
 20
-2.93379692055
 30
0.0
  0
VERTEX
  8
0
 10
38.0521087326
 20
-2.91935726777
 30
0.0
  0
VERTEX
  8
0
 10
38.1221183648
 20
-2.90402835047
 30
0.0
  0
VERTEX
  8
0
 10
38.1927000179
 20
-2.88781483801
 30
0.0
  0
VERTEX
  8
0
 10
38.2638321921
 20
-2.87072166918
 30
0.0
  0
VERTEX
  8
0
 10
38.3354932198
 20
-2.85275405071
 30
0.0
  0
VERTEX
  8
0
 10
38.4076612724
 20
-2.83391745573
 30
0.0
  0
VERTEX
  8
0
 10
38.4803143669
 20
-2.81421762203
 30
0.0
  0
VERTEX
  8
0
 10
38.5534303723
 20
-2.79366055039
 30
0.0
  0
VERTEX
  8
0
 10
38.6269870168
 20
-2.77225250268
 30
0.0
  0
VERTEX
  8
0
 10
38.7009618943
 20
-2.75
 30
0.0
  0
VERTEX
  8
0
 10
38.7753324715
 20
-2.72690982068
 30
0.0
  0
VERTEX
  8
0
 10
38.8500760942
 20
-2.70298899822
 30
0.0
  0
VERTEX
  8
0
 10
38.9251699949
 20
-2.67824481912
 30
0.0
  0
VERTEX
  8
0
 10
39.0005912993
 20
-2.6526848207
 30
0.0
  0
VERTEX
  8
0
 10
39.0763170332
 20
-2.62631678879
 30
0.0
  0
VERTEX
  8
0
 10
39.1523241299
 20
-2.59914875535
 30
0.0
  0
VERTEX
  8
0
 10
39.2285894368
 20
-2.57118899602
 30
0.0
  0
VERTEX
  8
0
 10
39.305089723
 20
-2.54244602761
 30
0.0
  0
VERTEX
  8
0
 10
39.3818016855
 20
-2.51292860551
 30
0.0
  0
VERTEX
  8
0
 10
39.4587019572
 20
-2.48264572101
 30
0.0
  0
VERTEX
  8
0
 10
39.5357671135
 20
-2.45160659858
 30
0.0
  0
VERTEX
  8
0
 10
39.6129736796
 20
-2.41982069303
 30
0.0
  0
VERTEX
  8
0
 10
39.6902981378
 20
-2.38729768665
 30
0.0
  0
VERTEX
  8
0
 10
39.7677169341
 20
-2.35404748628
 30
0.0
  0
VERTEX
  8
0
 10
39.8452064861
 20
-2.32008022023
 30
0.0
  0
VERTEX
  8
0
 10
39.9227431897
 20
-2.28540623528
 30
0.0
  0
VERTEX
  8
0
 10
40.0003034264
 20
-2.25003609344
 30
0.0
  0
VERTEX
  8
0
 10
40.0778635708
 20
-2.21398056882
 30
0.0
  0
VERTEX
  8
0
 10
40.1553999971
 20
-2.17725064426
 30
0.0
  0
VERTEX
  8
0
 10
40.2328890871
 20
-2.13985750807
 30
0.0
  0
VERTEX
  8
0
 10
40.3103072368
 20
-2.10181255055
 30
0.0
  0
VERTEX
  8
0
 10
40.387630864
 20
-2.06312736057
 30
0.0
  0
VERTEX
  8
0
 10
40.464836415
 20
-2.02381372201
 30
0.0
  0
VERTEX
  8
0
 10
40.5419003723
 20
-1.98388361019
 30
0.0
  0
VERTEX
  8
0
 10
40.6187992616
 20
-1.94334918819
 30
0.0
  0
VERTEX
  8
0
 10
40.6955096586
 20
-1.90222280321
 30
0.0
  0
VERTEX
  8
0
 10
40.7720081966
 20
-1.86051698274
 30
0.0
  0
VERTEX
  8
0
 10
40.8482715734
 20
-1.81824443077
 30
0.0
  0
VERTEX
  8
0
 10
40.9242765585
 20
-1.77541802393
 30
0.0
  0
VERTEX
  8
0
 10
41.0
 20
-1.73205080757
 30
0.0
  0
VERTEX
  8
0
 10
41.0754188318
 20
-1.68815599175
 30
0.0
  0
VERTEX
  8
0
 10
41.1505100806
 20
-1.64374694726
 30
0.0
  0
VERTEX
  8
0
 10
41.2252508729
 20
-1.59883720153
 30
0.0
  0
VERTEX
  8
0
 10
41.299618442
 20
-1.55344043449
 30
0.0
  0
VERTEX
  8
0
 10
41.3735901346
 20
-1.50757047446
 30
0.0
  0
VERTEX
  8
0
 10
41.4471434184
 20
-1.46124129385
 30
0.0
  0
VERTEX
  8
0
 10
41.5202558883
 20
-1.41446700499
 30
0.0
  0
VERTEX
  8
0
 10
41.5929052735
 20
-1.36726185577
 30
0.0
  0
VERTEX
  8
0
 10
41.6650694444
 20
-1.31964022535
 30
0.0
  0
VERTEX
  8
0
 10
41.7367264189
 20
-1.27161661974
 30
0.0
  0
VERTEX
  8
0
 10
41.8078543698
 20
-1.22320566738
 30
0.0
  0
VERTEX
  8
0
 10
41.8784316307
 20
-1.17442211473
 30
0.0
  0
VERTEX
  8
0
 10
41.9484367031
 20
-1.12528082172
 30
0.0
  0
VERTEX
  8
0
 10
42.0178482629
 20
-1.07579675728
 30
0.0
  0
VERTEX
  8
0
 10
42.0866451665
 20
-1.02598499472
 30
0.0
  0
VERTEX
  8
0
 10
42.1548064578
 20
-0.975860707192
 30
0.0
  0
VERTEX
  8
0
 10
42.2223113742
 20
-0.925439163041
 30
0.0
  0
VERTEX
  8
0
 10
42.2891393529
 20
-0.874735721155
 30
0.0
  0
VERTEX
  8
0
 10
42.3552700377
 20
-0.823765826295
 30
0.0
  0
VERTEX
  8
0
 10
42.4206832844
 20
-0.772545004385
 30
0.0
  0
VERTEX
  8
0
 10
42.4853591675
 20
-0.721088857782
 30
0.0
  0
VERTEX
  8
0
 10
42.5492779862
 20
-0.669413060527
 30
0.0
  0
VERTEX
  8
0
 10
42.6124202701
 20
-0.61753335357
 30
0.0
  0
VERTEX
  8
0
 10
42.6747667854
 20
-0.565465539971
 30
0.0
  0
VERTEX
  8
0
 10
42.7362985409
 20
-0.513225480091
 30
0.0
  0
VERTEX
  8
0
 10
42.7969967933
 20
-0.460829086758
 30
0.0
  0
VERTEX
  8
0
 10
42.8568430534
 20
-0.408292320421
 30
0.0
  0
VERTEX
  8
0
 10
42.9158190915
 20
-0.355631184288
 30
0.0
  0
VERTEX
  8
0
 10
42.9739069428
 20
-0.302861719451
 30
0.0
  0
SEQEND
  0
POLYLINE
 62
256
  8
0
 66
1
 10
0.0
 20
0.0
 30
0.0
 70
8
  0
VERTEX
  8
0
 10
41.5
 20
3.5
 30
0.0
  0
VERTEX
  8
0
 10
41.4386881202
 20
3.47328832339
 30
0.0
  0
VERTEX
  8
0
 10
41.3769380021
 20
3.44551864951
 30
0.0
  0
VERTEX
  8
0
 10
41.3147684553
 20
3.41669943728
 30
0.0
  0
VERTEX
  8
0
 10
41.2521984173
 20
3.38683946529
 30
0.0
  0
VERTEX
  8
0
 10
41.1892469475
 20
3.3559478292
 30
0.0
  0
VERTEX
  8
0
 10
41.1259332216
 20
3.32403393889
 30
0.0
  0
VERTEX
  8
0
 10
41.0622765255
 20
3.29110751564
 30
0.0
  0
VERTEX
  8
0
 10
40.9982962498
 20
3.25717858916
 30
0.0
  0
VERTEX
  8
0
 10
40.9340118833
 20
3.22225749452
 30
0.0
  0
VERTEX
  8
0
 10
40.8694430077
 20
3.18635486904
 30
0.0
  0
VERTEX
  8
0
 10
40.8046092914
 20
3.149481649
 30
0.0
  0
VERTEX
  8
0
 10
40.7395304832
 20
3.11164906634
 30
0.0
  0
VERTEX
  8
0
 10
40.674226407
 20
3.07286864523
 30
0.0
  0
VERTEX
  8
0
 10
40.6087169548
 20
3.03315219857
 30
0.0
  0
VERTEX
  8
0
 10
40.5430220816
 20
2.99251182436
 30
0.0
  0
VERTEX
  8
0
 10
40.4771617985
 20
2.95095990206
 30
0.0
  0
VERTEX
  8
0
 10
40.4111561674
 20
2.90850908879
 30
0.0
  0
VERTEX
  8
0
 10
40.3450252941
 20
2.86517231547
 30
0.0
  0
VERTEX
  8
0
 10
40.2787893228
 20
2.82096278291
 30
0.0
  0
VERTEX
  8
0
 10
40.2124684295
 20
2.77589395776
 30
0.0
  0
VERTEX
  8
0
 10
40.1460828163
 20
2.72997956842
 30
0.0
  0
VERTEX
  8
0
 10
40.0796527049
 20
2.68323360086
 30
0.0
  0
VERTEX
  8
0
 10
40.0131983305
 20
2.63567029435
 30
0.0
  0
VERTEX
  8
0
 10
39.9467399357
 20
2.58730413714
 30
0.0
  0
VERTEX
  8
0
 10
39.8802977645
 20
2.53814986202
 30
0.0
  0
VERTEX
  8
0
 10
39.8138920557
 20
2.48822244186
 30
0.0
  0
VERTEX
  8
0
 10
39.7475430372
 20
2.43753708505
 30
0.0
  0
VERTEX
  8
0
 10
39.6812709195
 20
2.38610923083
 30
0.0
  0
VERTEX
  8
0
 10
39.6150958898
 20
2.33395454462
 30
0.0
  0
VERTEX
  8
0
 10
39.5490381057
 20
2.28108891325
 30
0.0
  0
VERTEX
  8
0
 10
39.4831176889
 20
2.22752844009
 30
0.0
  0
VERTEX
  8
0
 10
39.4173547194
 20
2.1732894402
 30
0.0
  0
VERTEX
  8
0
 10
39.3517692294
 20
2.11838843529
 30
0.0
  0
VERTEX
  8
0
 10
39.2863811967
 20
2.06284214874
 30
0.0
  0
VERTEX
  8
0
 10
39.2212105392
 20
2.00666750048
 30
0.0
  0
VERTEX
  8
0
 10
39.1562771085
 20
1.94988160187
 30
0.0
  0
VERTEX
  8
0
 10
39.091600684
 20
1.89250175044
 30
0.0
  0
VERTEX
  8
0
 10
39.0272009668
 20
1.83454542464
 30
0.0
  0
VERTEX
  8
0
 10
38.9630975735
 20
1.77603027852
 30
0.0
  0
VERTEX
  8
0
 10
38.8993100308
 20
1.71697413639
 30
0.0
  0
VERTEX
  8
0
 10
38.8358577689
 20
1.65739498729
 30
0.0
  0
VERTEX
  8
0
 10
38.772760116
 20
1.59731097963
 30
0.0
  0
VERTEX
  8
0
 10
38.7100362922
 20
1.53674041557
 30
0.0
  0
VERTEX
  8
0
 10
38.6477054039
 20
1.4757017455
 30
0.0
  0
VERTEX
  8
0
 10
38.5857864376
 20
1.41421356237
 30
0.0
  0
VERTEX
  8
0
 10
38.5242982545
 20
1.3522945961
 30
0.0
  0
VERTEX
  8
0
 10
38.4632595844
 20
1.28996370779
 30
0.0
  0
VERTEX
  8
0
 10
38.4026890204
 20
1.22723988404
 30
0.0
  0
VERTEX
  8
0
 10
38.3426050127
 20
1.16414223113
 30
0.0
  0
VERTEX
  8
0
 10
38.2830258636
 20
1.10068996922
 30
0.0
  0
VERTEX
  8
0
 10
38.2239697215
 20
1.03690242649
 30
0.0
  0
VERTEX
  8
0
 10
38.1654545754
 20
0.97279903323
 30
0.0
  0
VERTEX
  8
0
 10
38.1074982496
 20
0.908399315961
 30
0.0
  0
VERTEX
  8
0
 10
38.0501183981
 20
0.843722891461
 30
0.0
  0
VERTEX
  8
0
 10
37.9933324995
 20
0.778789460795
 30
0.0
  0
VERTEX
  8
0
 10
37.9371578513
 20
0.713618803315
 30
0.0
  0
VERTEX
  8
0
 10
37.8816115647
 20
0.648230770634
 30
0.0
  0
VERTEX
  8
0
 10
37.8267105598
 20
0.582645280582
 30
0.0
  0
VERTEX
  8
0
 10
37.7724715599
 20
0.516882311132
 30
0.0
  0
VERTEX
  8
0
 10
37.7189110868
 20
0.450961894323
 30
0.0
  0
VERTEX
  8
0
 10
37.6660454554
 20
0.384904110153
 30
0.0
  0
VERTEX
  8
0
 10
37.6138907692
 20
0.318729080462
 30
0.0
  0
VERTEX
  8
0
 10
37.562462915
 20
0.252456962806
 30
0.0
  0
VERTEX
  8
0
 10
37.5117775581
 20
0.186107944313
 30
0.0
  0
VERTEX
  8
0
 10
37.461850138
 20
0.119702235537
 30
0.0
  0
VERTEX
  8
0
 10
37.4126958629
 20
0.0532600643014
 30
0.0
  0
VERTEX
  8
0
 10
37.3643297057
 20
-0.0131983304662
 30
0.0
  0
VERTEX
  8
0
 10
37.3167663991
 20
-0.0796527048945
 30
0.0
  0
VERTEX
  8
0
 10
37.2700204316
 20
-0.146082816337
 30
0.0
  0
VERTEX
  8
0
 10
37.2241060422
 20
-0.212468429539
 30
0.0
  0
VERTEX
  8
0
 10
37.1790372171
 20
-0.278789322799
 30
0.0
  0
VERTEX
  8
0
 10
37.1348276845
 20
-0.34502529413
 30
0.0
  0
VERTEX
  8
0
 10
37.0914909112
 20
-0.411156167415
 30
0.0
  0
VERTEX
  8
0
 10
37.0490400979
 20
-0.477161798548
 30
0.0
  0
VERTEX
  8
0
 10
37.0074881756
 20
-0.543022081575
 30
0.0
  0
VERTEX
  8
0
 10
36.9668478014
 20
-0.608716954815
 30
0.0
  0
VERTEX
  8
0
 10
36.9271313548
 20
-0.674226406974
 30
0.0
  0
VERTEX
  8
0
 10
36.8883509337
 20
-0.739530483239
 30
0.0
  0
VERTEX
  8
0
 10
36.850518351
 20
-0.804609291354
 30
0.0
  0
VERTEX
  8
0
 10
36.813645131
 20
-0.869443007684
 30
0.0
  0
VERTEX
  8
0
 10
36.7777425055
 20
-0.934011883252
 30
0.0
  0
VERTEX
  8
0
 10
36.7428214108
 20
-0.998296249752
 30
0.0
  0
VERTEX
  8
0
 10
36.7088924844
 20
-1.06227652554
 30
0.0
  0
VERTEX
  8
0
 10
36.6759660611
 20
-1.12593322162
 30
0.0
  0
VERTEX
  8
0
 10
36.6440521708
 20
-1.18924694752
 30
0.0
  0
VERTEX
  8
0
 10
36.6131605347
 20
-1.25219841729
 30
0.0
  0
VERTEX
  8
0
 10
36.5833005627
 20
-1.31476845528
 30
0.0
  0
VERTEX
  8
0
 10
36.5544813505
 20
-1.37693800207
 30
0.0
  0
VERTEX
  8
0
 10
36.5267116766
 20
-1.4386881202
 30
0.0
  0
SEQEND
  0
POLYLINE
 62
256
  8
0
 66
1
 10
0.0
 20
0.0
 30
0.0
 70
8
  0
VERTEX
  8
0
 10
38.5
 20
-3.5
 30
0.0
  0
VERTEX
  8
0
 10
38.5613118798
 20
-3.47328832339
 30
0.0
  0
VERTEX
  8
0
 10
38.6230619979
 20
-3.44551864951
 30
0.0
  0
VERTEX
  8
0
 10
38.6852315447
 20
-3.41669943728
 30
0.0
  0
VERTEX
  8
0
 10
38.7478015827
 20
-3.38683946529
 30
0.0
  0
VERTEX
  8
0
 10
38.8107530525
 20
-3.3559478292
 30
0.0
  0
VERTEX
  8
0
 10
38.8740667784
 20
-3.32403393889
 30
0.0
  0
VERTEX
  8
0
 10
38.9377234745
 20
-3.29110751564
 30
0.0
  0
VERTEX
  8
0
 10
39.0017037502
 20
-3.25717858916
 30
0.0
  0
VERTEX
  8
0
 10
39.0659881167
 20
-3.22225749452
 30
0.0
  0
VERTEX
  8
0
 10
39.1305569923
 20
-3.18635486904
 30
0.0
  0
VERTEX
  8
0
 10
39.1953907086
 20
-3.149481649
 30
0.0
  0
VERTEX
  8
0
 10
39.2604695168
 20
-3.11164906634
 30
0.0
  0
VERTEX
  8
0
 10
39.325773593
 20
-3.07286864523
 30
0.0
  0
VERTEX
  8
0
 10
39.3912830452
 20
-3.03315219857
 30
0.0
  0
VERTEX
  8
0
 10
39.4569779184
 20
-2.99251182436
 30
0.0
  0
VERTEX
  8
0
 10
39.5228382015
 20
-2.95095990206
 30
0.0
  0
VERTEX
  8
0
 10
39.5888438326
 20
-2.90850908879
 30
0.0
  0
VERTEX
  8
0
 10
39.6549747059
 20
-2.86517231547
 30
0.0
  0
VERTEX
  8
0
 10
39.7212106772
 20
-2.82096278291
 30
0.0
  0
VERTEX
  8
0
 10
39.7875315705
 20
-2.77589395776
 30
0.0
  0
VERTEX
  8
0
 10
39.8539171837
 20
-2.72997956842
 30
0.0
  0
VERTEX
  8
0
 10
39.9203472951
 20
-2.68323360086
 30
0.0
  0
VERTEX
  8
0
 10
39.9868016695
 20
-2.63567029435
 30
0.0
  0
VERTEX
  8
0
 10
40.0532600643
 20
-2.58730413714
 30
0.0
  0
VERTEX
  8
0
 10
40.1197022355
 20
-2.53814986202
 30
0.0
  0
VERTEX
  8
0
 10
40.1861079443
 20
-2.48822244186
 30
0.0
  0
VERTEX
  8
0
 10
40.2524569628
 20
-2.43753708505
 30
0.0
  0
VERTEX
  8
0
 10
40.3187290805
 20
-2.38610923083
 30
0.0
  0
VERTEX
  8
0
 10
40.3849041102
 20
-2.33395454462
 30
0.0
  0
VERTEX
  8
0
 10
40.4509618943
 20
-2.28108891325
 30
0.0
  0
VERTEX
  8
0
 10
40.5168823111
 20
-2.22752844009
 30
0.0
  0
VERTEX
  8
0
 10
40.5826452806
 20
-2.1732894402
 30
0.0
  0
VERTEX
  8
0
 10
40.6482307706
 20
-2.11838843529
 30
0.0
  0
VERTEX
  8
0
 10
40.7136188033
 20
-2.06284214874
 30
0.0
  0
VERTEX
  8
0
 10
40.7787894608
 20
-2.00666750048
 30
0.0
  0
VERTEX
  8
0
 10
40.8437228915
 20
-1.94988160187
 30
0.0
  0
VERTEX
  8
0
 10
40.908399316
 20
-1.89250175044
 30
0.0
  0
VERTEX
  8
0
 10
40.9727990332
 20
-1.83454542464
 30
0.0
  0
VERTEX
  8
0
 10
41.0369024265
 20
-1.77603027852
 30
0.0
  0
VERTEX
  8
0
 10
41.1006899692
 20
-1.71697413639
 30
0.0
  0
VERTEX
  8
0
 10
41.1641422311
 20
-1.65739498729
 30
0.0
  0
VERTEX
  8
0
 10
41.227239884
 20
-1.59731097963
 30
0.0
  0
VERTEX
  8
0
 10
41.2899637078
 20
-1.53674041557
 30
0.0
  0
VERTEX
  8
0
 10
41.3522945961
 20
-1.4757017455
 30
0.0
  0
VERTEX
  8
0
 10
41.4142135624
 20
-1.41421356237
 30
0.0
  0
VERTEX
  8
0
 10
41.4757017455
 20
-1.3522945961
 30
0.0
  0
VERTEX
  8
0
 10
41.5367404156
 20
-1.28996370779
 30
0.0
  0
VERTEX
  8
0
 10
41.5973109796
 20
-1.22723988404
 30
0.0
  0
VERTEX
  8
0
 10
41.6573949873
 20
-1.16414223113
 30
0.0
  0
VERTEX
  8
0
 10
41.7169741364
 20
-1.10068996922
 30
0.0
  0
VERTEX
  8
0
 10
41.7760302785
 20
-1.03690242649
 30
0.0
  0
VERTEX
  8
0
 10
41.8345454246
 20
-0.97279903323
 30
0.0
  0
VERTEX
  8
0
 10
41.8925017504
 20
-0.908399315961
 30
0.0
  0
VERTEX
  8
0
 10
41.9498816019
 20
-0.843722891461
 30
0.0
  0
VERTEX
  8
0
 10
42.0066675005
 20
-0.778789460795
 30
0.0
  0
VERTEX
  8
0
 10
42.0628421487
 20
-0.713618803315
 30
0.0
  0
VERTEX
  8
0
 10
42.1183884353
 20
-0.648230770634
 30
0.0
  0
VERTEX
  8
0
 10
42.1732894402
 20
-0.582645280582
 30
0.0
  0
VERTEX
  8
0
 10
42.2275284401
 20
-0.516882311132
 30
0.0
  0
VERTEX
  8
0
 10
42.2810889132
 20
-0.450961894323
 30
0.0
  0
VERTEX
  8
0
 10
42.3339545446
 20
-0.384904110153
 30
0.0
  0
VERTEX
  8
0
 10
42.3861092308
 20
-0.318729080462
 30
0.0
  0
VERTEX
  8
0
 10
42.437537085
 20
-0.252456962806
 30
0.0
  0
VERTEX
  8
0
 10
42.4882224419
 20
-0.186107944313
 30
0.0
  0
VERTEX
  8
0
 10
42.538149862
 20
-0.119702235537
 30
0.0
  0
VERTEX
  8
0
 10
42.5873041371
 20
-0.0532600643014
 30
0.0
  0
VERTEX
  8
0
 10
42.6356702943
 20
0.0131983304662
 30
0.0
  0
VERTEX
  8
0
 10
42.6832336009
 20
0.0796527048945
 30
0.0
  0
VERTEX
  8
0
 10
42.7299795684
 20
0.146082816337
 30
0.0
  0
VERTEX
  8
0
 10
42.7758939578
 20
0.212468429539
 30
0.0
  0
VERTEX
  8
0
 10
42.8209627829
 20
0.278789322799
 30
0.0
  0
VERTEX
  8
0
 10
42.8651723155
 20
0.34502529413
 30
0.0
  0
VERTEX
  8
0
 10
42.9085090888
 20
0.411156167415
 30
0.0
  0
VERTEX
  8
0
 10
42.9509599021
 20
0.477161798548
 30
0.0
  0
VERTEX
  8
0
 10
42.9925118244
 20
0.543022081575
 30
0.0
  0
VERTEX
  8
0
 10
43.0331521986
 20
0.608716954815
 30
0.0
  0
VERTEX
  8
0
 10
43.0728686452
 20
0.674226406974
 30
0.0
  0
VERTEX
  8
0
 10
43.1116490663
 20
0.739530483239
 30
0.0
  0
VERTEX
  8
0
 10
43.149481649
 20
0.804609291354
 30
0.0
  0
VERTEX
  8
0
 10
43.186354869
 20
0.869443007684
 30
0.0
  0
VERTEX
  8
0
 10
43.2222574945
 20
0.934011883252
 30
0.0
  0
VERTEX
  8
0
 10
43.2571785892
 20
0.998296249752
 30
0.0
  0
VERTEX
  8
0
 10
43.2911075156
 20
1.06227652554
 30
0.0
  0
VERTEX
  8
0
 10
43.3240339389
 20
1.12593322162
 30
0.0
  0
VERTEX
  8
0
 10
43.3559478292
 20
1.18924694752
 30
0.0
  0
VERTEX
  8
0
 10
43.3868394653
 20
1.25219841729
 30
0.0
  0
VERTEX
  8
0
 10
43.4166994373
 20
1.31476845528
 30
0.0
  0
VERTEX
  8
0
 10
43.4455186495
 20
1.37693800207
 30
0.0
  0
VERTEX
  8
0
 10
43.4732883234
 20
1.4386881202
 30
0.0
  0
SEQEND
  0
POLYLINE
 62
256
  8
0
 66
1
 10
0.0
 20
0.0
 30
0.0
 70
8
  0
VERTEX
  8
0
 10
39.75
 20
3.03108891325
 30
0.0
  0
VERTEX
  8
0
 10
39.6971382805
 20
2.9739069428
 30
0.0
  0
VERTEX
  8
0
 10
39.6443688157
 20
2.91581909149
 30
0.0
  0
VERTEX
  8
0
 10
39.5917076796
 20
2.85684305344
 30
0.0
  0
VERTEX
  8
0
 10
39.5391709132
 20
2.79699679333
 30
0.0
  0
VERTEX
  8
0
 10
39.4867745199
 20
2.73629854089
 30
0.0
  0
VERTEX
  8
0
 10
39.43453446
 20
2.67476678541
 30
0.0
  0
VERTEX
  8
0
 10
39.3824666464
 20
2.61242027006
 30
0.0
  0
VERTEX
  8
0
 10
39.3305869395
 20
2.54927798618
 30
0.0
  0
VERTEX
  8
0
 10
39.2789111422
 20
2.48535916754
 30
0.0
  0
VERTEX
  8
0
 10
39.2274549956
 20
2.42068328442
 30
0.0
  0
VERTEX
  8
0
 10
39.1762341737
 20
2.35527003771
 30
0.0
  0
VERTEX
  8
0
 10
39.1252642788
 20
2.28913935294
 30
0.0
  0
VERTEX
  8
0
 10
39.074560837
 20
2.22231137415
 30
0.0
  0
VERTEX
  8
0
 10
39.0241392928
 20
2.15480645779
 30
0.0
  0
VERTEX
  8
0
 10
38.9740150053
 20
2.0866451665
 30
0.0
  0
VERTEX
  8
0
 10
38.9242032427
 20
2.01784826288
 30
0.0
  0
VERTEX
  8
0
 10
38.8747191783
 20
1.94843670313
 30
0.0
  0
VERTEX
  8
0
 10
38.8255778853
 20
1.87843163069
 30
0.0
  0
VERTEX
  8
0
 10
38.7767943326
 20
1.80785436978
 30
0.0
  0
VERTEX
  8
0
 10
38.7283833803
 20
1.73672641891
 30
0.0
  0
VERTEX
  8
0
 10
38.6803597746
 20
1.66506944436
 30
0.0
  0
VERTEX
  8
0
 10
38.6327381442
 20
1.59290527352
 30
0.0
  0
VERTEX
  8
0
 10
38.585532995
 20
1.5202558883
 30
0.0
  0
VERTEX
  8
0
 10
38.5387587062
 20
1.44714341841
 30
0.0
  0
VERTEX
  8
0
 10
38.4924295255
 20
1.37359013462
 30
0.0
  0
VERTEX
  8
0
 10
38.4465595655
 20
1.29961844196
 30
0.0
  0
VERTEX
  8
0
 10
38.4011627985
 20
1.22525087294
 30
0.0
  0
VERTEX
  8
0
 10
38.3562530527
 20
1.15051008064
 30
0.0
  0
VERTEX
  8
0
 10
38.3118440083
 20
1.07541883182
 30
0.0
  0
VERTEX
  8
0
 10
38.2679491924
 20
1.0
 30
0.0
  0
VERTEX
  8
0
 10
38.2245819761
 20
0.924276558497
 30
0.0
  0
VERTEX
  8
0
 10
38.1817555692
 20
0.848271573401
 30
0.0
  0
VERTEX
  8
0
 10
38.1394830173
 20
0.772008196566
 30
0.0
  0
VERTEX
  8
0
 10
38.0977771968
 20
0.695509658556
 30
0.0
  0
VERTEX
  8
0
 10
38.0566508118
 20
0.618799261566
 30
0.0
  0
VERTEX
  8
0
 10
38.0161163898
 20
0.541900372327
 30
0.0
  0
VERTEX
  8
0
 10
37.976186278
 20
0.464836414984
 30
0.0
  0
VERTEX
  8
0
 10
37.9368726394
 20
0.387630863967
 30
0.0
  0
VERTEX
  8
0
 10
37.8981874494
 20
0.310307236834
 30
0.0
  0
VERTEX
  8
0
 10
37.8601424919
 20
0.23288908711
 30
0.0
  0
VERTEX
  8
0
 10
37.8227493557
 20
0.155399997114
 30
0.0
  0
VERTEX
  8
0
 10
37.7860194312
 20
0.077863570774
 30
0.0
  0
VERTEX
  8
0
 10
37.7499639066
 20
0.000303426435831
 30
0.0
  0
VERTEX
  8
0
 10
37.7145937647
 20
-0.077256810329
 30
0.0
  0
VERTEX
  8
0
 10
37.6799197798
 20
-0.154793513921
 30
0.0
  0
VERTEX
  8
0
 10
37.6459525137
 20
-0.232283065909
 30
0.0
  0
VERTEX
  8
0
 10
37.6127023133
 20
-0.309701862225
 30
0.0
  0
VERTEX
  8
0
 10
37.580179307
 20
-0.387026320354
 30
0.0
  0
VERTEX
  8
0
 10
37.5483934014
 20
-0.464232886516
 30
0.0
  0
VERTEX
  8
0
 10
37.517354279
 20
-0.541298042844
 30
0.0
  0
VERTEX
  8
0
 10
37.4870713945
 20
-0.618198314545
 30
0.0
  0
VERTEX
  8
0
 10
37.4575539724
 20
-0.69491027705
 30
0.0
  0
VERTEX
  8
0
 10
37.428811004
 20
-0.771410563153
 30
0.0
  0
VERTEX
  8
0
 10
37.4008512446
 20
-0.847675870126
 30
0.0
  0
VERTEX
  8
0
 10
37.3736832112
 20
-0.923682966817
 30
0.0
  0
VERTEX
  8
0
 10
37.3473151793
 20
-0.999408700728
 30
0.0
  0
VERTEX
  8
0
 10
37.3217551809
 20
-1.07483000507
 30
0.0
  0
VERTEX
  8
0
 10
37.2970110018
 20
-1.14992390578
 30
0.0
  0
VERTEX
  8
0
 10
37.2730901793
 20
-1.22466752852
 30
0.0
  0
VERTEX
  8
0
 10
37.25
 20
-1.29903810568
 30
0.0
  0
VERTEX
  8
0
 10
37.2277474973
 20
-1.37301298324
 30
0.0
  0
VERTEX
  8
0
 10
37.2063394496
 20
-1.44656962775
 30
0.0
  0
VERTEX
  8
0
 10
37.185782378
 20
-1.51968563313
 30
0.0
  0
VERTEX
  8
0
 10
37.1660825443
 20
-1.59233872755
 30
0.0
  0
VERTEX
  8
0
 10
37.1472459493
 20
-1.66450678017
 30
0.0
  0
VERTEX
  8
0
 10
37.1292783308
 20
-1.7361678079
 30
0.0
  0
VERTEX
  8
0
 10
37.112185162
 20
-1.8072999821
 30
0.0
  0
VERTEX
  8
0
 10
37.0959716495
 20
-1.87788163521
 30
0.0
  0
VERTEX
  8
0
 10
37.0806427322
 20
-1.94789126739
 30
0.0
  0
VERTEX
  8
0
 10
37.0662030794
 20
-2.01730755301
 30
0.0
  0
VERTEX
  8
0
 10
37.0526570896
 20
-2.08610934722
 30
0.0
  0
VERTEX
  8
0
 10
37.040008889
 20
-2.1542756923
 30
0.0
  0
VERTEX
  8
0
 10
37.0282623303
 20
-2.22178582415
 30
0.0
  0
VERTEX
  8
0
 10
37.0174209918
 20
-2.28861917851
 30
0.0
  0
VERTEX
  8
0
 10
37.0074881756
 20
-2.35475539729
 30
0.0
  0
VERTEX
  8
0
 10
36.9984669076
 20
-2.42017433477
 30
0.0
  0
VERTEX
  8
0
 10
36.9903599356
 20
-2.48485606371
 30
0.0
  0
VERTEX
  8
0
 10
36.9831697292
 20
-2.54878088141
 30
0.0
  0
VERTEX
  8
0
 10
36.9768984785
 20
-2.61192931577
 30
0.0
  0
VERTEX
  8
0
 10
36.9715480937
 20
-2.67428213116
 30
0.0
  0
VERTEX
  8
0
 10
36.9671202048
 20
-2.7358203343
 30
0.0
  0
VERTEX
  8
0
 10
36.9636161605
 20
-2.79652518007
 30
0.0
  0
VERTEX
  8
0
 10
36.961037028
 20
-2.85637817717
 30
0.0
  0
VERTEX
  8
0
 10
36.9593835932
 20
-2.91536109382
 30
0.0
  0
VERTEX
  8
0
 10
36.9586563595
 20
-2.97345596323
 30
0.0
  0
VERTEX
  8
0
 10
36.9588555486
 20
-3.03064508915
 30
0.0
  0
VERTEX
  8
0
 10
36.9599810997
 20
-3.08691105122
 30
0.0
  0
VERTEX
  8
0
 10
36.96203267
 20
-3.14223671028
 30
0.0
  0
VERTEX
  8
0
 10
36.9650096347
 20
-3.1966052136
 30
0.0
  0
SEQEND
  0
POLYLINE
 62
256
  8
0
 66
1
 10
0.0
 20
0.0
 30
0.0
 70
8
  0
VERTEX
  8
0
 10
40.25
 20
-3.03108891325
 30
0.0
  0
VERTEX
  8
0
 10
40.3028617195
 20
-2.9739069428
 30
0.0
  0
VERTEX
  8
0
 10
40.3556311843
 20
-2.91581909149
 30
0.0
  0
VERTEX
  8
0
 10
40.4082923204
 20
-2.85684305344
 30
0.0
  0
VERTEX
  8
0
 10
40.4608290868
 20
-2.79699679333
 30
0.0
  0
VERTEX
  8
0
 10
40.5132254801
 20
-2.73629854089
 30
0.0
  0
VERTEX
  8
0
 10
40.56546554
 20
-2.67476678541
 30
0.0
  0
VERTEX
  8
0
 10
40.6175333536
 20
-2.61242027006
 30
0.0
  0
VERTEX
  8
0
 10
40.6694130605
 20
-2.54927798618
 30
0.0
  0
VERTEX
  8
0
 10
40.7210888578
 20
-2.48535916754
 30
0.0
  0
VERTEX
  8
0
 10
40.7725450044
 20
-2.42068328442
 30
0.0
  0
VERTEX
  8
0
 10
40.8237658263
 20
-2.35527003771
 30
0.0
  0
VERTEX
  8
0
 10
40.8747357212
 20
-2.28913935294
 30
0.0
  0
VERTEX
  8
0
 10
40.925439163
 20
-2.22231137415
 30
0.0
  0
VERTEX
  8
0
 10
40.9758607072
 20
-2.15480645779
 30
0.0
  0
VERTEX
  8
0
 10
41.0259849947
 20
-2.0866451665
 30
0.0
  0
VERTEX
  8
0
 10
41.0757967573
 20
-2.01784826288
 30
0.0
  0
VERTEX
  8
0
 10
41.1252808217
 20
-1.94843670313
 30
0.0
  0
VERTEX
  8
0
 10
41.1744221147
 20
-1.87843163069
 30
0.0
  0
VERTEX
  8
0
 10
41.2232056674
 20
-1.80785436978
 30
0.0
  0
VERTEX
  8
0
 10
41.2716166197
 20
-1.73672641891
 30
0.0
  0
VERTEX
  8
0
 10
41.3196402254
 20
-1.66506944436
 30
0.0
  0
VERTEX
  8
0
 10
41.3672618558
 20
-1.59290527352
 30
0.0
  0
VERTEX
  8
0
 10
41.414467005
 20
-1.5202558883
 30
0.0
  0
VERTEX
  8
0
 10
41.4612412938
 20
-1.44714341841
 30
0.0
  0
VERTEX
  8
0
 10
41.5075704745
 20
-1.37359013462
 30
0.0
  0
VERTEX
  8
0
 10
41.5534404345
 20
-1.29961844196
 30
0.0
  0
VERTEX
  8
0
 10
41.5988372015
 20
-1.22525087294
 30
0.0
  0
VERTEX
  8
0
 10
41.6437469473
 20
-1.15051008064
 30
0.0
  0
VERTEX
  8
0
 10
41.6881559917
 20
-1.07541883182
 30
0.0
  0
VERTEX
  8
0
 10
41.7320508076
 20
-1.0
 30
0.0
  0
VERTEX
  8
0
 10
41.7754180239
 20
-0.924276558497
 30
0.0
  0
VERTEX
  8
0
 10
41.8182444308
 20
-0.848271573401
 30
0.0
  0
VERTEX
  8
0
 10
41.8605169827
 20
-0.772008196566
 30
0.0
  0
VERTEX
  8
0
 10
41.9022228032
 20
-0.695509658556
 30
0.0
  0
VERTEX
  8
0
 10
41.9433491882
 20
-0.618799261566
 30
0.0
  0
VERTEX
  8
0
 10
41.9838836102
 20
-0.541900372327
 30
0.0
  0
VERTEX
  8
0
 10
42.023813722
 20
-0.464836414984
 30
0.0
  0
VERTEX
  8
0
 10
42.0631273606
 20
-0.387630863967
 30
0.0
  0
VERTEX
  8
0
 10
42.1018125506
 20
-0.310307236834
 30
0.0
  0
VERTEX
  8
0
 10
42.1398575081
 20
-0.23288908711
 30
0.0
  0
VERTEX
  8
0
 10
42.1772506443
 20
-0.155399997114
 30
0.0
  0
VERTEX
  8
0
 10
42.2139805688
 20
-0.077863570774
 30
0.0
  0
VERTEX
  8
0
 10
42.2500360934
 20
-0.000303426435831
 30
0.0
  0
VERTEX
  8
0
 10
42.2854062353
 20
0.077256810329
 30
0.0
  0
VERTEX
  8
0
 10
42.3200802202
 20
0.154793513921
 30
0.0
  0
VERTEX
  8
0
 10
42.3540474863
 20
0.232283065909
 30
0.0
  0
VERTEX
  8
0
 10
42.3872976867
 20
0.309701862225
 30
0.0
  0
VERTEX
  8
0
 10
42.419820693
 20
0.387026320354
 30
0.0
  0
VERTEX
  8
0
 10
42.4516065986
 20
0.464232886516
 30
0.0
  0
VERTEX
  8
0
 10
42.482645721
 20
0.541298042844
 30
0.0
  0
VERTEX
  8
0
 10
42.5129286055
 20
0.618198314545
 30
0.0
  0
VERTEX
  8
0
 10
42.5424460276
 20
0.69491027705
 30
0.0
  0
VERTEX
  8
0
 10
42.571188996
 20
0.771410563153
 30
0.0
  0
VERTEX
  8
0
 10
42.5991487554
 20
0.847675870126
 30
0.0
  0
VERTEX
  8
0
 10
42.6263167888
 20
0.923682966817
 30
0.0
  0
VERTEX
  8
0
 10
42.6526848207
 20
0.999408700728
 30
0.0
  0
VERTEX
  8
0
 10
42.6782448191
 20
1.07483000507
 30
0.0
  0
VERTEX
  8
0
 10
42.7029889982
 20
1.14992390578
 30
0.0
  0
VERTEX
  8
0
 10
42.7269098207
 20
1.22466752852
 30
0.0
  0
VERTEX
  8
0
 10
42.75
 20
1.29903810568
 30
0.0
  0
VERTEX
  8
0
 10
42.7722525027
 20
1.37301298324
 30
0.0
  0
VERTEX
  8
0
 10
42.7936605504
 20
1.44656962775
 30
0.0
  0
VERTEX
  8
0
 10
42.814217622
 20
1.51968563313
 30
0.0
  0
VERTEX
  8
0
 10
42.8339174557
 20
1.59233872755
 30
0.0
  0
VERTEX
  8
0
 10
42.8527540507
 20
1.66450678017
 30
0.0
  0
VERTEX
  8
0
 10
42.8707216692
 20
1.7361678079
 30
0.0
  0
VERTEX
  8
0
 10
42.887814838
 20
1.8072999821
 30
0.0
  0
VERTEX
  8
0
 10
42.9040283505
 20
1.87788163521
 30
0.0
  0
VERTEX
  8
0
 10
42.9193572678
 20
1.94789126739
 30
0.0
  0
VERTEX
  8
0
 10
42.9337969206
 20
2.01730755301
 30
0.0
  0
VERTEX
  8
0
 10
42.9473429104
 20
2.08610934722
 30
0.0
  0
VERTEX
  8
0
 10
42.959991111
 20
2.1542756923
 30
0.0
  0
VERTEX
  8
0
 10
42.9717376697
 20
2.22178582415
 30
0.0
  0
VERTEX
  8
0
 10
42.9825790082
 20
2.28861917851
 30
0.0
  0
VERTEX
  8
0
 10
42.9925118244
 20
2.35475539729
 30
0.0
  0
VERTEX
  8
0
 10
43.0015330924
 20
2.42017433477
 30
0.0
  0
VERTEX
  8
0
 10
43.0096400644
 20
2.48485606371
 30
0.0
  0
VERTEX
  8
0
 10
43.0168302708
 20
2.54878088141
 30
0.0
  0
VERTEX
  8
0
 10
43.0231015215
 20
2.61192931577
 30
0.0
  0
VERTEX
  8
0
 10
43.0284519063
 20
2.67428213116
 30
0.0
  0
VERTEX
  8
0
 10
43.0328797952
 20
2.7358203343
 30
0.0
  0
VERTEX
  8
0
 10
43.0363838395
 20
2.79652518007
 30
0.0
  0
VERTEX
  8
0
 10
43.038962972
 20
2.85637817717
 30
0.0
  0
VERTEX
  8
0
 10
43.0406164068
 20
2.91536109382
 30
0.0
  0
VERTEX
  8
0
 10
43.0413436405
 20
2.97345596323
 30
0.0
  0
VERTEX
  8
0
 10
43.0411444514
 20
3.03064508915
 30
0.0
  0
VERTEX
  8
0
 10
43.0400189003
 20
3.08691105122
 30
0.0
  0
VERTEX
  8
0
 10
43.03796733
 20
3.14223671028
 30
0.0
  0
VERTEX
  8
0
 10
43.0349903653
 20
3.1966052136
 30
0.0
  0
SEQEND
  0
POLYLINE
 62
256
  8
0
 66
1
 10
0.0
 20
0.0
 30
0.0
 70
8
  0
VERTEX
  8
0
 10
38.0
 20
4.28626379702e-16
 30
0.0
  0
VERTEX
  8
0
 10
38.0003046097
 20
-0.0872620321864
 30
0.0
  0
VERTEX
  8
0
 10
38.001218346
 20
-0.174497483513
 30
0.0
  0
VERTEX
  8
0
 10
38.0027409305
 20
-0.261679781215
 30
0.0
  0
VERTEX
  8
0
 10
38.0048718995
 20
-0.348782368721
 30
0.0
  0
VERTEX
  8
0
 10
38.0076106038
 20
-0.435778713738
 30
0.0
  0
VERTEX
  8
0
 10
38.0109562093
 20
-0.522642316338
 30
0.0
  0
VERTEX
  8
0
 10
38.0149076967
 20
-0.609346717026
 30
0.0
  0
VERTEX
  8
0
 10
38.0194638625
 20
-0.6958655048
 30
0.0
  0
VERTEX
  8
0
 10
38.0246233188
 20
-0.782172325201
 30
0.0
  0
VERTEX
  8
0
 10
38.030384494
 20
-0.868240888335
 30
0.0
  0
VERTEX
  8
0
 10
38.0367456331
 20
-0.954044976883
 30
0.0
  0
VERTEX
  8
0
 10
38.0437047985
 20
-1.03955845409
 30
0.0
  0
VERTEX
  8
0
 10
38.0512598704
 20
-1.12475527172
 30
0.0
  0
VERTEX
  8
0
 10
38.0594085474
 20
-1.209609478
 30
0.0
  0
VERTEX
  8
0
 10
38.0681483474
 20
-1.29409522551
 30
0.0
  0
VERTEX
  8
0
 10
38.0774766081
 20
-1.37818677908
 30
0.0
  0
VERTEX
  8
0
 10
38.0873904881
 20
-1.46185852361
 30
0.0
  0
VERTEX
  8
0
 10
38.0978869674
 20
-1.54508497187
 30
0.0
  0
VERTEX
  8
0
 10
38.1089628488
 20
-1.62784077229
 30
0.0
  0
VERTEX
  8
0
 10
38.1206147584
 20
-1.71010071663
 30
0.0
  0
VERTEX
  8
0
 10
38.132839147
 20
-1.79183974773
 30
0.0
  0
VERTEX
  8
0
 10
38.1456322909
 20
-1.87303296708
 30
0.0
  0
VERTEX
  8
0
 10
38.1589902931
 20
-1.95365564245
 30
0.0
  0
VERTEX
  8
0
 10
38.1729090847
 20
-2.03368321538
 30
0.0
  0
VERTEX
  8
0
 10
38.1873844259
 20
-2.1130913087
 30
0.0
  0
VERTEX
  8
0
 10
38.2024119074
 20
-2.19185573395
 30
0.0
  0
VERTEX
  8
0
 10
38.2179869516
 20
-2.2699524987
 30
0.0
  0
VERTEX
  8
0
 10
38.2341048143
 20
-2.34735781393
 30
0.0
  0
VERTEX
  8
0
 10
38.2507605857
 20
-2.42404810123
 30
0.0
  0
VERTEX
  8
0
 10
38.2679491924
 20
-2.5
 30
0.0
  0
VERTEX
  8
0
 10
38.2856653986
 20
-2.57519037455
 30
0.0
  0
VERTEX
  8
0
 10
38.3039038077
 20
-2.64959632117
 30
0.0
  0
VERTEX
  8
0
 10
38.3226588641
 20
-2.72319517508
 30
0.0
  0
VERTEX
  8
0
 10
38.3419248549
 20
-2.79596451735
 30
0.0
  0
VERTEX
  8
0
 10
38.3616959114
 20
-2.86788218176
 30
0.0
  0
VERTEX
  8
0
 10
38.3819660113
 20
-2.93892626146
 30
0.0
  0
VERTEX
  8
0
 10
38.4027289799
 20
-3.00907511576
 30
0.0
  0
VERTEX
  8
0
 10
38.4239784928
 20
-3.07830737663
 30
0.0
  0
VERTEX
  8
0
 10
38.4457080771
 20
-3.14660195525
 30
0.0
  0
VERTEX
  8
0
 10
38.4679111138
 20
-3.21393804843
 30
0.0
  0
VERTEX
  8
0
 10
38.4905808396
 20
-3.28029514495
 30
0.0
  0
VERTEX
  8
0
 10
38.513710349
 20
-3.34565303179
 30
0.0
  0
VERTEX
  8
0
 10
38.5372925968
 20
-3.40999180031
 30
0.0
  0
VERTEX
  8
0
 10
38.5613203993
 20
-3.47329185229
 30
0.0
  0
VERTEX
  8
0
 10
38.5857864376
 20
-3.53553390593
 30
0.0
  0
VERTEX
  8
0
 10
38.6106832591
 20
-3.59669900169
 30
0.0
  0
VERTEX
  8
0
 10
38.6360032799
 20
-3.6567685081
 30
0.0
  0
VERTEX
  8
0
 10
38.6617387873
 20
-3.71572412739
 30
0.0
  0
VERTEX
  8
0
 10
38.687881942
 20
-3.77354790111
 30
0.0
  0
VERTEX
  8
0
 10
38.7144247806
 20
-3.83022221559
 30
0.0
  0
VERTEX
  8
0
 10
38.7413592179
 20
-3.88572980728
 30
0.0
  0
VERTEX
  8
0
 10
38.7686770493
 20
-3.94005376803
 30
0.0
  0
VERTEX
  8
0
 10
38.7963699537
 20
-3.99317755024
 30
0.0
  0
VERTEX
  8
0
 10
38.8244294954
 20
-4.04508497187
 30
0.0
  0
VERTEX
  8
0
 10
38.8528471273
 20
-4.09576022144
 30
0.0
  0
VERTEX
  8
0
 10
38.8816141931
 20
-4.14518786278
 30
0.0
  0
VERTEX
  8
0
 10
38.91072193
 20
-4.19335283973
 30
0.0
  0
VERTEX
  8
0
 10
38.9401614715
 20
-4.24024048078
 30
0.0
  0
VERTEX
  8
0
 10
38.9699238502
 20
-4.28583650351
 30
0.0
  0
VERTEX
  8
0
 10
39.0
 20
-4.33012701892
 30
0.0
  0
VERTEX
  8
0
 10
39.0303807595
 20
-4.3730985357
 30
0.0
  0
VERTEX
  8
0
 10
39.0610568744
 20
-4.41473796429
 30
0.0
  0
VERTEX
  8
0
 10
39.0920190005
 20
-4.45503262094
 30
0.0
  0
VERTEX
  8
0
 10
39.1232577064
 20
-4.4939702315
 30
0.0
  0
VERTEX
  8
0
 10
39.1547634765
 20
-4.53153893518
 30
0.0
  0
VERTEX
  8
0
 10
39.1865267138
 20
-4.56772728821
 30
0.0
  0
VERTEX
  8
0
 10
39.218537743
 20
-4.60252426726
 30
0.0
  0
VERTEX
  8
0
 10
39.2507868132
 20
-4.63591927283
 30
0.0
  0
VERTEX
  8
0
 10
39.2832641009
 20
-4.66790213249
 30
0.0
  0
VERTEX
  8
0
 10
39.3159597133
 20
-4.69846310393
 30
0.0
  0
VERTEX
  8
0
 10
39.3488636911
 20
-4.727592878
 30
0.0
  0
VERTEX
  8
0
 10
39.3819660113
 20
-4.75528258148
 30
0.0
  0
VERTEX
  8
0
 10
39.4152565906
 20
-4.78152377982
 30
0.0
  0
VERTEX
  8
0
 10
39.4487252884
 20
-4.80630847969
 30
0.0
  0
VERTEX
  8
0
 10
39.4823619098
 20
-4.82962913145
 30
0.0
  0
VERTEX
  8
0
 10
39.5161562088
 20
-4.85147863138
 30
0.0
  0
VERTEX
  8
0
 10
39.5500978913
 20
-4.87185032393
 30
0.0
  0
VERTEX
  8
0
 10
39.5841766184
 20
-4.89073800367
 30
0.0
  0
VERTEX
  8
0
 10
39.6183820092
 20
-4.90813591724
 30
0.0
  0
VERTEX
  8
0
 10
39.6527036447
 20
-4.92403876506
 30
0.0
  0
VERTEX
  8
0
 10
39.6871310699
 20
-4.93844170298
 30
0.0
  0
VERTEX
  8
0
 10
39.7216537981
 20
-4.95134034371
 30
0.0
  0
VERTEX
  8
0
 10
39.7562613132
 20
-4.96273075821
 30
0.0
  0
VERTEX
  8
0
 10
39.7909430735
 20
-4.97260947684
 30
0.0
  0
VERTEX
  8
0
 10
39.8256885145
 20
-4.98097349046
 30
0.0
  0
VERTEX
  8
0
 10
39.8604870525
 20
-4.9878202513
 30
0.0
  0
VERTEX
  8
0
 10
39.8953280875
 20
-4.99314767377
 30
0.0
  0
VERTEX
  8
0
 10
39.9302010066
 20
-4.9969541351
 30
0.0
  0
VERTEX
  8
0
 10
39.9650951871
 20
-4.99923847578
 30
0.0
  0
SEQEND
  0
POLYLINE
 62
256
  8
0
 66
1
 10
0.0
 20
0.0
 30
0.0
 70
8
  0
VERTEX
  8
0
 10
42.0
 20
-1.04094977928e-15
 30
0.0
  0
VERTEX
  8
0
 10
41.9996953903
 20
0.0872620321864
 30
0.0
  0
VERTEX
  8
0
 10
41.998781654
 20
0.174497483513
 30
0.0
  0
VERTEX
  8
0
 10
41.9972590695
 20
0.261679781215
 30
0.0
  0
VERTEX
  8
0
 10
41.9951281005
 20
0.348782368721
 30
0.0
  0
VERTEX
  8
0
 10
41.9923893962
 20
0.435778713738
 30
0.0
  0
VERTEX
  8
0
 10
41.9890437907
 20
0.522642316338
 30
0.0
  0
VERTEX
  8
0
 10
41.9850923033
 20
0.609346717026
 30
0.0
  0
VERTEX
  8
0
 10
41.9805361375
 20
0.6958655048
 30
0.0
  0
VERTEX
  8
0
 10
41.9753766812
 20
0.782172325201
 30
0.0
  0
VERTEX
  8
0
 10
41.969615506
 20
0.868240888335
 30
0.0
  0
VERTEX
  8
0
 10
41.9632543669
 20
0.954044976883
 30
0.0
  0
VERTEX
  8
0
 10
41.9562952015
 20
1.03955845409
 30
0.0
  0
VERTEX
  8
0
 10
41.9487401296
 20
1.12475527172
 30
0.0
  0
VERTEX
  8
0
 10
41.9405914526
 20
1.209609478
 30
0.0
  0
VERTEX
  8
0
 10
41.9318516526
 20
1.29409522551
 30
0.0
  0
VERTEX
  8
0
 10
41.9225233919
 20
1.37818677908
 30
0.0
  0
VERTEX
  8
0
 10
41.9126095119
 20
1.46185852361
 30
0.0
  0
VERTEX
  8
0
 10
41.9021130326
 20
1.54508497187
 30
0.0
  0
VERTEX
  8
0
 10
41.8910371512
 20
1.62784077229
 30
0.0
  0
VERTEX
  8
0
 10
41.8793852416
 20
1.71010071663
 30
0.0
  0
VERTEX
  8
0
 10
41.867160853
 20
1.79183974773
 30
0.0
  0
VERTEX
  8
0
 10
41.8543677091
 20
1.87303296708
 30
0.0
  0
VERTEX
  8
0
 10
41.8410097069
 20
1.95365564245
 30
0.0
  0
VERTEX
  8
0
 10
41.8270909153
 20
2.03368321538
 30
0.0
  0
VERTEX
  8
0
 10
41.8126155741
 20
2.1130913087
 30
0.0
  0
VERTEX
  8
0
 10
41.7975880926
 20
2.19185573395
 30
0.0
  0
VERTEX
  8
0
 10
41.7820130484
 20
2.2699524987
 30
0.0
  0
VERTEX
  8
0
 10
41.7658951857
 20
2.34735781393
 30
0.0
  0
VERTEX
  8
0
 10
41.7492394143
 20
2.42404810123
 30
0.0
  0
VERTEX
  8
0
 10
41.7320508076
 20
2.5
 30
0.0
  0
VERTEX
  8
0
 10
41.7143346014
 20
2.57519037455
 30
0.0
  0
VERTEX
  8
0
 10
41.6960961923
 20
2.64959632117
 30
0.0
  0
VERTEX
  8
0
 10
41.6773411359
 20
2.72319517508
 30
0.0
  0
VERTEX
  8
0
 10
41.6580751451
 20
2.79596451735
 30
0.0
  0
VERTEX
  8
0
 10
41.6383040886
 20
2.86788218176
 30
0.0
  0
VERTEX
  8
0
 10
41.6180339887
 20
2.93892626146
 30
0.0
  0
VERTEX
  8
0
 10
41.5972710201
 20
3.00907511576
 30
0.0
  0
VERTEX
  8
0
 10
41.5760215072
 20
3.07830737663
 30
0.0
  0
VERTEX
  8
0
 10
41.5542919229
 20
3.14660195525
 30
0.0
  0
VERTEX
  8
0
 10
41.5320888862
 20
3.21393804843
 30
0.0
  0
VERTEX
  8
0
 10
41.5094191604
 20
3.28029514495
 30
0.0
  0
VERTEX
  8
0
 10
41.486289651
 20
3.34565303179
 30
0.0
  0
VERTEX
  8
0
 10
41.4627074032
 20
3.40999180031
 30
0.0
  0
VERTEX
  8
0
 10
41.4386796007
 20
3.47329185229
 30
0.0
  0
VERTEX
  8
0
 10
41.4142135624
 20
3.53553390593
 30
0.0
  0
VERTEX
  8
0
 10
41.3893167409
 20
3.59669900169
 30
0.0
  0
VERTEX
  8
0
 10
41.3639967201
 20
3.6567685081
 30
0.0
  0
VERTEX
  8
0
 10
41.3382612127
 20
3.71572412739
 30
0.0
  0
VERTEX
  8
0
 10
41.312118058
 20
3.77354790111
 30
0.0
  0
VERTEX
  8
0
 10
41.2855752194
 20
3.83022221559
 30
0.0
  0
VERTEX
  8
0
 10
41.2586407821
 20
3.88572980728
 30
0.0
  0
VERTEX
  8
0
 10
41.2313229507
 20
3.94005376803
 30
0.0
  0
VERTEX
  8
0
 10
41.2036300463
 20
3.99317755024
 30
0.0
  0
VERTEX
  8
0
 10
41.1755705046
 20
4.04508497187
 30
0.0
  0
VERTEX
  8
0
 10
41.1471528727
 20
4.09576022144
 30
0.0
  0
VERTEX
  8
0
 10
41.1183858069
 20
4.14518786278
 30
0.0
  0
VERTEX
  8
0
 10
41.08927807
 20
4.19335283973
 30
0.0
  0
VERTEX
  8
0
 10
41.0598385285
 20
4.24024048078
 30
0.0
  0
VERTEX
  8
0
 10
41.0300761498
 20
4.28583650351
 30
0.0
  0
VERTEX
  8
0
 10
41.0
 20
4.33012701892
 30
0.0
  0
VERTEX
  8
0
 10
40.9696192405
 20
4.3730985357
 30
0.0
  0
VERTEX
  8
0
 10
40.9389431256
 20
4.41473796429
 30
0.0
  0
VERTEX
  8
0
 10
40.9079809995
 20
4.45503262094
 30
0.0
  0
VERTEX
  8
0
 10
40.8767422936
 20
4.4939702315
 30
0.0
  0
VERTEX
  8
0
 10
40.8452365235
 20
4.53153893518
 30
0.0
  0
VERTEX
  8
0
 10
40.8134732862
 20
4.56772728821
 30
0.0
  0
VERTEX
  8
0
 10
40.781462257
 20
4.60252426726
 30
0.0
  0
VERTEX
  8
0
 10
40.7492131868
 20
4.63591927283
 30
0.0
  0
VERTEX
  8
0
 10
40.7167358991
 20
4.66790213249
 30
0.0
  0
VERTEX
  8
0
 10
40.6840402867
 20
4.69846310393
 30
0.0
  0
VERTEX
  8
0
 10
40.6511363089
 20
4.727592878
 30
0.0
  0
VERTEX
  8
0
 10
40.6180339887
 20
4.75528258148
 30
0.0
  0
VERTEX
  8
0
 10
40.5847434094
 20
4.78152377982
 30
0.0
  0
VERTEX
  8
0
 10
40.5512747116
 20
4.80630847969
 30
0.0
  0
VERTEX
  8
0
 10
40.5176380902
 20
4.82962913145
 30
0.0
  0
VERTEX
  8
0
 10
40.4838437912
 20
4.85147863138
 30
0.0
  0
VERTEX
  8
0
 10
40.4499021087
 20
4.87185032393
 30
0.0
  0
VERTEX
  8
0
 10
40.4158233816
 20
4.89073800367
 30
0.0
  0
VERTEX
  8
0
 10
40.3816179908
 20
4.90813591724
 30
0.0
  0
VERTEX
  8
0
 10
40.3472963553
 20
4.92403876506
 30
0.0
  0
VERTEX
  8
0
 10
40.3128689301
 20
4.93844170298
 30
0.0
  0
VERTEX
  8
0
 10
40.2783462019
 20
4.95134034371
 30
0.0
  0
VERTEX
  8
0
 10
40.2437386868
 20
4.96273075821
 30
0.0
  0
VERTEX
  8
0
 10
40.2090569265
 20
4.97260947684
 30
0.0
  0
VERTEX
  8
0
 10
40.1743114855
 20
4.98097349046
 30
0.0
  0
VERTEX
  8
0
 10
40.1395129475
 20
4.9878202513
 30
0.0
  0
VERTEX
  8
0
 10
40.1046719125
 20
4.99314767377
 30
0.0
  0
VERTEX
  8
0
 10
40.0697989934
 20
4.9969541351
 30
0.0
  0
VERTEX
  8
0
 10
40.0349048129
 20
4.99923847578
 30
0.0
  0
SEQEND
  0
ENDSEC
  0
EOF
