<?xml version="1.0" encoding="UTF-8" standalone="no"?>
<!-- Created with Inkscape (http://www.inkscape.org/) -->
<svg
   xmlns:dc="http://purl.org/dc/elements/1.1/"
   xmlns:cc="http://creativecommons.org/ns#"
   xmlns:rdf="http://www.w3.org/1999/02/22-rdf-syntax-ns#"
   xmlns:svg="http://www.w3.org/2000/svg"
   xmlns="http://www.w3.org/2000/svg"
   xmlns:sodipodi="http://sodipodi.sourceforge.net/DTD/sodipodi-0.dtd"
   xmlns:inkscape="http://www.inkscape.org/namespaces/inkscape"
   width="744.09448819"
   height="1052.3622047"
   id="svg9153"
   sodipodi:version="0.32"
   inkscape:version="0.46"
   sodipodi:docname="burret_0.svg"
   inkscape:output_extension="org.inkscape.output.svg.inkscape">
  <defs
     id="defs9155">
    <inkscape:perspective
       sodipodi:type="inkscape:persp3d"
       inkscape:vp_x="0 : 526.18109 : 1"
       inkscape:vp_y="0 : 1000 : 0"
       inkscape:vp_z="744.09448 : 526.18109 : 1"
       inkscape:persp3d-origin="372.04724 : 350.78739 : 1"
       id="perspective9161" />
  </defs>
  <sodipodi:namedview
     id="base"
     pagecolor="#ffffff"
     bordercolor="#666666"
     borderopacity="1.0"
     gridtolerance="10000"
     guidetolerance="10"
     objecttolerance="10"
     inkscape:pageopacity="0.0"
     inkscape:pageshadow="2"
     inkscape:zoom="0.24748737"
     inkscape:cx="815.57252"
     inkscape:cy="156.58835"
     inkscape:document-units="px"
     inkscape:current-layer="layer1"
     showgrid="false"
     inkscape:window-width="1680"
     inkscape:window-height="975"
     inkscape:window-x="0"
     inkscape:window-y="25" />
  <metadata
     id="metadata9158">
    <rdf:RDF>
      <cc:Work
         rdf:about="">
        <dc:format>image/svg+xml</dc:format>
        <dc:type
           rdf:resource="http://purl.org/dc/dcmitype/StillImage" />
      </cc:Work>
    </rdf:RDF>
  </metadata>
  <g
     inkscape:label="Layer 1"
     inkscape:groupmode="layer"
     id="layer1">
    <path
       style="fill:#ffffff;fill-opacity:1;fill-rule:nonzero;stroke:#000000;stroke-width:3;stroke-linecap:butt;stroke-linejoin:miter;marker:none;marker-start:none;marker-mid:none;marker-end:none;stroke-miterlimit:4;stroke-dashoffset:0;stroke-opacity:1;visibility:visible;display:inline;overflow:visible;enable-background:accumulate"
       d="M 356.78889,725.44566 L 395.06081,725.44566 C 398.65247,725.44566 401.54394,728.36011 401.54394,731.98019 L 401.54394,735.78435 C 401.54394,739.40443 398.65247,742.31888 395.06081,742.31888 L 356.78889,742.31888 C 353.19724,742.31888 350.30576,739.40443 350.30576,735.78435 L 350.30576,731.98019 C 350.30576,728.36011 353.19724,725.44566 356.78889,725.44566 z"
       id="rect2492" />
    <path
       style="fill:#ffffff;fill-opacity:1;fill-rule:nonzero;stroke:#000000;stroke-width:3;stroke-linecap:butt;stroke-linejoin:miter;marker:none;marker-start:none;marker-mid:none;marker-end:none;stroke-miterlimit:4;stroke-dashoffset:0;stroke-opacity:1;visibility:visible;display:inline;overflow:visible;enable-background:accumulate"
       d="M 374.10778,760.42149 L 431.0693,760.42149 C 436.45679,760.42149 440.794,763.33586 440.794,766.95601 L 440.794,795.19863 C 440.794,798.8187 436.45679,801.73315 431.0693,801.73315 L 374.10778,801.73315 C 368.72029,801.73315 364.38308,798.8187 364.38308,795.19863 L 364.38308,766.95601 C 364.38308,763.33586 368.72029,760.42149 374.10778,760.42149 z"
       id="rect3272" />
    <path
       style="fill:#ffffff;fill-opacity:1;fill-rule:nonzero;stroke:#000000;stroke-width:3;stroke-linecap:butt;stroke-linejoin:miter;marker:none;marker-start:none;marker-mid:none;marker-end:none;stroke-miterlimit:4;stroke-dashoffset:0;stroke-opacity:1;visibility:visible;display:inline;overflow:visible;enable-background:accumulate"
       d="M 340.58251,753.41022 L 340.83003,753.41022 C 346.21751,753.41022 350.55473,756.32458 350.55473,759.94473 L 350.55473,801.84364 C 350.55473,805.46372 346.21751,808.37817 340.83003,808.37817 L 340.58251,808.37817 C 335.19501,808.37817 330.8578,805.46372 330.8578,801.84364 L 330.8578,759.94473 C 330.8578,756.32458 335.19501,753.41022 340.58251,753.41022 z"
       id="rect3278" />
    <path
       style="fill:#ffffff;fill-opacity:1;fill-rule:nonzero;stroke:#000000;stroke-width:3;stroke-linecap:butt;stroke-linejoin:miter;marker:none;marker-start:none;marker-mid:none;marker-end:none;stroke-miterlimit:4;stroke-dashoffset:0;stroke-opacity:1;visibility:visible;display:inline;overflow:visible;enable-background:accumulate"
       d="M 334.645,765.99118 L 363.92415,765.99118 C 369.31164,765.99118 373.64886,770.37757 373.64886,775.82612 L 373.64886,785.69492 C 373.64886,791.14347 369.31164,795.52986 363.92415,795.52986 L 334.645,795.52986 C 329.25751,795.52986 324.92029,791.14347 324.92029,785.69492 L 324.92029,775.82612 C 324.92029,770.37757 329.25751,765.99118 334.645,765.99118 z"
       id="rect3276" />
    <path
       style="fill:#ffffff;fill-opacity:1;fill-rule:nonzero;stroke:#000000;stroke-width:3;stroke-linecap:butt;stroke-linejoin:miter;marker:none;marker-start:none;marker-mid:none;marker-end:none;stroke-miterlimit:4;stroke-dasharray:none;stroke-dashoffset:0;stroke-opacity:1;visibility:visible;display:inline;overflow:visible;enable-background:accumulate"
       d="M 355.89319,741.99377 L 396.64435,741.99377 L 393.69733,816.94899 L 390.75029,829.00851 L 360.80491,829.00851 L 358.34905,816.94899 L 355.89319,741.99377 z"
       id="rect3264"
       sodipodi:nodetypes="ccccccc" />
    <path
       style="fill:#ffffff;fill-opacity:1;fill-rule:nonzero;stroke:#000000;stroke-width:3;stroke-linecap:butt;stroke-linejoin:miter;marker:none;marker-start:none;marker-mid:none;marker-end:none;stroke-miterlimit:4;stroke-dasharray:none;stroke-dashoffset:0;stroke-opacity:1;visibility:visible;display:inline;overflow:visible;enable-background:accumulate"
       d="M 361.02591,828.93348 L 390.49623,828.93348 L 387.54919,982.49945 L 379.50828,1024.9787 L 371.27953,1024.9787 L 364.3004,982.49945 L 361.02591,828.93348 z"
       id="rect3267"
       sodipodi:nodetypes="ccccccc" />
    <path
       style="fill:#ffffff;fill-opacity:1;fill-rule:evenodd;stroke:#000000;stroke-width:3;stroke-linecap:butt;stroke-linejoin:miter;stroke-miterlimit:4;stroke-dasharray:none;stroke-opacity:1"
       d="M 379.03556,1024.6488 L 371.50425,1024.6488 L 371.50425,828.93348 L 379.07529,828.93348 L 379.03556,1024.6488 z"
       id="path3270"
       sodipodi:nodetypes="ccccc" />
    <path
       style="fill:#ffffff;fill-opacity:1;fill-rule:nonzero;stroke:#000000;stroke-width:3;stroke-linecap:butt;stroke-linejoin:miter;marker:none;marker-start:none;marker-mid:none;marker-end:none;stroke-miterlimit:4;stroke-dashoffset:0;stroke-opacity:1;visibility:visible;display:inline;overflow:visible;enable-background:accumulate"
       d="M 420.07894,725.28689 C 424.61409,725.28689 428.26514,728.20125 428.26514,731.8214 L 428.26514,829.64664 C 428.26514,833.26681 424.61409,836.18117 420.07894,836.18117 C 415.54378,836.18117 411.89273,833.26681 411.89273,829.64664 L 411.89273,731.8214 C 411.89273,728.20125 415.54378,725.28689 420.07894,725.28689 z"
       id="rect3274" />
    <path
       style="fill:#ffffff;fill-opacity:1;fill-rule:nonzero;stroke:#000000;stroke-width:3;stroke-linecap:butt;stroke-linejoin:miter;marker:none;marker-start:none;marker-mid:none;marker-end:none;stroke-miterlimit:4;stroke-dashoffset:0;stroke-opacity:1;visibility:visible;display:inline;overflow:visible;enable-background:accumulate"
       d="M 357.41663,693.0627 L 394.15819,693.0627 L 394.15819,725.334 L 357.41663,725.334 L 357.41663,693.0627 z"
       id="rect3280" />
    <path
       style="fill:#ffffff;fill-opacity:1;fill-rule:nonzero;stroke:#000000;stroke-width:3;stroke-linecap:butt;stroke-linejoin:miter;marker:none;marker-start:none;marker-mid:none;marker-end:none;stroke-miterlimit:4;stroke-dashoffset:0;stroke-opacity:1;visibility:visible;display:inline;overflow:visible;enable-background:accumulate"
       d="M 365.79347,11.56184 L 385.72865,11.56184 C 393.63029,11.56184 399.99156,17.973504 399.99156,25.937761 L 399.99156,687.79398 C 399.99156,695.75825 393.63029,702.16989 385.72865,702.16989 L 365.79347,702.16989 C 357.89182,702.16989 351.53056,695.75825 351.53056,687.79398 L 351.53056,25.937761 C 351.53056,17.973504 357.89182,11.56184 365.79347,11.56184 z"
       id="rect3282" />
    <path
       style="fill:#ffffff;fill-opacity:1;fill-rule:nonzero;stroke:#000000;stroke-width:3;stroke-linecap:butt;stroke-linejoin:miter;marker:none;marker-start:none;marker-mid:none;marker-end:none;stroke-miterlimit:4;stroke-dasharray:none;stroke-dashoffset:0;stroke-opacity:1;visibility:visible;display:inline;overflow:visible;enable-background:accumulate"
       d="M 348.64138,10.772864 C 348.68518,10.7552 347.53262,10.773753 346.73696,11.058742 C 345.94129,11.343749 345.3593,12.467746 345.35929,12.467746 C 345.09984,12.467746 345.1625,17.175189 345.33904,17.511577 C 346.90192,20.489748 350.84854,24.69954 352.65282,24.69954 L 374.57394,24.69954 L 377.02537,24.69954 L 398.94649,24.69954 C 400.75078,24.69954 404.69738,20.489748 406.26028,17.511577 C 406.4368,17.175189 406.49946,12.467746 406.24003,12.467746 C 406.24002,12.467746 405.65801,11.343749 404.86236,11.058742 C 404.0667,10.773753 402.91412,10.7552 402.95792,10.772864 L 377.06589,10.793278 L 374.53341,10.793278 L 348.64138,10.772864 z"
       id="path3287" />
    <text
       xml:space="preserve"
       style="font-size:11.71579361px;font-style:normal;font-variant:normal;font-weight:normal;font-stretch:normal;fill:#000000;fill-opacity:1;stroke:none;stroke-width:1px;stroke-linecap:butt;stroke-linejoin:miter;stroke-opacity:1;font-family:Serif;-inkscape-font-specification:Serif"
       x="357.55994"
       y="54.99852"
       id="text8137"
       transform="scale(0.9960615,1.0039541)"><tspan
         sodipodi:role="line"
         id="tspan8139"
         x="357.55994"
         y="54.99852">20mL</tspan></text>
  </g>
</svg>
