<?xml version="1.0" encoding="utf-8"?>
<!-- Generator: Adobe Illustrator 16.0.0, SVG Export Plug-In . SVG Version: 6.00 Build 0)  -->
<!DOCTYPE svg PUBLIC "-//W3C//DTD SVG 1.1 Basic//EN" "http://www.w3.org/Graphics/SVG/1.1/DTD/svg11-basic.dtd">
<svg version="1.1" baseProfile="basic" id="Layer_1"
	 xmlns="http://www.w3.org/2000/svg" xmlns:xlink="http://www.w3.org/1999/xlink" x="0px" y="0px" width="89.333px"
	 height="647.53px" viewBox="0 0 89.333 647.53" xml:space="preserve">
<g>
	<path d="M47.111,644.312c-10.701-27.648-18.892-56.472-25.805-85.267c-6.265-26.095-11.046-52.591-13.527-79.323
		c-2.835-30.556-1.573-61.512-0.925-92.148c2.057-97.396,9.113-194.846,22.803-291.321C34.23,64.023,39.09,31.567,46.451-0.172
		c0.262-1.13-2.665-0.679-2.902,0.345C35,37.033,29.624,74.803,24.592,112.264C11.061,212.998,4.66,314.7,3.488,416.303
		c-0.305,26.479-0.233,52.695,2.993,79.018c3.022,24.655,8.007,49.061,14.049,73.142c6.488,25.859,14.051,51.738,23.684,76.627
		C44.623,646.145,47.489,645.288,47.111,644.312L47.111,644.312z"/>
</g>
<g>
	<path fill="#F3E620" d="M45.663,644.701c0,0,40.897-105.482,40.897-197.402C86.56,173.272,45,0,45,0"/>
	<g>
		<path fill="#7F1238" d="M45.808,644.683c10.702-27.648,18.893-56.472,25.806-85.267c6.265-26.095,11.046-52.591,13.527-79.324
			c2.729-29.406,1.589-59.162,0.987-88.647c-2-97.983-9.228-196.026-23.339-293.033C58.001,65.5,52.9,32.337,45.145-0.039
			c-0.025-0.105-0.315-0.03-0.29,0.078c8.822,36.828,14.383,74.624,19.582,112.091C78.408,212.824,85.026,314.549,86.236,416.17
			c0.327,27.521,0.137,54.725-3.404,82.062c-3.112,24.022-8.049,47.8-13.987,71.271c-6.421,25.38-13.868,50.776-23.327,75.215
			C45.479,644.818,45.77,644.783,45.808,644.683L45.808,644.683z"/>
	</g>
</g>
<path fill="#248034" stroke="#000000" stroke-width="0.1" stroke-miterlimit="10" d="M45.663,644.701
	c0,0-40.897-105.482-40.897-197.402C4.766,173.272,45,0,45,0"/>
</svg>
